<?xml version="1.0" encoding="UTF-8" ?>
<!DOCTYPE svg PUBLIC "-//W3C//DTD SVG 1.1//EN" "http://www.w3.org/Graphics/SVG/1.1/DTD/svg11.dtd">
<svg width="500pt" height="299pt" viewBox="0 0 500 299" version="1.1" xmlns="http://www.w3.org/2000/svg">
<g id="#1aa1ddff">
<path fill="#1aa1dd" opacity="1.00" d=" M 86.19 0.00 L 89.88 0.00 C 93.74 0.37 97.51 2.03 100.09 4.98 C 104.02 9.20 105.17 15.18 105.14 20.77 C 89.33 27.01 73.68 33.70 57.96 40.17 C 56.88 30.49 60.14 20.67 66.01 12.99 C 70.90 6.45 78.00 1.29 86.19 0.00 Z" />
<path fill="#1aa1dd" opacity="1.00" d=" M 225.26 0.00 L 228.76 0.00 C 238.51 1.39 246.61 8.24 251.64 16.43 C 256.55 24.42 259.11 34.41 256.50 43.63 C 255.15 48.52 251.62 52.64 246.99 54.71 C 240.18 42.20 235.18 28.79 228.97 15.97 C 227.09 10.69 223.67 6.03 222.54 0.48 C 223.22 0.36 224.58 0.12 225.26 0.00 Z" />
<path fill="#1aa1dd" opacity="1.00" d=" M 141.11 17.72 C 164.56 14.27 189.34 16.54 210.92 26.73 C 220.55 31.74 229.99 37.55 237.43 45.55 C 239.82 48.22 243.62 50.40 243.35 54.48 C 231.57 39.48 215.21 28.19 196.91 22.77 C 172.79 15.57 146.50 15.98 122.52 23.50 C 99.62 30.72 78.91 46.43 67.92 68.03 C 60.85 81.73 58.62 98.09 62.96 112.98 C 65.81 123.28 71.72 132.50 79.17 140.07 C 85.32 136.01 92.32 132.20 99.94 132.80 C 104.79 133.09 109.32 136.08 111.49 140.43 C 114.55 146.23 114.19 153.07 113.17 159.34 C 128.89 164.27 145.52 165.78 161.93 165.55 C 186.55 164.81 212.16 159.87 232.38 144.99 C 231.51 148.38 228.09 149.76 225.39 151.42 C 214.24 157.99 201.74 161.98 189.05 164.28 C 163.87 168.65 137.67 167.78 113.02 160.89 C 109.73 172.82 103.66 184.17 94.52 192.64 C 91.64 195.41 89.02 198.67 85.11 200.02 C 81.67 181.04 79.10 161.91 75.86 142.89 C 76.61 142.25 77.37 141.62 78.14 141.00 C 67.74 130.68 60.71 116.81 59.55 102.12 C 58.07 85.58 63.92 68.94 73.88 55.85 C 79.60 48.65 86.10 41.99 93.48 36.49 C 96.64 33.98 100.58 32.51 103.26 29.42 L 103.90 30.11 C 115.27 23.45 128.18 19.82 141.11 17.72 Z" />
<path fill="#1aa1dd" opacity="1.00" d=" M 246.88 57.43 C 256.94 71.99 261.69 90.62 257.79 108.07 C 254.60 123.35 245.16 136.82 232.87 146.23 L 232.40 144.98 C 244.83 135.02 254.46 121.00 256.93 105.05 C 259.81 89.16 255.07 72.81 246.65 59.33 L 246.88 57.43 Z" />
<path fill="#1aa1dd" opacity="1.00" d=" M 469.46 79.72 C 471.44 78.76 473.68 77.13 475.82 78.77 C 463.41 113.22 450.95 147.65 438.29 182.01 C 438.05 181.39 437.58 180.15 437.35 179.53 C 436.80 179.43 435.70 179.23 435.15 179.12 L 435.19 178.02 C 446.95 145.43 458.75 112.84 470.76 80.35 C 470.43 80.19 469.78 79.88 469.46 79.72 Z" />
<path fill="#1aa1dd" opacity="1.00" d=" M 116.67 82.75 C 118.42 81.73 120.17 80.70 121.97 79.78 L 122.79 79.37 C 125.37 88.28 128.48 97.83 125.55 107.07 C 121.11 120.73 103.54 128.01 90.79 121.23 C 83.96 118.06 80.03 110.42 80.95 103.00 L 81.26 102.90 C 87.02 101.16 92.03 97.57 96.74 93.92 C 98.59 99.53 104.77 103.97 110.69 101.60 C 118.01 98.84 120.08 89.27 116.67 82.75 Z" />
<path fill="#1aa1dd" opacity="1.00" d=" M 456.56 79.95 C 459.38 80.92 462.19 81.95 465.00 83.00 C 453.83 113.76 442.60 144.51 431.41 175.27 C 430.92 173.66 429.49 172.56 427.95 172.03 C 438.30 143.16 449.07 114.43 459.02 85.42 C 456.33 84.49 453.64 83.56 450.98 82.58 C 452.87 81.80 454.74 80.93 456.56 79.95 Z" />
<path fill="#1aa1dd" opacity="1.00" d=" M 193.60 80.96 C 195.35 81.74 197.11 82.53 198.87 83.31 C 197.58 86.66 196.99 90.44 198.18 93.91 C 199.54 98.59 204.01 102.54 209.06 102.19 C 212.75 102.14 215.72 99.58 217.84 96.78 C 223.73 100.46 229.69 104.05 235.86 107.24 C 235.14 114.01 230.29 119.86 223.93 122.13 C 211.51 127.26 195.73 120.13 191.32 107.45 C 188.44 98.72 190.80 89.39 193.60 80.96 Z" />
<path fill="#1aa1dd" opacity="1.00" d=" M 162.99 106.63 C 165.41 106.47 167.78 105.91 169.95 104.78 C 171.85 106.44 173.37 109.29 171.59 111.62 C 168.42 115.83 162.74 116.58 157.87 117.15 C 161.26 122.50 165.33 128.39 171.95 129.78 C 173.72 130.56 176.53 130.12 177.35 132.28 C 173.20 131.88 168.96 130.90 165.51 128.47 C 162.12 126.04 159.65 122.59 157.50 119.07 C 154.91 122.00 152.88 125.53 149.51 127.66 C 145.51 130.20 140.76 131.27 136.09 131.63 C 136.24 131.36 136.56 130.82 136.72 130.55 C 139.71 129.47 142.99 129.24 145.92 127.92 C 150.80 125.97 153.94 121.46 156.61 117.17 C 153.45 116.88 150.30 116.47 147.22 115.73 L 147.79 114.85 C 151.00 113.07 154.85 113.14 158.24 111.79 C 160.67 111.10 163.99 109.83 162.99 106.63 Z" />
<path fill="#1aa1dd" opacity="1.00" d=" M 240.88 145.37 C 247.46 139.63 255.57 135.03 264.50 134.82 C 266.06 136.22 268.40 136.99 269.33 138.93 C 267.96 144.63 264.87 149.80 263.98 155.65 C 265.31 155.46 266.63 155.26 267.97 155.07 C 267.82 155.59 267.52 156.62 267.37 157.14 C 281.25 162.29 295.15 167.41 309.13 172.30 C 308.10 172.57 306.46 173.44 307.07 174.74 C 308.47 175.38 309.55 173.70 310.21 172.72 C 344.77 185.40 379.33 198.11 414.02 210.44 C 418.43 197.94 422.97 185.49 427.62 173.07 C 428.67 174.17 429.94 174.91 431.41 175.27 C 428.00 184.74 424.44 194.17 421.12 203.67 C 422.54 204.08 423.97 204.51 425.40 204.93 C 428.42 196.38 431.48 187.84 434.71 179.36 C 435.97 180.32 437.16 181.36 438.42 182.34 C 434.58 191.64 431.70 201.32 427.83 210.60 C 425.09 209.89 422.50 208.77 419.86 207.81 C 418.77 210.61 417.75 213.44 416.77 216.28 C 370.35 199.44 323.95 182.56 277.61 165.50 C 273.25 179.51 264.75 192.29 253.10 201.27 C 251.52 202.30 251.53 204.32 251.16 205.96 C 249.70 215.07 246.08 223.73 241.23 231.54 C 231.30 215.60 216.11 203.19 198.56 196.53 C 210.58 185.56 223.12 175.15 235.30 164.37 C 237.48 162.03 240.00 159.89 243.20 159.19 C 243.20 154.49 242.49 149.80 240.88 145.37 Z" />
<path fill="#1aa1dd" opacity="1.00" d=" M 86.32 249.45 C 88.21 245.30 93.10 244.14 97.25 243.88 C 106.95 244.06 116.53 246.54 125.36 250.50 C 132.05 253.60 138.74 258.55 140.54 266.10 C 122.79 266.48 105.03 265.94 87.28 266.38 C 85.50 261.00 84.00 254.90 86.32 249.45 Z" />
<path fill="#1aa1dd" opacity="1.00" d=" M 198.28 249.22 C 205.23 246.51 212.54 244.54 220.01 244.04 C 223.65 243.66 227.22 244.97 230.86 244.61 L 230.23 245.26 C 232.00 246.55 233.96 247.88 234.65 250.09 C 236.59 255.64 235.07 261.65 233.18 267.00 C 219.83 265.66 206.43 264.70 193.08 263.37 C 189.25 263.16 185.40 262.92 181.70 261.85 C 185.32 255.65 191.78 251.84 198.28 249.22 Z" />
</g>
<g id="#3068b2ff">
<path fill="#3068b2" opacity="1.00" d=" M 212.31 9.29 C 214.24 5.04 218.03 1.71 222.54 0.48 C 223.67 6.03 227.09 10.69 228.97 15.97 C 235.18 28.79 240.18 42.20 246.99 54.71 C 246.71 54.88 246.15 55.21 245.87 55.37 C 246.20 56.06 246.53 56.75 246.88 57.43 L 246.65 59.33 C 245.55 57.72 244.41 56.12 243.35 54.48 C 243.62 50.40 239.82 48.22 237.43 45.55 C 229.99 37.55 220.55 31.74 210.92 26.73 C 209.87 20.95 209.72 14.71 212.31 9.29 Z" />
<path fill="#3068b2" opacity="1.00" d=" M 57.96 40.17 C 73.68 33.70 89.33 27.01 105.14 20.77 C 104.95 23.91 104.29 26.99 103.90 30.11 L 103.26 29.42 C 100.58 32.51 96.64 33.98 93.48 36.49 C 86.10 41.99 79.60 48.65 73.88 55.85 C 65.36 55.73 58.85 48.29 57.96 40.17 Z" />
<path fill="#3068b2" opacity="1.00" d=" M 321.42 21.16 C 354.06 33.01 386.70 44.87 419.34 56.73 C 423.39 58.19 427.39 59.82 431.56 60.94 C 430.76 61.91 429.98 62.90 429.24 63.91 C 430.42 63.18 431.58 62.44 432.71 61.63 C 447.26 66.77 461.68 72.26 476.25 77.33 C 476.14 77.69 475.93 78.41 475.82 78.77 C 473.68 77.13 471.44 78.76 469.46 79.72 C 421.04 61.98 372.55 44.43 324.08 26.82 C 323.58 28.24 323.07 29.65 322.55 31.06 C 367.19 47.43 411.91 63.60 456.56 79.95 C 454.74 80.93 452.87 81.80 450.98 82.58 C 404.92 65.75 358.81 49.07 312.73 32.29 C 309.31 41.74 305.68 51.12 302.50 60.66 C 304.70 60.09 306.88 59.39 309.13 59.00 C 312.68 59.42 311.56 64.02 309.98 65.94 C 307.44 69.22 303.06 68.58 299.43 68.96 C 295.92 78.20 292.43 87.47 289.36 96.87 C 292.18 96.69 296.72 93.04 298.34 96.98 C 298.64 100.44 296.03 103.85 292.64 104.53 C 290.51 104.92 288.34 104.78 286.20 104.78 C 283.17 113.98 279.30 122.89 276.56 132.19 C 279.37 131.96 283.67 128.32 285.45 132.06 C 285.93 135.47 283.29 139.00 279.93 139.67 C 277.76 140.04 275.54 140.00 273.35 140.07 C 271.67 145.11 269.68 150.04 267.97 155.07 C 266.63 155.26 265.31 155.46 263.98 155.65 C 264.87 149.80 267.96 144.63 269.33 138.93 C 268.40 136.99 266.06 136.22 264.50 134.82 C 261.62 131.90 260.72 126.90 263.74 123.74 C 266.67 120.31 271.53 121.36 275.44 121.86 C 277.54 115.58 279.96 109.42 282.14 103.18 C 279.26 101.40 276.21 99.31 275.10 95.94 C 273.56 92.15 276.05 87.36 280.02 86.41 C 282.71 85.72 285.49 86.37 288.19 86.72 C 290.52 80.18 292.95 73.68 295.28 67.15 C 291.86 65.11 288.30 62.29 287.78 58.05 C 287.46 54.27 290.28 51.00 293.86 50.12 C 296.24 53.07 298.95 55.76 301.98 58.06 C 299.35 55.32 296.42 52.88 293.97 49.97 C 296.43 50.13 298.90 50.37 301.35 50.67 C 304.17 42.69 307.17 34.78 309.98 26.80 C 312.79 27.63 315.56 28.59 318.30 29.65 C 319.39 26.84 320.43 24.01 321.42 21.16 Z" />
<path fill="#3068b2" opacity="1.00" d=" M 102.71 67.67 C 105.70 65.30 109.96 63.42 113.63 65.44 C 118.68 68.40 120.42 74.38 122.70 79.39 L 121.97 79.78 C 120.17 80.70 118.42 81.73 116.67 82.75 C 114.12 78.72 109.16 75.84 104.36 77.50 C 97.70 79.59 94.87 87.59 96.74 93.92 C 92.03 97.57 87.02 101.16 81.26 102.90 C 81.88 96.71 84.69 91.00 87.71 85.64 C 91.71 78.93 96.51 72.51 102.71 67.67 Z" />
<path fill="#3068b2" opacity="1.00" d=" M 193.60 80.96 C 195.91 75.14 197.84 67.92 203.99 65.04 C 210.48 63.12 215.73 68.89 219.84 73.06 C 228.08 82.63 235.60 94.21 235.86 107.24 C 229.69 104.05 223.73 100.46 217.84 96.78 C 221.43 90.34 219.48 80.71 212.24 77.79 C 207.12 75.51 201.33 78.66 198.87 83.31 C 197.11 82.53 195.35 81.74 193.60 80.96 Z" />
<path fill="#3068b2" opacity="1.00" d=" M 315.27 84.09 C 315.94 83.87 317.28 83.44 317.95 83.22 C 320.59 85.66 324.54 84.92 327.65 86.44 C 331.12 87.83 336.13 89.33 336.19 93.87 C 335.00 94.26 333.60 95.58 332.36 94.55 C 328.37 92.07 323.70 89.42 318.93 90.07 C 317.59 92.72 316.54 95.50 315.42 98.25 C 320.29 99.92 325.73 100.25 330.10 103.17 C 330.10 104.89 329.24 107.19 327.11 106.79 C 322.44 105.51 317.82 104.06 313.13 102.84 C 312.00 105.87 310.27 108.82 310.05 112.09 C 314.06 115.25 319.74 115.28 324.02 118.11 C 323.93 118.77 323.77 120.11 323.68 120.77 C 322.40 121.37 321.01 122.23 319.60 121.46 C 314.74 119.64 309.09 118.54 305.53 114.47 C 304.08 109.09 307.73 104.01 309.31 99.03 C 311.91 94.32 313.98 89.33 315.27 84.09 Z" />
<path fill="#3068b2" opacity="1.00" d=" M 147.01 102.88 C 154.39 100.16 163.23 100.44 169.95 104.78 C 167.78 105.91 165.41 106.47 162.99 106.63 C 159.43 104.09 153.10 103.42 150.39 107.40 C 149.85 111.42 155.44 111.65 158.24 111.79 C 154.85 113.14 151.00 113.07 147.79 114.85 L 146.80 115.39 C 144.58 114.01 141.79 112.70 141.15 109.90 C 140.63 106.36 144.12 103.99 147.01 102.88 Z" />
<path fill="#3068b2" opacity="1.00" d=" M 335.12 105.09 C 335.56 103.66 336.76 102.79 338.10 102.25 C 338.94 103.40 339.73 104.59 340.18 105.95 C 343.83 105.40 349.38 104.60 350.95 108.99 C 350.64 111.89 349.87 115.92 346.29 116.20 C 345.94 115.69 345.24 114.67 344.89 114.15 C 345.08 112.72 345.30 111.29 345.55 109.87 C 342.71 109.87 339.43 109.92 337.45 112.30 C 335.15 116.42 334.36 121.22 331.80 125.22 C 330.20 124.93 328.27 124.04 328.56 122.06 C 330.65 116.37 332.85 110.71 335.12 105.09 Z" />
<path fill="#3068b2" opacity="1.00" d=" M 354.06 112.10 C 354.45 110.62 355.80 109.90 357.09 109.33 C 357.89 110.47 358.64 111.64 359.15 112.94 C 362.68 112.59 367.54 111.73 369.69 115.38 C 370.26 117.47 368.93 119.50 368.42 121.47 C 367.59 122.09 366.77 122.72 365.95 123.36 C 365.22 122.66 364.49 121.97 363.78 121.28 C 364.01 119.83 364.24 118.38 364.48 116.93 C 361.46 116.89 357.78 117.10 356.05 119.99 C 354.05 123.90 353.21 128.32 350.87 132.07 C 350.13 132.01 348.64 131.88 347.90 131.81 C 347.32 130.21 347.40 128.53 348.23 127.03 C 350.23 122.07 352.02 117.03 354.06 112.10 Z" />
<path fill="#3068b2" opacity="1.00" d=" M 376.18 119.23 C 380.68 117.70 386.88 119.86 387.77 125.00 C 388.76 130.95 385.71 137.55 380.34 140.43 C 376.35 142.48 371.04 140.86 368.92 136.94 C 365.56 130.45 369.63 121.80 376.18 119.23 M 375.20 125.25 C 373.83 127.87 371.63 130.77 372.82 133.87 C 373.25 136.23 376.12 136.60 378.07 136.22 C 381.05 135.79 382.07 132.50 382.88 130.04 C 383.15 128.12 383.75 125.32 381.66 124.18 C 379.43 123.29 377.18 124.23 375.20 125.25 Z" />
<path fill="#3068b2" opacity="1.00" d=" M 415.93 125.99 C 416.84 123.90 417.36 121.18 419.85 120.41 C 420.39 120.90 421.49 121.89 422.04 122.38 C 419.57 129.33 416.82 136.18 414.20 143.07 C 413.71 144.81 412.47 146.11 410.97 147.04 C 410.30 145.85 408.48 144.79 409.36 143.23 C 411.41 137.43 413.77 131.75 415.93 125.99 Z" />
<path fill="#3068b2" opacity="1.00" d=" M 390.94 134.00 C 392.48 130.56 393.12 126.47 396.10 123.88 C 397.23 125.02 398.08 126.39 398.60 127.92 C 401.61 127.10 404.82 127.01 407.74 128.25 C 410.72 130.36 409.15 134.90 407.17 137.19 C 405.97 138.99 404.32 137.09 403.12 136.35 C 403.56 134.87 404.00 133.39 404.44 131.91 C 401.59 131.91 398.17 131.66 396.21 134.19 C 393.34 138.18 393.42 143.80 389.62 147.21 C 388.66 146.39 386.49 145.77 387.12 144.12 C 388.19 140.68 389.73 137.40 390.94 134.00 Z" />
<path fill="#3068b2" opacity="1.00" d=" M 54.80 174.78 C 58.71 162.50 66.12 151.33 75.86 142.89 C 79.10 161.91 81.67 181.04 85.11 200.02 C 89.02 198.67 91.64 195.41 94.52 192.64 C 103.66 184.17 109.73 172.82 113.02 160.89 C 137.67 167.78 163.87 168.65 189.05 164.28 C 201.74 161.98 214.24 157.99 225.39 151.42 C 228.09 149.76 231.51 148.38 232.38 144.99 L 232.40 144.98 L 232.87 146.23 C 233.78 147.51 234.80 148.71 235.97 149.78 C 237.69 148.40 239.21 146.81 240.88 145.37 C 242.49 149.80 243.20 154.49 243.20 159.19 C 240.00 159.89 237.48 162.03 235.30 164.37 C 223.12 175.15 210.58 185.56 198.56 196.53 C 178.83 188.96 156.71 187.93 136.34 193.50 C 116.22 199.15 97.49 211.33 85.99 229.00 C 86.57 230.02 87.16 231.04 87.77 232.04 C 82.64 223.87 78.95 214.76 77.39 205.22 C 72.78 206.58 67.74 207.78 63.03 206.16 C 58.47 204.76 55.12 200.74 53.75 196.27 C 51.56 189.24 52.72 181.69 54.80 174.78 Z" />
<path fill="#3068b2" opacity="1.00" d=" M 406.12 149.28 C 407.00 148.01 408.50 148.09 409.87 148.00 C 410.27 149.31 410.70 150.62 410.99 151.97 C 410.55 153.72 408.66 153.83 407.20 153.98 C 406.67 152.47 405.66 150.94 406.12 149.28 Z" />
<path fill="#3068b2" opacity="1.00" d=" M 309.13 172.30 C 309.40 172.40 309.94 172.61 310.21 172.72 C 309.55 173.70 308.47 175.38 307.07 174.74 C 306.46 173.44 308.10 172.57 309.13 172.30 Z" />
<path fill="#3068b2" opacity="1.00" d=" M 181.70 261.85 C 185.40 262.92 189.25 263.16 193.08 263.37 C 206.43 264.70 219.83 265.66 233.18 267.00 C 229.94 276.49 221.48 284.01 211.37 285.14 C 206.14 285.80 200.83 285.82 195.60 285.13 C 190.70 284.29 185.55 282.55 182.37 278.51 C 180.37 276.05 179.80 272.85 179.43 269.80 C 179.81 267.06 180.52 264.36 181.70 261.85 Z" />
<path fill="#3068b2" opacity="1.00" d=" M 87.28 266.38 C 105.03 265.94 122.79 266.48 140.54 266.10 C 140.77 267.98 142.46 268.55 144.07 268.95 C 143.35 268.82 141.90 268.55 141.18 268.41 C 141.00 271.36 140.93 274.51 139.28 277.08 C 136.48 282.02 130.72 284.14 125.41 285.10 C 120.15 285.84 114.83 285.74 109.55 285.24 C 99.14 284.03 90.44 276.24 87.28 266.38 Z" />
</g>
<g id="#fefefeff">
<path fill="#fefefe" opacity="1.00" d=" M 122.52 23.50 C 146.50 15.98 172.79 15.57 196.91 22.77 C 215.21 28.19 231.57 39.48 243.35 54.48 C 244.41 56.12 245.55 57.72 246.65 59.33 C 255.07 72.81 259.81 89.16 256.93 105.05 C 254.46 121.00 244.83 135.02 232.40 144.98 L 232.38 144.99 C 212.16 159.87 186.55 164.81 161.93 165.55 C 145.52 165.78 128.89 164.27 113.17 159.34 C 114.19 153.07 114.55 146.23 111.49 140.43 C 109.32 136.08 104.79 133.09 99.94 132.80 C 92.32 132.20 85.32 136.01 79.17 140.07 C 71.72 132.50 65.81 123.28 62.96 112.98 C 58.62 98.09 60.85 81.73 67.92 68.03 C 78.91 46.43 99.62 30.72 122.52 23.50 M 102.71 67.67 C 96.51 72.51 91.71 78.93 87.71 85.64 C 84.69 91.00 81.88 96.71 81.26 102.90 L 80.95 103.00 C 80.03 110.42 83.96 118.06 90.79 121.23 C 103.54 128.01 121.11 120.73 125.55 107.07 C 128.48 97.83 125.37 88.28 122.79 79.37 L 121.97 79.78 L 122.70 79.39 C 120.42 74.38 118.68 68.40 113.63 65.44 C 109.96 63.42 105.70 65.30 102.71 67.67 M 193.60 80.96 C 190.80 89.39 188.44 98.72 191.32 107.45 C 195.73 120.13 211.51 127.26 223.93 122.13 C 230.29 119.86 235.14 114.01 235.86 107.24 C 235.60 94.21 228.08 82.63 219.84 73.06 C 215.73 68.89 210.48 63.12 203.99 65.04 C 197.84 67.92 195.91 75.14 193.60 80.96 M 147.01 102.88 C 144.12 103.99 140.63 106.36 141.15 109.90 C 141.79 112.70 144.58 114.01 146.80 115.39 L 147.79 114.85 L 147.22 115.73 C 150.30 116.47 153.45 116.88 156.61 117.17 C 153.94 121.46 150.80 125.97 145.92 127.92 C 142.99 129.24 139.71 129.47 136.72 130.55 C 136.56 130.82 136.24 131.36 136.09 131.63 C 140.76 131.27 145.51 130.20 149.51 127.66 C 152.88 125.53 154.91 122.00 157.50 119.07 C 159.65 122.59 162.12 126.04 165.51 128.47 C 168.96 130.90 173.20 131.88 177.35 132.28 C 176.53 130.12 173.72 130.56 171.95 129.78 C 165.33 128.39 161.26 122.50 157.87 117.15 C 162.74 116.58 168.42 115.83 171.59 111.62 C 173.37 109.29 171.85 106.44 169.95 104.78 C 163.23 100.44 154.39 100.16 147.01 102.88 Z" />
<path fill="#fefefe" opacity="1.00" d=" M 324.08 26.82 C 372.55 44.43 421.04 61.98 469.46 79.72 C 469.78 79.88 470.43 80.19 470.76 80.35 C 458.75 112.84 446.95 145.43 435.19 178.02 C 435.07 178.35 434.83 179.02 434.71 179.36 C 431.48 187.84 428.42 196.38 425.40 204.93 C 423.97 204.51 422.54 204.08 421.12 203.67 C 424.44 194.17 428.00 184.74 431.41 175.27 C 442.60 144.51 453.83 113.76 465.00 83.00 C 462.19 81.95 459.38 80.92 456.56 79.95 C 411.91 63.60 367.19 47.43 322.55 31.06 C 323.07 29.65 323.58 28.24 324.08 26.82 Z" />
<path fill="#fefefe" opacity="1.00" d=" M 302.50 60.66 C 305.68 51.12 309.31 41.74 312.73 32.29 C 358.81 49.07 404.92 65.75 450.98 82.58 C 453.64 83.56 456.33 84.49 459.02 85.42 C 449.07 114.43 438.30 143.16 427.95 172.03 C 427.87 172.29 427.70 172.81 427.62 173.07 C 422.97 185.49 418.43 197.94 414.02 210.44 C 379.33 198.11 344.77 185.40 310.21 172.72 C 309.94 172.61 309.40 172.40 309.13 172.30 C 295.15 167.41 281.25 162.29 267.37 157.14 C 267.52 156.62 267.82 155.59 267.97 155.07 C 269.68 150.04 271.67 145.11 273.35 140.07 C 275.54 140.00 277.76 140.04 279.93 139.67 C 283.29 139.00 285.93 135.47 285.45 132.06 C 283.67 128.32 279.37 131.96 276.56 132.19 C 279.30 122.89 283.17 113.98 286.20 104.78 C 288.34 104.78 290.51 104.92 292.64 104.53 C 296.03 103.85 298.64 100.44 298.34 96.98 C 296.72 93.04 292.18 96.69 289.36 96.87 C 292.43 87.47 295.92 78.20 299.43 68.96 C 303.06 68.58 307.44 69.22 309.98 65.94 C 311.56 64.02 312.68 59.42 309.13 59.00 C 306.88 59.39 304.70 60.09 302.50 60.66 M 315.27 84.09 C 313.98 89.33 311.91 94.32 309.31 99.03 C 307.73 104.01 304.08 109.09 305.53 114.47 C 309.09 118.54 314.74 119.64 319.60 121.46 C 321.01 122.23 322.40 121.37 323.68 120.77 C 323.77 120.11 323.93 118.77 324.02 118.11 C 319.74 115.28 314.06 115.25 310.05 112.09 C 310.27 108.82 312.00 105.87 313.13 102.84 C 317.82 104.06 322.44 105.51 327.11 106.79 C 329.24 107.19 330.10 104.89 330.10 103.17 C 325.73 100.25 320.29 99.92 315.42 98.25 C 316.54 95.50 317.59 92.72 318.93 90.07 C 323.70 89.42 328.37 92.07 332.36 94.55 C 333.60 95.58 335.00 94.26 336.19 93.87 C 336.13 89.33 331.12 87.83 327.65 86.44 C 324.54 84.92 320.59 85.66 317.95 83.22 C 317.28 83.44 315.94 83.87 315.27 84.09 M 335.12 105.09 C 332.85 110.71 330.65 116.37 328.56 122.06 C 328.27 124.04 330.20 124.93 331.80 125.22 C 334.36 121.22 335.15 116.42 337.45 112.30 C 339.43 109.92 342.71 109.87 345.55 109.87 C 345.30 111.29 345.08 112.72 344.89 114.15 C 345.24 114.67 345.94 115.69 346.29 116.20 C 349.87 115.92 350.64 111.89 350.95 108.99 C 349.38 104.60 343.83 105.40 340.18 105.95 C 339.73 104.59 338.94 103.40 338.10 102.25 C 336.76 102.79 335.56 103.66 335.12 105.09 M 354.06 112.10 C 352.02 117.03 350.23 122.07 348.23 127.03 C 347.40 128.53 347.32 130.21 347.90 131.81 C 348.64 131.88 350.13 132.01 350.87 132.07 C 353.21 128.32 354.05 123.90 356.05 119.99 C 357.78 117.10 361.46 116.89 364.48 116.93 C 364.24 118.38 364.01 119.83 363.78 121.28 C 364.49 121.97 365.22 122.66 365.95 123.36 C 366.77 122.72 367.59 122.09 368.42 121.47 C 368.93 119.50 370.26 117.47 369.69 115.38 C 367.54 111.73 362.68 112.59 359.15 112.94 C 358.64 111.64 357.89 110.47 357.09 109.33 C 355.80 109.90 354.45 110.62 354.06 112.10 M 376.18 119.23 C 369.63 121.80 365.56 130.45 368.92 136.94 C 371.04 140.86 376.35 142.48 380.34 140.43 C 385.71 137.55 388.76 130.95 387.77 125.00 C 386.88 119.86 380.68 117.70 376.18 119.23 M 415.93 125.99 C 413.77 131.75 411.41 137.43 409.36 143.23 C 408.48 144.79 410.30 145.85 410.97 147.04 C 412.47 146.11 413.71 144.81 414.20 143.07 C 416.82 136.18 419.57 129.33 422.04 122.38 C 421.49 121.89 420.39 120.90 419.85 120.41 C 417.36 121.18 416.84 123.90 415.93 125.99 M 390.94 134.00 C 389.73 137.40 388.19 140.68 387.12 144.12 C 386.49 145.77 388.66 146.39 389.62 147.21 C 393.42 143.80 393.34 138.18 396.21 134.19 C 398.17 131.66 401.59 131.91 404.44 131.91 C 404.00 133.39 403.56 134.87 403.12 136.35 C 404.32 137.09 405.97 138.99 407.17 137.19 C 409.15 134.90 410.72 130.36 407.74 128.25 C 404.82 127.01 401.61 127.10 398.60 127.92 C 398.08 126.39 397.23 125.02 396.10 123.88 C 393.12 126.47 392.48 130.56 390.94 134.00 M 406.12 149.28 C 405.66 150.94 406.67 152.47 407.20 153.98 C 408.66 153.83 410.55 153.72 410.99 151.97 C 410.70 150.62 410.27 149.31 409.87 148.00 C 408.50 148.09 407.00 148.01 406.12 149.28 Z" />
<path fill="#fefefe" opacity="1.00" d=" M 104.36 77.50 C 109.16 75.84 114.12 78.72 116.67 82.75 C 120.08 89.27 118.01 98.84 110.69 101.60 C 104.77 103.97 98.59 99.53 96.74 93.92 C 94.87 87.59 97.70 79.59 104.36 77.50 Z" />
<path fill="#fefefe" opacity="1.00" d=" M 198.87 83.31 C 201.33 78.66 207.12 75.51 212.24 77.79 C 219.48 80.71 221.43 90.34 217.84 96.78 C 215.72 99.58 212.75 102.14 209.06 102.19 C 204.01 102.54 199.54 98.59 198.18 93.91 C 196.99 90.44 197.58 86.66 198.87 83.31 Z" />
<path fill="#fefefe" opacity="1.00" d=" M 150.39 107.40 C 153.10 103.42 159.43 104.09 162.99 106.63 C 163.99 109.83 160.67 111.10 158.24 111.79 C 155.44 111.65 149.85 111.42 150.39 107.40 Z" />
<path fill="#fefefe" opacity="1.00" d=" M 375.20 125.25 C 377.18 124.23 379.43 123.29 381.66 124.18 C 383.75 125.32 383.15 128.12 382.88 130.04 C 382.07 132.50 381.05 135.79 378.07 136.22 C 376.12 136.60 373.25 136.23 372.82 133.87 C 371.63 130.77 373.83 127.87 375.20 125.25 Z" />
<path fill="#fefefe" opacity="1.00" d=" M 136.34 193.50 C 156.71 187.93 178.83 188.96 198.56 196.53 C 216.11 203.19 231.30 215.60 241.23 231.54 C 238.29 236.28 234.68 240.56 230.86 244.61 C 227.22 244.97 223.65 243.66 220.01 244.04 C 212.54 244.54 205.23 246.51 198.28 249.22 C 191.78 251.84 185.32 255.65 181.70 261.85 C 180.52 264.36 179.81 267.06 179.43 269.80 C 167.72 271.66 155.70 271.20 144.07 268.95 C 142.46 268.55 140.77 267.98 140.54 266.10 C 138.74 258.55 132.05 253.60 125.36 250.50 C 116.53 246.54 106.95 244.06 97.25 243.88 C 93.76 240.22 90.51 236.30 87.77 232.04 C 87.16 231.04 86.57 230.02 85.99 229.00 C 97.49 211.33 116.22 199.15 136.34 193.50 Z" />
</g>
<g id="#1a18197b">
</g>
</svg>
