<svg xmlns="http://www.w3.org/2000/svg" version="1.1" xmlns:xlink="http://www.w3.org/1999/xlink" xmlns:svgjs="http://svgjs.com/svgjs" width="140" height="149"><svg width="140" height="149" viewBox="0 0 140 149" fill="none" xmlns="http://www.w3.org/2000/svg">
<path d="M22.5981 1.0644C23.4615 0.829999 24.2663 0.431524 25.0906 0.0760208C27.7041 -0.0607112 30.3254 0.0760194 32.9468 0.0135133C35.1072 -0.142752 36.998 1.09565 39.0021 1.69336C40.217 2.61142 41.6937 3.15053 42.8032 4.21704C43.6744 5.06087 44.5182 5.93987 45.3738 6.80323C45.5261 7.89318 46.1356 8.83858 46.659 9.78399C48.1826 9.21753 49.6203 8.45574 51.1478 7.901C51.5111 7.85802 51.8783 7.81505 52.2494 7.77208C53.2222 7.33844 54.2418 6.95559 55.3357 7.04154C55.4724 6.94387 55.7498 6.74854 55.8865 6.65088C56.2342 6.65869 56.9335 6.67431 57.2812 6.68212C57.4179 6.57665 57.6953 6.36569 57.8359 6.26021C58.4258 6.26803 59.0235 6.27974 59.6251 6.29146C59.7658 6.18598 60.0432 5.97503 60.1799 5.86955C60.9026 5.88127 61.6292 5.88908 62.3598 5.9008C62.4965 5.79532 62.7778 5.58827 62.9145 5.48279C64.6803 5.50623 66.45 5.47888 68.2197 5.50623C68.3604 5.40466 68.6378 5.1937 68.7745 5.09213C69.8879 5.10776 71.0052 5.10776 72.1264 5.09213C72.267 5.19761 72.5444 5.40466 72.6811 5.50623C74.318 5.48279 75.9549 5.50623 77.5956 5.48279C77.7363 5.58827 78.0137 5.79532 78.1504 5.89689C79.002 5.88517 79.8576 5.88127 80.7171 5.86955C80.8577 5.97503 81.1351 6.18598 81.2757 6.29146C81.8656 6.27974 82.4594 6.27193 83.061 6.26412C83.1978 6.36178 83.4751 6.55321 83.6119 6.65088C85.1862 6.61962 86.6434 7.33063 88.1865 7.54549C90.1047 8.21743 92.0541 8.8464 93.855 9.80352C94.2379 9.11596 94.6207 8.41667 94.7692 7.63534C96.8045 4.51395 99.8361 1.97074 103.454 0.931573C104.684 0.595603 105.852 -0.0841524 107.169 0.0135133C109.661 0.048673 112.158 -0.0138329 114.65 0.0564865C116.283 0.525282 117.889 1.07612 119.475 1.69336C121.135 2.77159 122.885 3.75606 124.28 5.1898C126.331 7.65878 128.362 10.245 129.444 13.3039C129.89 14.3352 130.323 15.4017 130.237 16.5542C130.335 16.6909 130.527 16.9683 130.624 17.105C130.573 18.863 130.667 20.6171 130.589 22.3711C130.249 23.6838 129.984 25.0198 129.581 26.3129C128.347 28.8835 126.444 31.0868 124.35 32.9972C124.874 33.5207 125.217 34.1731 125.585 34.8099C126.893 36.1694 127.601 37.9664 128.581 39.5564C129.187 40.4276 129.675 41.3847 129.964 42.4121C130.316 43.7717 131.077 44.9671 131.538 46.2836C132.171 47.6783 132.562 49.1589 133.093 50.5926C134.023 52.5811 134.242 54.804 134.793 56.9096C135.586 59.2497 136.332 61.6093 137.156 63.9377C137.476 66.0043 138.375 67.9693 138.441 70.075C138.539 70.2117 138.734 70.4891 138.832 70.6297C138.824 70.9774 138.809 71.6689 138.801 72.0166C138.906 72.1572 139.117 72.4346 139.223 72.5752C139.203 73.2979 139.199 74.0246 139.191 74.7551C139.297 74.8919 139.508 75.1731 139.613 75.3099C139.594 76.1654 139.59 77.021 139.586 77.8804C139.688 78.0172 139.899 78.2984 140 78.4352C139.981 82.1582 139.981 85.8812 140 89.6003C139.895 89.7409 139.688 90.0183 139.582 90.159C139.59 91.0106 139.594 91.8662 139.613 92.7256C139.508 92.8623 139.297 93.1436 139.191 93.2803C139.199 94.0031 139.203 94.7297 139.219 95.4563C139.121 95.597 138.918 95.8704 138.82 96.0111C138.973 97.519 138.32 98.9176 138.078 100.379C137.926 101.23 137.699 102.07 137.547 102.922C136.824 104.906 136.422 106.989 135.644 108.954C134.968 110.497 134.558 112.2 133.449 113.509C132.921 115.365 131.867 117.017 130.886 118.658C129.987 120.576 128.562 122.178 127.729 124.131C126.483 125.369 125.522 126.846 124.295 128.104C123.448 129.573 121.94 130.475 121.069 131.921C120.303 133.101 119.088 133.835 118.021 134.698C115.842 137.132 112.853 138.617 110.505 140.855C106.532 143.273 102.329 145.36 97.9922 147.047C96.3865 147.426 94.9645 148.594 93.269 148.469C93.1401 148.333 92.8784 148.059 92.7456 147.922C92.6596 146.735 92.7299 145.543 92.7221 144.356C92.5346 144.176 92.1596 143.813 91.972 143.629C91.7337 141.465 90.9055 139.328 89.507 137.64C86.7489 135.101 83.2368 133.651 79.9709 131.909C79.0177 130.983 77.7285 130.553 76.7674 129.655C75.2829 128.608 73.4507 127.979 71.6224 128.155C69.6925 128.292 67.6689 127.819 65.8289 128.573C64.1607 129.143 63.0044 130.565 61.4496 131.343C60.0901 132.729 58.1289 133.237 56.41 134.03C55.5193 134.589 54.609 135.109 53.7144 135.659C52.4213 136.41 51.4837 137.597 50.4172 138.617C49.3234 139.605 49.2296 141.18 48.6749 142.465C48.124 144.266 48.1084 146.129 48.1983 147.997C47.7451 148.266 47.2919 148.532 46.8388 148.801C45.5105 148.008 43.9674 147.731 42.5415 147.172C40.2405 146.207 37.8691 145.399 35.6814 144.18C33.8922 143.426 32.3374 142.246 30.5794 141.441C30.0442 141.234 29.8879 140.609 29.4426 140.304C27.208 138.777 25.0906 137.085 22.9107 135.484C21.2347 133.769 19.3439 132.226 18 130.225C16.9257 129.471 16.2069 128.362 15.3006 127.44C14.1715 125.834 12.8355 124.369 11.9291 122.619C9.97973 119.787 8.04986 116.904 6.90522 113.634C5.78402 111.454 4.92846 109.157 4.11588 106.848C4.08854 106.645 4.03383 106.243 4.00648 106.043C3.82678 105.867 3.47129 105.516 3.29159 105.34C3.29159 104.36 2.92436 103.449 2.57667 102.551C2.3618 101.008 1.64299 99.5544 1.67815 97.9761C1.58439 97.8355 1.38904 97.5503 1.29137 97.4097C1.29528 96.8119 1.3031 96.2181 1.31872 95.6243C1.21324 95.4837 1.0023 95.2063 0.896824 95.0696C0.904637 94.339 0.912433 93.6124 0.92806 92.8897C0.822581 92.7529 0.615527 92.4717 0.510048 92.3349C0.525674 90.9559 0.513977 89.5808 0.53351 88.2017C0.431938 88.065 0.220957 87.7837 0.119385 87.647C0.138918 85.096 0.138918 82.5488 0.119385 79.9978C0.220957 79.8611 0.431938 79.5837 0.53351 79.4431C0.513977 78.193 0.525674 76.9467 0.510048 75.7005C0.61162 75.5599 0.822601 75.2825 0.924173 75.1458C0.912453 74.2863 0.908544 73.4308 0.896824 72.5752C1.0023 72.4346 1.21324 72.1572 1.31872 72.0166C1.31091 71.6689 1.2953 70.9735 1.28749 70.6258C1.39297 70.4852 1.60391 70.2039 1.70939 70.0672C1.70157 69.7195 1.68596 69.0241 1.67815 68.6764C1.77582 68.5358 1.97115 68.2584 2.06881 68.1217C2.00631 67.0825 2.42039 66.1176 2.56494 65.1057C2.76808 64.5666 2.95561 64.0197 3.1861 63.4884C3.20954 63.2892 3.26033 62.8829 3.28377 62.6797C3.46347 62.5039 3.82678 62.1523 4.00648 61.9765C3.90101 60.8202 4.66282 59.8865 4.95191 58.82C5.4207 57.2964 6.1278 55.8588 6.68254 54.3664C6.7763 53.3234 7.03804 52.3076 7.48339 51.3622C7.52637 50.995 7.57324 50.6317 7.62403 50.2645C8.4366 48.3541 8.80773 46.2758 9.76485 44.4241C10.2922 43.3693 10.5501 42.1856 11.2259 41.2011C12.6597 39.0329 13.7965 36.6655 15.3396 34.5755C15.3474 34.3723 15.367 33.966 15.3787 33.7629C15.6483 33.5207 15.9217 33.2824 16.1991 33.044C15.2341 32.0986 14.2184 31.2001 13.3355 30.1727C12.437 28.9382 11.7026 27.5826 10.7337 26.395C10.6986 26.2075 10.6282 25.8246 10.5931 25.6332C9.95239 23.9455 9.382 22.168 9.4992 20.3397C9.50311 19.281 9.49531 18.2184 9.53828 17.1597C9.85081 16.48 9.94066 15.7299 10.1712 15.0189C10.4329 14.0969 10.9486 13.2609 11.1673 12.3233C12.4448 10.6513 13.3902 8.76045 14.5036 6.98294C15.5076 5.9008 16.5507 4.84601 17.6445 3.85373C19.2228 2.81457 20.7308 1.56054 22.5981 1.0644ZM28.4073 0.962821C26.0711 1.20113 23.7662 1.81056 21.641 2.81847C19.1916 3.98264 17.1679 5.9008 15.6131 8.10023C14.3122 9.95588 12.8824 11.7764 12.0971 13.9289C10.6517 17.7223 10.5227 22.1172 12.1948 25.8637C13.1324 28.024 14.7849 29.7469 16.3788 31.4423C17.4726 32.5713 18.1915 34.0559 19.5158 34.9661C20.9847 35.9779 22.6489 36.7944 24.4343 37.0327C26.2508 37.2632 28.1338 36.4545 29.2628 35.0169C31.306 32.3916 33.0757 29.4851 35.6541 27.3248C36.83 26.3676 38.1075 25.4418 39.6154 25.0941C41.3578 24.6526 43.2525 24.5628 44.8073 23.5744C46.077 22.8048 46.8388 21.3906 47.0067 19.9412C47.2607 17.9137 47.206 15.8471 46.9208 13.8274C46.663 11.9209 45.3699 10.4208 44.5495 8.74092C43.4791 6.5493 41.7328 4.70537 39.6037 3.51776C36.2323 1.60742 32.2788 0.658104 28.4073 0.962821ZM108.888 0.97454C105.969 1.25582 103.114 2.17779 100.559 3.60371C98.3477 4.86555 96.7694 6.93606 95.5974 9.14721C94.7067 10.6864 93.5855 12.1788 93.3784 13.9992C93.0776 16.226 92.9448 18.5427 93.4995 20.7382C93.8785 22.2422 95.0544 23.4416 96.4803 24.0158C98.586 24.9222 101.063 24.7542 103.008 26.0785C105.88 27.9772 108.044 30.7391 109.966 33.5519C110.974 35.013 112.224 36.5131 114.041 36.9194C116.412 37.4664 118.744 36.2944 120.717 35.095C122.276 34.1692 123.061 32.4698 124.28 31.1962C125.811 29.5593 127.265 27.8014 128.233 25.7621C130.23 21.3867 129.71 16.0776 127.311 11.9639C125.948 9.61991 124.518 7.24078 122.502 5.39294C118.838 2.12309 113.759 0.560438 108.888 0.97454ZM40.8929 45.8422C38.2833 46.3344 35.9432 47.7291 33.8922 49.3698C31.1263 51.6357 28.8292 54.5461 27.5478 57.9058C26.2274 61.5898 25.8602 65.6605 26.7704 69.489C27.2705 71.5986 28.0283 73.7277 29.4972 75.3685C31.0286 77.1342 33.3179 78.2633 35.6736 78.2437C38.502 78.2555 41.1781 76.9975 43.4009 75.3333C47.3232 72.3604 50.4563 68.4928 53.2456 64.4729C54.3629 62.7266 55.6052 60.7811 55.3669 58.6168C55.0935 55.7338 53.8551 53.0226 52.2729 50.6317C49.8429 47.0102 45.2136 44.8655 40.8929 45.8422ZM95.1989 45.8578C90.4289 46.8501 87.202 51.1356 85.7332 55.5384C85.2175 57.2612 84.6705 59.1677 85.3347 60.9296C86.1707 63.1602 87.6474 65.0667 89.0655 66.9536C91.9955 70.8641 95.3903 74.6301 99.7501 76.9663C103.008 78.7282 107.427 78.7946 110.239 76.1498C113.517 72.962 114.482 68.1099 114.189 63.6955C113.994 59.0388 111.896 54.5891 108.649 51.2841C105.313 47.6158 100.281 44.7952 95.1989 45.8578ZM4.33465 64.7385C0.799153 77.1382 0.814769 90.5144 4.29948 102.926C6.48329 109.45 8.99136 115.951 12.8863 121.67C15.1091 124.865 17.4492 127.999 20.1526 130.811C27.3447 138.421 36.5604 144.043 46.5184 147.235C46.8856 144.109 47.0536 140.672 49.1398 138.128C51.7689 134.702 55.7537 132.792 59.5197 130.901C61.0589 130.163 62.4262 129.135 63.817 128.155C65.3953 127.034 67.3681 126.69 69.2706 126.643C71.2747 126.6 73.3531 126.577 75.2673 127.28C76.787 127.827 77.9785 128.96 79.3302 129.811C82.3969 131.729 85.8465 133.022 88.6944 135.296C90.2961 136.562 91.7845 138.07 92.6713 139.937C93.6675 142.129 93.8043 144.574 94.0973 146.93C95.3864 146.692 96.6483 146.305 97.8515 145.774C100.446 144.649 103.083 143.594 105.532 142.168C109.466 139.82 113.322 137.292 116.678 134.151C120.74 130.628 124.221 126.471 127.222 122.017C130.132 118.009 132.195 113.474 134.027 108.895C135 106.485 135.605 103.949 136.41 101.484C137.433 98.3511 137.91 95.0774 138.293 91.8154C139.266 83.881 138.734 75.7669 136.804 68.0084C135.836 64.9846 135.07 61.8789 133.816 58.9528C133.566 63.5118 133.222 68.1021 131.988 72.5205C131.077 75.7435 129.976 79.0172 127.89 81.6933C125.678 84.4084 123.276 86.9829 120.537 89.1745C116.529 92.1787 112.146 94.6242 107.802 97.1049C102.813 99.8747 97.3554 101.766 92.6127 104.985C91.0032 106.106 89.5968 107.497 87.9482 108.559C85.2292 110.36 82.0687 111.333 78.9083 112.009C75.4861 112.759 71.9662 112.442 68.4971 112.517C63.6841 112.622 58.8048 111.575 54.5544 109.294C51.8861 107.895 49.8781 105.559 47.2763 104.055C42.7681 101.359 37.8027 99.5583 33.232 96.976C28.8956 94.4758 24.4968 92.0419 20.4964 89.0143C17.6797 86.6508 15.117 83.9709 12.9097 81.0292C11.6869 79.3571 10.8743 77.4312 10.2063 75.4817C8.87805 71.54 8.04204 67.438 7.63185 63.3009C7.41308 61.1796 7.51463 59.0427 7.374 56.9135C5.94417 59.3396 5.34647 62.1328 4.33465 64.7385ZM58.7774 81.7441C58.4805 83.3731 59.0626 85.2405 60.4377 86.225C62.4575 87.3931 64.8444 87.6821 66.9227 88.7135C68.0556 89.3737 69.0011 90.3035 70.0559 91.0809C71.0716 90.2722 71.9427 89.2682 73.0796 88.6237C75.0329 87.7212 77.2284 87.4517 79.1466 86.4516C80.7678 85.6038 81.5374 83.5724 81.2015 81.8261C81.0179 80.8377 80.0412 80.1502 79.0567 80.2635C76.7518 80.3533 74.4508 80.5369 72.1498 80.658C68.4463 80.994 64.7545 80.3807 61.0628 80.2517C60.0783 80.1463 58.9962 80.744 58.7774 81.7441ZM63.942 100.156C63.9303 100.398 63.9107 100.883 63.9029 101.125C65.7039 102.019 67.4384 103.035 69.1964 104.012C69.9035 104.465 70.6965 103.985 71.3568 103.676C72.8882 102.852 74.4547 102.082 75.9471 101.176C75.8963 100.922 75.7986 100.406 75.7517 100.152C73.9664 100.109 72.2123 100.476 70.4387 100.547C68.2588 100.64 66.118 100.097 63.942 100.156Z" fill="white" data-darkreader-inline-fill="" style="--darkreader-inline-fill: #17191a;"></path>
<path d="M43.233 54.4602C44.9754 54.1242 46.9873 54.5032 48.1945 55.89C48.7961 56.5424 49.1477 57.5425 48.7062 58.3785C47.9913 59.8553 46.4326 60.7264 44.909 61.1483C43.0963 61.6445 41.1859 60.7225 40.0452 59.324C39.4905 58.6403 39.4905 57.6402 39.7717 56.8432C40.4749 55.5697 41.8384 54.7571 43.233 54.4602Z" fill="white" data-darkreader-inline-fill="" style="--darkreader-inline-fill: #ffffff;"></path>
<path d="M94.8006 54.472C96.7343 54.0696 98.9728 54.6087 100.25 56.1831C100.961 57.0386 101.067 58.3395 100.426 59.2654C99.383 60.7616 97.4024 61.6484 95.6053 61.1445C94.406 60.8163 93.2574 60.2147 92.3941 59.3201C91.5815 58.4802 91.3979 57.0386 92.1323 56.0971C92.8082 55.2806 93.7731 54.7142 94.8006 54.472Z" fill="white" data-darkreader-inline-fill="" style="--darkreader-inline-fill: #ffffff;"></path>
<path d="M28.407 0.962808C32.2785 0.658091 36.232 1.6074 39.6034 3.51775C41.7325 4.70536 43.4788 6.54929 44.5492 8.74091C45.3696 10.4208 46.6627 11.9209 46.9205 13.8273C47.2057 15.8471 47.2604 17.9137 47.0064 19.9412C46.8385 21.3906 46.0767 22.8048 44.807 23.5744C43.2522 24.5627 41.3575 24.6526 39.6151 25.0941C38.1071 25.4417 36.8297 26.3676 35.6538 27.3247C33.0754 29.4851 31.3057 32.3916 29.2625 35.0169C28.1335 36.4545 26.2505 37.2632 24.434 37.0327C22.6486 36.7944 20.9844 35.9779 19.5155 34.9661C18.1912 34.0559 17.4723 32.5713 16.3785 31.4423C14.7846 29.7468 13.1321 28.024 12.1945 25.8637C10.5224 22.1172 10.6514 17.7222 12.0968 13.9289C12.882 11.7764 14.3119 9.95587 15.6128 8.10022C17.1676 5.90079 19.1913 3.98263 21.6407 2.81846C23.7659 1.81055 26.0708 1.20111 28.407 0.962808Z" fill="black" data-darkreader-inline-fill="" style="--darkreader-inline-fill: #000000;"></path>
<path d="M108.888 0.974554C113.759 0.560452 118.838 2.12311 122.502 5.39296C124.518 7.24079 125.948 9.61992 127.311 11.9639C129.71 16.0776 130.229 21.3867 128.233 25.7621C127.264 27.8014 125.811 29.5594 124.28 31.1962C123.061 32.4698 122.276 34.1692 120.717 35.095C118.744 36.2944 116.412 37.4664 114.04 36.9194C112.224 36.5132 110.974 35.013 109.966 33.5519C108.044 30.7392 105.879 27.9772 103.008 26.0785C101.063 24.7542 98.5858 24.9222 96.4801 24.0159C95.0542 23.4416 93.8783 22.2422 93.4993 20.7382C92.9446 18.5427 93.0774 16.226 93.3782 13.9993C93.5853 12.1788 94.7065 10.6864 95.5972 9.14723C96.7692 6.93607 98.3474 4.86556 100.559 3.60372C103.114 2.1778 105.969 1.25583 108.888 0.974554Z" fill="black" data-darkreader-inline-fill="" style="--darkreader-inline-fill: #000000;"></path>
<path d="M40.8927 45.8421C45.2135 44.8655 49.8428 47.0102 52.2727 50.6316C53.8549 53.0225 55.0933 55.7337 55.3668 58.6168C55.6051 60.7811 54.3628 62.7266 53.2455 64.4728C50.4562 68.4927 47.323 72.3603 43.4008 75.3332C41.1779 76.9975 38.5019 78.2554 35.6735 78.2437C33.3178 78.2632 31.0285 77.1342 29.4971 75.3684C28.0282 73.7276 27.2703 71.5985 26.7703 69.4889C25.86 65.6604 26.2272 61.5897 27.5477 57.9058C28.8291 54.5461 31.1261 51.6356 33.892 49.3698C35.943 47.729 38.2831 46.3343 40.8927 45.8421ZM43.2328 54.4601C41.8381 54.757 40.4747 55.5696 39.7715 56.8432C39.4902 57.6401 39.4902 58.6402 40.045 59.3239C41.1857 60.7225 43.0961 61.6444 44.9087 61.1483C46.4323 60.7264 47.9911 59.8552 48.706 58.3785C49.1474 57.5425 48.7958 56.5424 48.1942 55.89C46.9871 54.5031 44.9752 54.1242 43.2328 54.4601Z" fill="black" data-darkreader-inline-fill="" style="--darkreader-inline-fill: #000000;"></path>
<path d="M95.1985 45.8578C100.281 44.7952 105.313 47.6158 108.649 51.2841C111.895 54.5891 113.993 59.0387 114.189 63.6954C114.482 68.1099 113.517 72.962 110.239 76.1498C107.426 78.7946 103.008 78.7282 99.7498 76.9663C95.39 74.6301 91.9951 70.8641 89.0652 66.9536C87.6471 65.0667 86.1703 63.1602 85.3343 60.9295C84.6702 59.1677 85.2171 57.2612 85.7328 55.5384C87.2017 51.1356 90.4286 46.8501 95.1985 45.8578ZM94.8001 54.4719C93.7726 54.7141 92.8077 55.2806 92.1319 56.097C91.3974 57.0385 91.581 58.4801 92.3936 59.32C93.257 60.2146 94.4055 60.8163 95.6048 61.1444C97.4019 61.6484 99.3825 60.7616 100.426 59.2653C101.066 58.3395 100.961 57.0385 100.25 56.183C98.9724 54.6086 96.7339 54.0695 94.8001 54.4719Z" fill="black" data-darkreader-inline-fill="" style="--darkreader-inline-fill: #000000;"></path>
<path d="M4.3345 64.7385C5.34631 62.1328 5.94401 59.3396 7.37384 56.9136C7.51448 59.0427 7.41292 61.1796 7.63169 63.3009C8.04189 67.438 8.87789 71.54 10.2061 75.4818C10.8742 77.4312 11.6868 79.3572 12.9095 81.0292C15.1168 83.9709 17.6795 86.6508 20.4962 89.0143C24.4966 92.042 28.8955 94.4758 33.2318 96.9761C37.8026 99.5583 42.7679 101.359 47.2761 104.055C49.878 105.559 51.886 107.895 54.5542 109.294C58.8046 111.575 63.684 112.622 68.497 112.517C71.966 112.442 75.4859 112.759 78.9081 112.009C82.0686 111.333 85.229 110.36 87.948 108.559C89.5966 107.497 91.003 106.106 92.6126 104.985C97.3552 101.766 102.813 99.8748 107.802 97.105C112.146 94.6243 116.529 92.1787 120.537 89.1745C123.276 86.9829 125.678 84.4084 127.889 81.6933C129.976 79.0173 131.077 75.7435 131.987 72.5206C133.222 68.1022 133.566 63.5119 133.816 58.9528C135.07 61.8789 135.835 64.9847 136.804 68.0084C138.734 75.767 139.266 83.881 138.293 91.8154C137.91 95.0774 137.433 98.3512 136.41 101.484C135.605 103.949 134.999 106.485 134.027 108.895C132.195 113.474 130.132 118.009 127.221 122.018C124.221 126.471 120.74 130.628 116.677 134.152C113.322 137.292 109.466 139.82 105.532 142.168C103.082 143.594 100.445 144.649 97.8514 145.774C96.6481 146.305 95.3863 146.692 94.0971 146.93C93.8041 144.574 93.6674 142.129 92.6712 139.937C91.7844 138.07 90.2959 136.562 88.6942 135.296C85.8463 133.023 82.3967 131.729 79.33 129.811C77.9783 128.96 76.7868 127.827 75.2671 127.28C73.3529 126.577 71.2746 126.6 69.2705 126.643C67.3679 126.69 65.3951 127.034 63.8168 128.155C62.4261 129.135 61.0587 130.163 59.5195 130.901C55.7535 132.792 51.7688 134.702 49.1396 138.128C47.0535 140.672 46.8855 144.11 46.5183 147.235C36.5603 144.043 27.3445 138.421 20.1524 130.811C17.449 127.999 15.109 124.865 12.8861 121.67C8.9912 115.951 6.48313 109.45 4.29933 102.926C0.814613 90.5145 0.798997 77.1382 4.3345 64.7385Z" fill="black" data-darkreader-inline-fill="" style="--darkreader-inline-fill: #000000;"></path>
<path d="M58.7773 81.7441C58.9961 80.744 60.0782 80.1463 61.0627 80.2517C64.7544 80.3807 68.4462 80.994 72.1497 80.658C74.4507 80.5369 76.7517 80.3533 79.0566 80.2635C80.0411 80.1502 81.0177 80.8377 81.2013 81.8261C81.5373 83.5724 80.7677 85.6038 79.1465 86.4516C77.2283 87.4517 75.0328 87.7212 73.0795 88.6237C71.9426 89.2682 71.0715 90.2722 70.0557 91.0809C69.0009 90.3035 68.0555 89.3737 66.9226 88.7135C64.8443 87.6822 62.4573 87.3931 60.4376 86.225C59.0625 85.2405 58.4804 83.3731 58.7773 81.7441Z" fill="black" data-darkreader-inline-fill="" style="--darkreader-inline-fill: #ffffff;"></path>
<path d="M63.9417 100.156C66.1177 100.097 68.2585 100.64 70.4384 100.547C72.212 100.476 73.9661 100.109 75.7514 100.152C75.7983 100.406 75.8959 100.922 75.9467 101.176C74.4544 102.082 72.8878 102.852 71.3564 103.676C70.6962 103.984 69.9032 104.465 69.1961 104.012C67.4381 103.035 65.7035 102.019 63.9026 101.125C63.9104 100.883 63.9299 100.398 63.9417 100.156Z" fill="black" data-darkreader-inline-fill="" style="--darkreader-inline-fill: #ffffff;"></path>
</svg><style>@media (prefers-color-scheme: light) { :root { filter: none; } }
@media (prefers-color-scheme: dark) { :root { filter: none; } }
</style></svg>