<svg width="78" height="44" viewBox="0 0 78 44" fill="none" xmlns="http://www.w3.org/2000/svg">
<path d="M32.9257 3.17334H35.4913C35.6817 3.20999 35.8727 3.24724 36.0666 3.26438C37.031 3.35897 37.9842 3.5511 38.9143 3.82127C39.4329 3.95843 39.926 4.17243 40.4227 4.37166C40.6397 4.45975 40.8454 4.57443 41.0412 4.70272C41.3433 4.90313 41.6774 5.04856 41.986 5.23892C42.4224 5.50436 42.8405 5.79818 43.2544 6.09672C43.4181 6.21377 43.55 6.36689 43.6783 6.52C43.2733 6.58208 42.8629 6.55843 42.4549 6.55961C36.9364 6.5602 31.4173 6.55961 25.8988 6.55961C25.4973 6.55961 25.0953 6.57439 24.6956 6.53301C25.0775 6.13456 25.5328 5.81946 25.9869 5.51027C26.2506 5.33114 26.5309 5.17862 26.8118 5.02846C27.1807 4.83278 27.5172 4.57916 27.8962 4.40122C28.4538 4.13755 29.0492 3.97084 29.634 3.78048C29.8652 3.70422 30.0999 3.64096 30.3388 3.59367C31.0218 3.45888 31.7035 3.30103 32.4001 3.25729C32.5774 3.24428 32.7513 3.20822 32.9257 3.17334Z" fill="#AAAAAA"/>
<path d="M12.5404 3.81055C12.6362 3.81114 12.732 3.81114 12.8278 3.81114C12.8787 3.95539 12.9307 4.09963 12.9821 4.24388C12.8858 4.39286 12.7906 4.54184 12.6948 4.69081C12.5913 4.54361 12.4908 4.39581 12.3903 4.24684C12.4411 4.10141 12.4914 3.95657 12.5404 3.81055Z" fill="#AAAAAA"/>
<path d="M17.6223 3.81104C17.7187 3.81104 17.8151 3.81104 17.9115 3.81104C17.9606 3.95706 18.0114 4.1019 18.0623 4.24733C17.9617 4.39512 17.8606 4.54232 17.7571 4.68775C17.659 4.53759 17.5614 4.38684 17.4639 4.23609C17.5171 4.09421 17.5697 3.95292 17.6223 3.81104Z" fill="#AAAAAA"/>
<path d="M7.45169 3.88428C7.5664 3.88487 7.68051 3.88487 7.79522 3.88487C7.83484 4.00192 7.87623 4.11957 7.91821 4.23662C7.81829 4.38678 7.71836 4.53635 7.61725 4.68592C7.51318 4.53694 7.4103 4.38619 7.30859 4.23544C7.35649 4.11838 7.40438 4.00133 7.45169 3.88428Z" fill="#AAAAAA"/>
<path d="M2.27808 4.32461C2.3987 4.18805 2.54238 4.07395 2.69967 3.98291C2.72095 3.99769 2.76352 4.02725 2.7854 4.04203C2.8741 4.285 2.68074 4.48068 2.5483 4.65922C2.45724 4.54867 2.36795 4.43634 2.27808 4.32461Z" fill="#AAAAAA"/>
<path d="M2.5481 4.70313C2.69533 4.59376 2.84729 4.49148 3.0028 4.39453C3.2399 4.4903 3.47819 4.58312 3.70643 4.6984C3.47997 4.8119 3.24404 4.90413 3.00812 4.99517C2.85143 4.90235 2.69828 4.80481 2.5481 4.70313Z" fill="#AAAAAA"/>
<path d="M6.38904 4.68801C6.64743 4.59638 6.90287 4.49588 7.15535 4.3877C7.3079 4.48288 7.45099 4.59402 7.56216 4.73708C7.42557 4.82517 7.2878 4.91207 7.14884 4.99602C6.89163 4.9032 6.63856 4.79916 6.38904 4.68801Z" fill="#AAAAAA"/>
<path d="M7.64697 4.70199C7.77883 4.58848 7.91246 4.43892 8.09635 4.42236C8.34765 4.47498 8.57648 4.59913 8.81713 4.68544C8.5682 4.80427 8.31217 4.90831 8.05082 4.9964C7.91246 4.90358 7.77647 4.80663 7.64697 4.70199Z" fill="#AAAAAA"/>
<path d="M11.4736 4.68809C11.7308 4.59528 11.9851 4.49359 12.2388 4.39014C12.3783 4.48827 12.5161 4.58877 12.6491 4.69519C12.5178 4.79864 12.3949 4.9222 12.2358 4.98309C11.968 4.92634 11.7255 4.79096 11.4736 4.68809Z" fill="#AAAAAA"/>
<path d="M12.7319 4.70346C12.8526 4.58523 12.988 4.48295 13.1299 4.39014C13.3883 4.48413 13.6443 4.58345 13.8997 4.68573C13.6484 4.80455 13.3889 4.90446 13.1251 4.99255C12.9915 4.89973 12.8597 4.80455 12.7319 4.70346Z" fill="#AAAAAA"/>
<path d="M16.5819 4.69683C16.819 4.57446 17.0691 4.47987 17.3222 4.39355C17.4623 4.48696 17.5972 4.58864 17.719 4.7057C17.5912 4.8062 17.4588 4.90197 17.3258 4.99597C17.0733 4.90729 16.8232 4.81152 16.5819 4.69683Z" fill="#AAAAAA"/>
<path d="M17.8032 4.70236C17.9327 4.59003 18.0705 4.48776 18.2124 4.39258C18.456 4.48894 18.7002 4.58294 18.9409 4.68699C18.7114 4.81823 18.4637 4.91045 18.2159 4.99854C18.0711 4.90986 17.9327 4.81113 17.8032 4.70236Z" fill="#AAAAAA"/>
<path d="M2.18963 4.46387C2.30256 4.54249 2.41491 4.6223 2.52666 4.7027C2.3747 4.80498 2.22037 4.9043 2.0625 4.9977C2.09857 4.81857 2.13227 4.63827 2.18963 4.46387Z" fill="#AAAAAA"/>
<path d="M7.60536 4.74268C7.78866 5.05068 7.89451 5.39534 8.03287 5.72403C8.35512 6.50143 8.66673 7.28297 8.99371 8.05801C8.64071 7.89543 8.28771 7.73168 7.92111 7.60162C7.81527 7.78725 7.71594 7.97643 7.61542 8.16442C7.50366 7.98234 7.40492 7.79198 7.3109 7.59984C6.95554 7.72458 6.62442 7.90785 6.2655 8.02313C6.327 7.83336 6.40091 7.64714 6.47896 7.46328C6.86152 6.55937 7.21275 5.64245 7.60536 4.74268Z" fill="#AAAAAA"/>
<path d="M12.6769 4.74365C12.8372 5.01559 12.9418 5.31414 13.0619 5.60441C13.3812 6.41255 13.7371 7.20591 14.0351 8.02233C13.6786 7.897 13.3415 7.72438 12.9826 7.60555C12.8886 7.80419 12.7899 8.00046 12.6858 8.19436C12.593 7.99396 12.4954 7.79591 12.3961 7.59905C12.0372 7.72142 11.6983 7.89345 11.3418 8.02292C11.5286 7.47194 11.7841 6.94816 11.9887 6.40368C12.2216 5.85211 12.4363 5.29227 12.6769 4.74365Z" fill="#AAAAAA"/>
<path d="M17.3051 5.82173C17.4542 5.45698 17.5854 5.08394 17.7734 4.73633C18.1259 5.52141 18.4038 6.33783 18.7745 7.11464C18.687 7.32747 18.5995 7.54029 18.5031 7.74898C18.3535 7.70286 18.2039 7.6538 18.0543 7.6065C17.9627 7.78918 17.8698 7.97067 17.7752 8.15157C17.6664 7.96712 17.5635 7.77972 17.4601 7.59291C17.0982 7.74543 16.7351 7.895 16.3804 8.0623C16.6979 7.31978 16.9935 6.5678 17.3051 5.82173Z" fill="#AAAAAA"/>
<path d="M1.59795 6.96957C1.93558 6.2436 2.17387 5.47507 2.54047 4.7627C2.63094 4.9365 2.71431 5.11445 2.78645 5.29653C3.15659 6.21936 3.5433 7.1351 3.91226 8.05852C3.55808 7.89181 3.19857 7.73573 2.83375 7.59503C2.73382 7.79663 2.63389 7.99822 2.53396 8.19981C2.44409 7.99349 2.3483 7.78894 2.24719 7.58735C1.96101 7.70145 1.67719 7.82205 1.39514 7.9456C1.45782 7.61927 1.51044 7.29058 1.59795 6.96957Z" fill="#AAAAAA"/>
<path d="M5.067 7.60889C5.17048 7.86605 5.27336 8.12321 5.37329 8.38215C5.27809 8.5329 5.17935 8.68188 5.07646 8.8279C4.97181 8.68306 4.87365 8.53408 4.78259 8.38038C4.87897 8.1238 4.98008 7.86901 5.067 7.60889Z" fill="#AAAAAA"/>
<path d="M10.1422 7.65527C10.267 7.88761 10.3616 8.13354 10.4544 8.37947C10.3562 8.53554 10.2516 8.68806 10.1363 8.8329C10.0411 8.68156 9.9453 8.53022 9.8501 8.37888C9.94648 8.13708 10.0417 7.89529 10.1422 7.65527Z" fill="#AAAAAA"/>
<path d="M14.9298 8.37955C15.0191 8.13066 15.1143 7.88355 15.232 7.64648C15.3366 7.88887 15.4306 8.13539 15.5252 8.38132C15.4265 8.53503 15.3242 8.68637 15.216 8.83298C15.1202 8.68164 15.025 8.53089 14.9298 8.37955Z" fill="#AAAAAA"/>
<path d="M3.84363 8.82971C4.10439 8.75286 4.34741 8.62103 4.61349 8.5625C4.77727 8.61275 4.90144 8.74163 5.03271 8.84567C4.89849 8.94677 4.76131 9.04313 4.62236 9.13713C4.35982 9.04195 4.10084 8.93908 3.84363 8.82971Z" fill="#AAAAAA"/>
<path d="M5.09119 8.84287C5.22423 8.74296 5.35254 8.62946 5.50923 8.56738C5.77235 8.58216 6.00946 8.72286 6.23947 8.84051C6.02247 8.94988 5.80251 9.06516 5.56126 9.10949C5.37974 9.08289 5.24137 8.93805 5.09119 8.84287Z" fill="#AAAAAA"/>
<path d="M8.92053 8.8393C9.17774 8.75003 9.41958 8.6117 9.68862 8.55908C9.85418 8.60992 9.98071 8.73703 10.1138 8.84167C9.97835 8.94571 9.83999 9.04562 9.69985 9.14376C9.44028 9.04089 9.1807 8.94039 8.92053 8.8393Z" fill="#AAAAAA"/>
<path d="M10.5974 8.56689C10.8516 8.59586 11.0781 8.73715 11.3146 8.8282C11.0905 8.95412 10.8564 9.09009 10.5962 9.1161C10.4366 9.05343 10.3059 8.93756 10.1687 8.83884C10.3053 8.73952 10.4354 8.62306 10.5974 8.56689Z" fill="#AAAAAA"/>
<path d="M14.0057 8.83815C14.2629 8.73587 14.5202 8.63419 14.7774 8.53369C14.9181 8.63183 15.0576 8.73174 15.193 8.83756C15.0582 8.94338 14.9205 9.04447 14.7809 9.14379C14.5202 9.04861 14.26 8.94988 14.0057 8.83815Z" fill="#AAAAAA"/>
<path d="M15.6839 8.56445C15.9488 8.60347 16.1841 8.75008 16.4384 8.82989C16.1883 8.94163 15.934 9.04153 15.681 9.14558C15.5367 9.04685 15.3936 8.94635 15.2546 8.84053C15.3906 8.73944 15.5213 8.62121 15.6839 8.56445Z" fill="#AAAAAA"/>
<path d="M5.06629 8.87988C5.26614 9.24819 5.39859 9.64664 5.56179 10.0309C5.76046 10.5027 5.94494 10.9798 6.14953 11.4491C5.43762 11.4497 4.72571 11.4521 4.01379 11.4462C4.17699 11.0075 4.36739 10.5795 4.543 10.1456C4.71506 9.7229 4.88062 9.29666 5.06629 8.87988Z" fill="#AAAAAA"/>
<path d="M10.1355 8.88086C10.2301 9.04994 10.3129 9.22493 10.3833 9.40524C10.5825 9.91188 10.7995 10.4114 10.9994 10.9181C11.162 11.3331 11.3565 11.7363 11.4913 12.1619C11.1354 12.0354 10.799 11.861 10.44 11.7445C10.346 11.9432 10.2473 12.1388 10.1432 12.3322C10.051 12.1329 9.954 11.9361 9.85348 11.741C9.4786 11.8752 9.12087 12.0502 8.75427 12.2039C8.99907 11.7114 9.17704 11.1906 9.39819 10.6875C9.63825 10.0833 9.89191 9.48386 10.1355 8.88086Z" fill="#AAAAAA"/>
<path d="M14.7338 10.0396C14.9018 9.65412 15.039 9.25448 15.2335 8.88086C15.6184 9.76349 15.9625 10.6633 16.3374 11.55C16.4184 11.7363 16.4835 11.929 16.5302 12.127C16.1813 12.0354 15.8697 11.8415 15.5197 11.7534C15.4245 11.9503 15.3263 12.1454 15.2293 12.341C15.1312 12.1412 15.0342 11.9414 14.9396 11.7404C14.5801 11.8657 14.2425 12.0437 13.8806 12.1625C14.1408 11.4454 14.4577 10.7508 14.7338 10.0396Z" fill="#AAAAAA"/>
<path d="M21.9502 9.9586C22.3594 9.93731 22.7691 9.94736 23.1789 9.94618C30.9301 9.945 38.6819 9.94736 46.4331 9.945C46.588 10.2359 46.7175 10.5385 46.8636 10.8335C47.2858 11.6937 47.5382 12.6213 47.8203 13.5329C47.7907 13.4613 47.7588 13.3916 47.7275 13.3218C45.1027 13.3171 42.478 13.3224 39.8533 13.3194C39.5097 13.3177 39.165 13.3094 38.8226 13.3478C38.4383 12.7324 37.9328 12.1814 37.2965 11.8214C36.9358 11.6269 36.6148 11.355 36.2198 11.229C35.3624 10.9388 34.4424 10.8282 33.5412 10.924C33.1711 10.9748 32.8033 11.047 32.4426 11.1445C31.9998 11.2633 31.6142 11.5205 31.2204 11.7451C30.7799 12.0189 30.3447 12.3251 30.0314 12.7442C29.8735 12.9523 29.6973 13.1456 29.5359 13.3508C29.2118 13.3135 28.8854 13.3159 28.5596 13.3189C25.9148 13.3236 23.27 13.3147 20.6251 13.3236C20.7789 12.6491 21.0266 12.0029 21.2448 11.3479C21.3595 10.9819 21.6173 10.6881 21.7728 10.3417C21.8325 10.214 21.8887 10.0851 21.9502 9.9586Z" fill="#AAAAAA"/>
<path d="M12.6833 11.7944C12.7992 12.0315 12.8938 12.278 12.9896 12.5234C12.8909 12.6777 12.7868 12.8284 12.6733 12.9727C12.5781 12.8219 12.4841 12.67 12.3912 12.5174C12.4894 12.2768 12.584 12.0345 12.6833 11.7944Z" fill="#AAAAAA"/>
<path d="M7.03308 13.2865C7.21106 12.8053 7.41091 12.3317 7.65985 11.8818C7.73435 12.097 7.826 12.3051 7.91174 12.5156C7.81536 12.6657 7.71779 12.8147 7.61964 12.9631C7.52622 12.8455 7.43398 12.7266 7.34114 12.6084C7.32222 12.6409 7.28497 12.7065 7.26605 12.739C7.36893 12.8242 7.47182 12.9093 7.57352 12.9956C7.41091 13.1221 7.23235 13.228 7.03308 13.2865Z" fill="#AAAAAA"/>
<path d="M7.63208 12.9876C7.7663 12.8847 7.89639 12.7682 8.05544 12.7056C8.32507 12.7393 8.56454 12.8918 8.81998 12.9781C8.56809 13.0821 8.32271 13.2205 8.0513 13.2636C7.89579 13.1986 7.76689 13.0863 7.63208 12.9876Z" fill="#AAAAAA"/>
<path d="M11.4613 12.9795C11.7232 12.8938 11.9698 12.759 12.2406 12.7017C12.4009 12.7602 12.5274 12.8802 12.6598 12.9831C12.5239 13.0859 12.3955 13.2089 12.2318 13.2656C11.9615 13.2136 11.7161 13.0782 11.4613 12.9795Z" fill="#AAAAAA"/>
<path d="M12.7155 12.9817C12.8532 12.8776 12.9945 12.7783 13.1365 12.6802C13.3937 12.7765 13.6485 12.8776 13.9045 12.9781C13.6521 13.0916 13.3937 13.1904 13.1335 13.2844C12.9928 13.185 12.8526 13.0851 12.7155 12.9817Z" fill="#AAAAAA"/>
<path d="M7.59832 13.0254C7.77334 13.3358 7.88982 13.6727 8.02877 13.9997C8.33033 14.7688 8.67624 15.5208 8.95 16.2999C8.60055 16.1746 8.2647 16.0162 7.92116 15.8766C7.82241 16.0706 7.72012 16.2633 7.60009 16.4454C7.50194 16.2603 7.4091 16.0729 7.32041 15.8832C6.9479 16.0227 6.58248 16.1805 6.22534 16.3555C6.69601 15.2506 7.13652 14.1339 7.59832 13.0254Z" fill="#AAAAAA"/>
<path d="M12.6794 13.0205C12.8562 13.3332 12.9656 13.6773 13.1063 14.0066C13.2878 14.4382 13.4617 14.8733 13.6385 15.3072C13.7721 15.6382 13.9241 15.9628 14.0329 16.3039C13.6745 16.1845 13.3387 16.0083 12.9821 15.883C12.8863 16.0828 12.7876 16.2815 12.6871 16.4783C12.5889 16.2797 12.492 16.0793 12.3968 15.8794C12.0254 16.019 11.6677 16.1916 11.3035 16.3471C11.783 15.2469 12.2075 14.1236 12.6794 13.0205Z" fill="#AAAAAA"/>
<path d="M28.4841 16.7239C28.519 16.5259 28.5456 16.3267 28.5745 16.1274C28.4137 17.4877 28.7703 18.8705 29.416 20.0647C28.8944 20.0943 28.3723 20.0771 27.8502 20.0807C25.4271 20.0836 23.004 20.0747 20.5809 20.0854C20.4355 19.441 20.3385 18.7872 20.2782 18.1298C20.2604 17.8413 20.2563 17.5516 20.2131 17.2649C20.1611 16.906 20.1617 16.5401 20.2214 16.1818C20.1983 16.3574 20.193 16.5342 20.1907 16.7109C22.5268 16.7109 24.8636 16.7109 27.1998 16.7109C27.6279 16.7109 28.056 16.7044 28.4841 16.7239Z" fill="#AAAAAA"/>
<path d="M4.88097 18.0395C5.09088 17.5896 5.32739 17.1521 5.51838 16.6934C5.94529 16.7217 6.37339 16.7105 6.8003 16.7111C8.94904 16.7111 11.0972 16.7111 13.2453 16.7111C13.648 16.7111 14.0501 16.704 14.4522 16.7241C14.2316 17.1332 14.0767 17.573 13.8881 17.9969C13.5794 18.6951 13.3009 19.4075 12.9568 20.0897C9.97611 20.0649 6.99424 20.0956 4.01355 20.0743C4.13122 19.8313 4.23706 19.583 4.33107 19.33C4.49427 18.8914 4.68998 18.4663 4.88097 18.0395Z" fill="#AAAAAA"/>
<path d="M39.8142 16.7075C42.5879 16.7134 45.3616 16.7134 48.1348 16.7075C48.1655 17.1923 48.1786 17.68 48.1265 18.1636C48.0609 18.8127 48.0059 19.4731 47.7883 20.0932C47.5873 20.0849 47.3856 20.0802 47.1846 20.0802C44.82 20.082 42.4549 20.0802 40.0897 20.0808C39.706 20.0808 39.3216 20.0885 38.9385 20.0648C39.0804 19.7929 39.23 19.5239 39.3713 19.2514C39.5576 18.844 39.6734 18.4072 39.758 17.9685C39.8402 17.5529 39.813 17.1278 39.8142 16.7075Z" fill="#AAAAAA"/>
<path d="M2.52394 23.4399C2.94375 23.4565 3.36416 23.45 3.78456 23.4506C8.9684 23.4506 14.1522 23.4506 19.3355 23.4506C19.7559 23.4506 20.1763 23.4464 20.5967 23.4583C20.3744 24.6028 20.1426 25.7455 19.8972 26.8859C19.533 26.8747 19.1681 26.8788 18.8033 26.8794C13.5604 26.8794 8.31798 26.8794 3.07502 26.8794C2.38025 26.8776 1.68549 26.8842 0.990723 26.8735C1.2095 26.3917 1.39043 25.8933 1.59798 25.4068C1.75644 25.0278 2.00774 24.6956 2.15083 24.3102C2.26081 24.014 2.38262 23.7225 2.52394 23.4399Z" fill="#AAAAAA"/>
<path d="M21.897 23.4755C22.3032 23.4383 22.7118 23.4507 23.1198 23.4507C30.5109 23.4507 37.902 23.4507 45.2931 23.4507C45.7117 23.4507 46.1304 23.4466 46.5496 23.4584C46.3935 23.7499 46.1617 23.9922 46.0027 24.2813C45.9051 24.4551 45.8075 24.6295 45.691 24.7915C45.2742 25.372 44.8396 25.9449 44.3317 26.4504C44.1933 26.5905 44.0597 26.7353 43.9172 26.8707C43.5287 26.8855 43.1396 26.8784 42.7506 26.8796C36.6609 26.8801 30.5706 26.879 24.4803 26.8801C24.1522 26.597 23.853 26.2819 23.591 25.9366C23.3279 25.5908 23.0417 25.2639 22.7591 24.934C22.4002 24.4936 22.179 23.9639 21.897 23.4755Z" fill="#AAAAAA"/>
<path d="M31.6147 30.248C33.3224 30.2504 35.0306 30.2498 36.7389 30.248C36.2629 30.3237 35.7833 30.3675 35.302 30.3846C34.5552 30.4774 33.7966 30.478 33.0492 30.3846C32.5685 30.3675 32.0896 30.3243 31.6147 30.248Z" fill="#AAAAAA"/>
<path d="M9.63994 3.8919C10.0166 3.90431 10.3832 3.78785 10.7598 3.79967C11.3535 3.8115 11.9466 3.80381 12.5402 3.81031C12.4911 3.95633 12.4409 4.10117 12.39 4.2466C12.4905 4.39558 12.5911 4.54338 12.6945 4.69058C12.7903 4.5416 12.8855 4.39263 12.9819 4.24365C12.9305 4.0994 12.8784 3.95515 12.8276 3.8109C14.4258 3.8044 16.0241 3.8044 17.6223 3.8109C17.5697 3.95279 17.5171 4.09408 17.4639 4.23596C17.5614 4.38671 17.659 4.53746 17.7572 4.68762C17.8606 4.54219 17.9617 4.39499 18.0623 4.2472C18.0114 4.10176 17.9606 3.95693 17.9115 3.8109C18.4082 3.8109 18.9043 3.7979 19.4009 3.80795C19.6629 3.79672 19.9207 3.95929 20.0253 4.19813C20.0165 4.54338 19.8468 4.85966 19.6635 5.14342C19.3087 5.77362 19.0899 6.46589 18.7742 7.11441C18.4034 6.3376 18.1255 5.52119 17.7731 4.7361C17.5851 5.08371 17.4538 5.45675 17.3048 5.8215C16.9932 6.56757 16.6976 7.31955 16.38 8.06207C16.7348 7.89477 17.0979 7.7452 17.4597 7.59268C17.5632 7.77949 17.6661 7.96689 17.7749 8.15134C17.8695 7.97044 17.9623 7.78895 18.054 7.60627C18.2036 7.65357 18.3532 7.70264 18.5028 7.74875C18.365 8.05439 18.2627 8.3754 18.1102 8.67453C18.0002 8.89682 17.847 9.09427 17.7441 9.32069C17.6176 9.59855 17.5301 9.89236 17.4012 10.1696C17.0819 10.8684 16.7774 11.5737 16.4942 12.2878C16.3298 12.7135 16.0347 13.0735 15.8869 13.5062C15.5209 14.3558 15.1596 15.2071 14.796 16.0572C14.6996 16.2889 14.5772 16.5077 14.4518 16.724C14.0498 16.7039 13.6477 16.711 13.245 16.711C11.0969 16.711 8.94872 16.711 6.79997 16.711C6.37306 16.7104 5.94497 16.7217 5.51806 16.6933C5.7735 16.1417 5.98281 15.5706 6.23174 15.0161C6.3707 14.701 6.486 14.3753 6.64979 14.072C6.78756 13.8148 6.92178 13.5559 7.03294 13.2863C7.23221 13.2278 7.41078 13.122 7.57338 12.9955C7.47168 12.9091 7.36879 12.824 7.26591 12.7389C7.28483 12.7064 7.32208 12.6408 7.341 12.6082C7.43384 12.7265 7.52608 12.8453 7.6195 12.9629C7.71765 12.8146 7.81522 12.6656 7.9116 12.5154C7.82586 12.305 7.73421 12.0969 7.65971 11.8817C7.62186 11.7611 7.58994 11.6387 7.55741 11.5169C7.09562 11.4081 6.61904 11.4578 6.14956 11.4489C5.94497 10.9795 5.76049 10.5025 5.56181 10.0307C5.39862 9.64643 5.26617 9.24798 5.06631 8.87967C4.88065 9.29645 4.71509 9.7227 4.54302 10.1454C4.36741 10.5793 4.17701 11.0073 4.01382 11.446C3.24632 11.4543 2.47942 11.4442 1.71193 11.4543C1.54045 11.4483 1.35183 11.4673 1.20046 11.3691C1.05205 11.2793 0.912506 11.1457 0.883532 10.9665C0.824995 10.642 0.919601 10.3174 0.977548 9.99937C1.12537 9.31656 1.24658 8.62842 1.395 7.94561C1.67704 7.82205 1.96086 7.70145 2.24705 7.58736C2.34816 7.78895 2.44394 7.9935 2.53382 8.19982C2.63375 7.99823 2.73368 7.79663 2.8336 7.59504C3.19843 7.73574 3.55793 7.89181 3.91212 8.05853C3.54315 7.1351 3.15645 6.21937 2.7863 5.29654C2.71416 5.11445 2.63079 4.93651 2.54032 4.7627C2.17373 5.47507 1.93544 6.24361 1.59781 6.96957C1.68769 6.50786 1.74859 6.03847 1.90055 5.59213C1.96618 5.39704 2.02176 5.19899 2.06256 4.9974C2.22044 4.90399 2.37476 4.80468 2.52673 4.7024C2.41497 4.622 2.30263 4.54219 2.18969 4.46357C2.21748 4.41627 2.24705 4.37016 2.27779 4.32464C2.36767 4.43637 2.45695 4.5487 2.54801 4.65925C2.68046 4.48071 2.87381 4.28503 2.78512 4.04206C2.78039 4.01486 2.77093 3.95929 2.76679 3.9321C3.00567 3.89722 3.24692 3.8848 3.48816 3.88598C4.80969 3.87948 6.13063 3.88185 7.45157 3.88421C7.40427 4.00126 7.35638 4.11832 7.30848 4.23537C7.41018 4.38612 7.51307 4.53687 7.61714 4.68585C7.71825 4.53628 7.81817 4.38671 7.9181 4.23655C7.87612 4.1195 7.83473 4.00186 7.79511 3.8848C8.41005 3.88126 9.02499 3.8783 9.63994 3.8919ZM2.54801 4.70299C2.6982 4.80468 2.85134 4.90222 3.00803 4.99504C3.24396 4.90399 3.47988 4.81177 3.70635 4.69826C3.47811 4.58298 3.23982 4.49017 3.00271 4.3944C2.8472 4.49135 2.69524 4.59363 2.54801 4.70299ZM6.38903 4.68762C6.63855 4.79877 6.89162 4.90281 7.14883 4.99563C7.28779 4.91168 7.42556 4.82478 7.56215 4.73669C7.45098 4.59363 7.30789 4.48248 7.15534 4.3873C6.90286 4.49549 6.64742 4.59599 6.38903 4.68762ZM7.6467 4.70181C7.77619 4.80645 7.91219 4.9034 8.05055 4.99622C8.3119 4.90813 8.56793 4.80409 8.81686 4.68526C8.57621 4.59895 8.34738 4.4748 8.09608 4.42218C7.91219 4.43874 7.77856 4.58831 7.6467 4.70181ZM11.4735 4.68762C11.7254 4.79049 11.9678 4.92587 12.2357 4.98262C12.3948 4.92173 12.5177 4.79817 12.649 4.69472C12.516 4.58831 12.3782 4.4878 12.2387 4.38967C11.985 4.49313 11.7307 4.59481 11.4735 4.68762ZM12.7318 4.70299C12.8595 4.80409 12.9914 4.89927 13.125 4.99208C13.3887 4.90399 13.6483 4.80409 13.8996 4.68526C13.6441 4.58298 13.3881 4.48367 13.1297 4.38967C12.9878 4.48248 12.8524 4.58476 12.7318 4.70299ZM16.5817 4.69649C16.8229 4.81118 17.073 4.90695 17.3255 4.99563C17.4586 4.90163 17.591 4.80586 17.7187 4.70536C17.5969 4.58831 17.4621 4.48662 17.322 4.39322C17.0689 4.47953 16.8188 4.57412 16.5817 4.69649ZM17.8033 4.7024C17.9328 4.81118 18.0711 4.90991 18.216 4.99858C18.4637 4.9105 18.7115 4.81827 18.9409 4.68703C18.7003 4.58298 18.4561 4.48899 18.2124 4.39262C18.0705 4.4878 17.9328 4.59008 17.8033 4.7024ZM7.60531 4.7426C7.21269 5.64238 6.86147 6.5593 6.4789 7.46321C6.40085 7.64707 6.32694 7.83329 6.26545 8.02306C6.62436 7.90778 6.95548 7.72451 7.31085 7.59977C7.40486 7.7919 7.50361 7.98226 7.61536 8.16435C7.71588 7.97635 7.81522 7.78718 7.92106 7.60155C8.28766 7.7316 8.64066 7.89536 8.99366 8.05793C8.66667 7.2829 8.35506 6.50136 8.03281 5.72396C7.89445 5.39526 7.78861 5.05061 7.60531 4.7426ZM12.6768 4.74319C12.4361 5.29181 12.2215 5.85166 11.9885 6.40322C11.7839 6.9477 11.5285 7.47149 11.3417 8.02246C11.6982 7.893 12.037 7.72096 12.3959 7.59859C12.4953 7.79545 12.5928 7.9935 12.6857 8.19391C12.7897 8 12.8885 7.80373 12.9825 7.60509C13.3414 7.72392 13.6784 7.89654 14.035 8.02187C13.737 7.20545 13.381 6.41209 13.0617 5.60395C12.9417 5.31368 12.837 5.01514 12.6768 4.74319ZM5.0669 7.60864C4.97998 7.86876 4.87887 8.12356 4.78249 8.38013C4.87355 8.53383 4.97171 8.68281 5.07636 8.82765C5.17925 8.68163 5.27799 8.53265 5.37319 8.3819C5.27326 8.12296 5.17038 7.8658 5.0669 7.60864ZM10.1419 7.65534C10.0414 7.89536 9.94622 8.13715 9.84984 8.37894C9.94504 8.53029 10.0408 8.68163 10.136 8.83297C10.2513 8.68813 10.356 8.53561 10.4541 8.37954C10.3613 8.13361 10.2667 7.88768 10.1419 7.65534ZM14.9296 8.37894C15.0248 8.53029 15.12 8.68104 15.2158 8.83238C15.324 8.68577 15.4263 8.53443 15.525 8.38072C15.4304 8.13479 15.3364 7.88827 15.2318 7.64588C15.1141 7.88295 15.0189 8.13006 14.9296 8.37894ZM3.84353 8.82942C4.10074 8.93879 4.35972 9.04166 4.62225 9.13684C4.76121 9.04284 4.89839 8.94648 5.03261 8.84539C4.90134 8.74134 4.77717 8.61246 4.61338 8.56221C4.3473 8.62074 4.10429 8.75257 3.84353 8.82942ZM5.09115 8.84243C5.24133 8.93761 5.3797 9.08245 5.56122 9.10905C5.80247 9.06471 6.02243 8.94943 6.23943 8.84007C6.00942 8.72242 5.77231 8.58172 5.50919 8.56694C5.3525 8.62901 5.22419 8.74252 5.09115 8.84243ZM8.92034 8.83888C9.1805 8.93997 9.44008 9.04047 9.69966 9.14334C9.83979 9.0452 9.97815 8.94529 10.1136 8.84125C9.98052 8.73661 9.85398 8.60951 9.68842 8.55866C9.41938 8.61128 9.17755 8.74961 8.92034 8.83888ZM10.5972 8.56635C10.4352 8.62251 10.3051 8.73897 10.1685 8.83829C10.3057 8.93702 10.4364 9.05289 10.5961 9.11555C10.8562 9.08954 11.0904 8.95357 11.3145 8.82765C11.078 8.73661 10.8515 8.59532 10.5972 8.56635ZM14.0054 8.83829C14.2597 8.95002 14.5198 9.04875 14.7806 9.14393C14.9201 9.04461 15.0579 8.94352 15.1927 8.8377C15.0573 8.73188 14.9178 8.63197 14.7771 8.53383C14.5198 8.63433 14.2626 8.73602 14.0054 8.83829ZM15.6835 8.56398C15.5209 8.62074 15.3902 8.73897 15.2542 8.84007C15.3932 8.94589 15.5363 9.04639 15.6805 9.14511C15.9336 9.04107 16.1879 8.94116 16.438 8.82942C16.1837 8.74961 15.9484 8.603 15.6835 8.56398ZM10.1354 8.88027C9.89182 9.48327 9.63816 10.0827 9.3981 10.6869C9.17696 11.19 8.99898 11.7108 8.75418 12.2033C9.12078 12.0496 9.47851 11.8746 9.85339 11.7404C9.95391 11.9355 10.0509 12.1323 10.1431 12.3316C10.2472 12.1383 10.3459 11.9426 10.4399 11.7439C10.7989 11.8604 11.1353 12.0348 11.4913 12.1613C11.3564 11.7357 11.1619 11.3325 10.9993 10.9175C10.7995 10.4108 10.5825 9.91128 10.3832 9.40464C10.3128 9.22433 10.23 9.04934 10.1354 8.88027ZM14.7339 10.039C14.4578 10.7502 14.1408 11.4448 13.8807 12.1619C14.2425 12.0431 14.5802 11.8651 14.9397 11.7398C15.0343 11.9408 15.1312 12.1406 15.2294 12.3404C15.3264 12.1448 15.4245 11.9497 15.5197 11.7528C15.8698 11.8409 16.1814 12.0348 16.5302 12.1264C16.4835 11.9284 16.4185 11.7357 16.3375 11.5494C15.9626 10.6627 15.6185 9.7629 15.2335 8.88027C15.039 9.25389 14.9018 9.65353 14.7339 10.039ZM12.6833 11.7942C12.584 12.0342 12.4894 12.2766 12.3912 12.5172C12.484 12.6697 12.5781 12.8217 12.6732 12.9724C12.7868 12.8282 12.8908 12.6774 12.9896 12.5231C12.8938 12.2778 12.7992 12.0312 12.6833 11.7942ZM7.63192 12.9872C7.76673 13.0859 7.89563 13.1982 8.05114 13.2633C8.32254 13.2201 8.56793 13.0818 8.81982 12.9777C8.56438 12.8914 8.32491 12.7389 8.05528 12.7052C7.89622 12.7679 7.76614 12.8843 7.63192 12.9872ZM11.4611 12.9789C11.716 13.0776 11.9613 13.213 12.2316 13.265C12.3953 13.2083 12.5237 13.0853 12.6596 12.9825C12.5272 12.8796 12.4007 12.7596 12.2404 12.7011C11.9696 12.7584 11.723 12.8932 11.4611 12.9789ZM12.7152 12.9813C12.8524 13.0847 12.9925 13.1846 13.1333 13.284C13.3934 13.19 13.6518 13.0912 13.9043 12.9777C13.6483 12.8772 13.3934 12.7761 13.1362 12.6798C12.9943 12.7779 12.853 12.8772 12.7152 12.9813ZM7.59821 13.025C7.13642 14.1335 6.69591 15.2502 6.22524 16.3551C6.58238 16.1801 6.9478 16.0223 7.32031 15.8828C7.409 16.0725 7.50183 16.26 7.59999 16.445C7.72002 16.2629 7.82231 16.0702 7.92106 15.8763C8.2646 16.0158 8.60045 16.1742 8.9499 16.2996C8.67613 15.5204 8.33023 14.7684 8.02867 13.9993C7.88972 13.6724 7.77324 13.3354 7.59821 13.025ZM12.6792 13.0203C12.2073 14.1234 11.7828 15.2467 11.3032 16.3469C11.6675 16.1914 12.0252 16.0188 12.3965 15.8792C12.4917 16.0791 12.5887 16.2795 12.6868 16.4781C12.7874 16.2812 12.8861 16.0826 12.9819 15.8828C13.3385 16.0081 13.6743 16.1843 14.0326 16.3037C13.9238 15.9626 13.7719 15.638 13.6382 15.307C13.4614 14.873 13.2876 14.4379 13.1061 14.0064C12.9653 13.6771 12.856 13.333 12.6792 13.0203Z" fill="white"/>
<path d="M24.1848 7.01612C24.3474 6.84704 24.5212 6.68979 24.6951 6.53254C25.0948 6.57392 25.4969 6.55914 25.8983 6.55914C31.4168 6.55914 36.9359 6.55973 42.4544 6.55914C42.8624 6.55796 43.2728 6.58161 43.6778 6.51953C43.9415 6.80389 44.2206 7.07524 44.5299 7.30994C44.822 7.53222 45.0301 7.84023 45.2394 8.137C45.6356 8.74059 46.0743 9.31758 46.4326 9.94482C38.6814 9.94719 30.9296 9.94482 23.1784 9.946C22.7686 9.94719 22.3589 9.93714 21.9497 9.95842C22.188 9.49257 22.4523 9.03559 22.7923 8.63536C23.0111 8.37997 23.1743 8.08261 23.3948 7.8284C23.6378 7.53813 23.9228 7.28806 24.1848 7.01612Z" fill="white"/>
<path d="M20.6247 13.3236C23.2695 13.3147 25.9143 13.3236 28.5592 13.3189C28.885 13.3159 29.2114 13.3136 29.5354 13.3508C29.3338 13.6706 29.1292 13.9958 29.0009 14.354C28.8063 14.931 28.639 15.5204 28.574 16.1276C28.545 16.3268 28.5184 16.526 28.4835 16.7241C28.0554 16.7046 27.6273 16.7111 27.1992 16.7111C24.863 16.7111 22.5262 16.7111 20.1901 16.7111C20.1924 16.5343 20.1978 16.3575 20.2208 16.182C20.2581 15.9461 20.2622 15.7072 20.274 15.469C20.3361 14.746 20.4414 14.0265 20.6247 13.3236Z" fill="white"/>
<path d="M38.8223 13.3482C39.1646 13.3098 39.5093 13.3181 39.8529 13.3198C42.4776 13.3228 45.1023 13.3175 47.7271 13.3222C47.7584 13.392 47.7903 13.4617 47.8199 13.5333C47.9772 14.0458 48.0523 14.5796 48.0943 15.1129C48.1043 15.2412 48.1499 15.3618 48.1901 15.483V16.7067L48.1345 16.7079C45.3613 16.7138 42.5876 16.7138 39.8139 16.7079C39.8606 15.8501 39.679 14.9882 39.3361 14.2037C39.1723 13.914 38.9766 13.6438 38.8223 13.3482Z" fill="white"/>
<path d="M3.44609 21.3352C3.67197 20.932 3.80501 20.4857 4.01314 20.0742C6.99383 20.0955 9.9757 20.0648 12.9564 20.0896C12.7749 20.4484 12.5951 20.8085 12.4437 21.1821C12.358 21.3973 12.2403 21.6077 12.2238 21.843C12.2693 21.9388 12.3438 22.0168 12.4112 22.0984C14.9171 22.0801 17.4236 22.0978 19.9295 22.089C20.2038 22.0795 20.5131 22.1812 20.6426 22.4425C20.8004 22.7682 20.6562 23.1271 20.5964 23.4581C20.176 23.4463 19.7556 23.4504 19.3352 23.4504C14.152 23.4504 8.96814 23.4504 3.78431 23.4504C3.3639 23.4499 2.9435 23.4564 2.52368 23.4398C2.71999 23.0313 2.84653 22.5932 3.0381 22.1818C3.16937 21.8974 3.29236 21.6089 3.44609 21.3352Z" fill="white"/>
<path d="M20.5803 20.0856C23.0034 20.075 25.4265 20.0839 27.8496 20.0809C28.3717 20.0774 28.8939 20.0945 29.4154 20.0649C29.5159 20.2311 29.6412 20.38 29.7701 20.5249C30.0037 20.7844 30.2006 21.0794 30.4714 21.3041C31.149 21.8781 31.9591 22.3138 32.8383 22.4746C33.4302 22.581 34.0345 22.7016 34.6376 22.6242C35.0912 22.5609 35.5494 22.5112 35.9893 22.3788C36.5097 22.2346 36.9921 21.9815 37.4392 21.6836C37.7395 21.4802 38.0429 21.268 38.2652 20.9759C38.4964 20.678 38.7359 20.3842 38.9381 20.0649C39.3212 20.0886 39.7056 20.0809 40.0893 20.0809C42.4545 20.0803 44.8196 20.0821 47.1842 20.0803C47.3852 20.0803 47.5869 20.085 47.7879 20.0933C47.6566 20.5107 47.5378 20.9322 47.4053 21.349C47.2812 21.748 47.1062 22.1276 46.9702 22.5225C46.859 22.8464 46.7153 23.1586 46.5492 23.4583C46.1299 23.4465 45.7113 23.4506 45.2927 23.4506C37.9016 23.4506 30.5104 23.4506 23.1193 23.4506C22.7113 23.4506 22.3027 23.4382 21.8965 23.4755C21.7936 23.3005 21.7073 23.1172 21.6204 22.9345C21.5288 22.74 21.3939 22.5698 21.3082 22.3723C20.9877 21.6369 20.7802 20.8601 20.5803 20.0856Z" fill="white"/>
<path d="M0.99041 26.8735C1.68517 26.8842 2.37994 26.8777 3.0747 26.8794C8.31767 26.8794 13.56 26.8794 18.803 26.8794C19.1678 26.8789 19.5327 26.8747 19.8969 26.8859C19.8549 27.1608 19.7851 27.4316 19.6822 27.6905C19.5551 28.1422 19.4818 28.6075 19.3854 29.0662C19.3298 29.337 19.153 29.5669 18.9461 29.7425C18.7084 29.9353 18.3885 29.9654 18.0946 29.9755C12.8907 29.9743 7.68735 29.9755 2.48342 29.9749C1.85192 29.9755 1.22042 29.9719 0.588924 29.9796C0.441102 29.9755 0.287367 29.9837 0.14664 29.9317C0.0697721 29.8537 0.0325209 29.7478 0 29.6462V29.279C0.0112345 29.0443 0.0549899 28.8031 0.193352 28.6081C0.377243 28.3403 0.492544 28.0352 0.606072 27.7331C0.71546 27.4381 0.858552 27.1585 0.99041 26.8735Z" fill="white"/>
<path d="M24.4799 26.8801C30.5701 26.8789 36.6604 26.8801 42.7501 26.8795C43.1392 26.8783 43.5282 26.8854 43.9167 26.8706C43.3922 27.3347 42.8193 27.7373 42.267 28.1659C41.3227 28.812 40.2495 29.2282 39.1994 29.6651C38.633 29.9063 38.0222 30.0092 37.4232 30.1339C37.1967 30.1812 36.9685 30.2244 36.7385 30.248C35.0302 30.2498 33.322 30.2504 31.6144 30.248C31.4316 30.2267 31.2495 30.1995 31.0698 30.1617C30.4826 30.0429 29.889 29.9347 29.3267 29.7225C29.0978 29.6385 28.8808 29.528 28.6514 29.4452C28.0394 29.2205 27.4605 28.9179 26.8775 28.6282C26.4163 28.3982 25.9876 28.1068 25.5956 27.7722C25.2243 27.4742 24.8423 27.1893 24.4799 26.8801Z" fill="white"/>
<path d="M53.4837 0.704573C53.6576 0.657372 53.8196 0.577131 53.9856 0.505543C54.5119 0.478009 55.0398 0.505542 55.5676 0.492956C56.0027 0.461488 56.3834 0.710866 56.787 0.831229C57.0316 1.0161 57.329 1.12466 57.5524 1.33942C57.7279 1.50935 57.8978 1.68635 58.0701 1.86021C58.1007 2.07969 58.2235 2.27007 58.3289 2.46044C58.6357 2.34637 58.9252 2.19297 59.2328 2.08126C59.3059 2.07261 59.3799 2.06396 59.4546 2.0553C59.6505 1.96798 59.8558 1.89089 60.0761 1.90819C60.1036 1.88853 60.1595 1.84919 60.187 1.82953C60.257 1.8311 60.3979 1.83425 60.4679 1.83582C60.4954 1.81458 60.5513 1.7721 60.5796 1.75086C60.6984 1.75243 60.8187 1.75479 60.9399 1.75715C60.9682 1.73591 61.0241 1.69343 61.0516 1.67219C61.1971 1.67455 61.3434 1.67612 61.4906 1.67848C61.5181 1.65724 61.5747 1.61555 61.6023 1.59431C61.9578 1.59903 62.3142 1.59352 62.6706 1.59903C62.6989 1.57857 62.7548 1.53609 62.7823 1.51564C63.0065 1.51879 63.2315 1.51879 63.4573 1.51564C63.4856 1.53688 63.5414 1.57857 63.569 1.59903C63.8986 1.59431 64.2282 1.59903 64.5586 1.59431C64.5869 1.61555 64.6428 1.65724 64.6703 1.6777C64.8418 1.67534 65.0141 1.67455 65.1872 1.67219C65.2155 1.69343 65.2713 1.73591 65.2997 1.75715C65.4185 1.75479 65.538 1.75322 65.6592 1.75164C65.6867 1.77131 65.7426 1.80986 65.7701 1.82953C66.0871 1.82323 66.3806 1.96641 66.6913 2.00968C67.0776 2.14499 67.4701 2.27164 67.8328 2.46438C67.9099 2.32592 67.987 2.18511 68.0169 2.02777C68.4267 1.39921 69.0372 0.887083 69.7656 0.677826C70.0135 0.610171 70.2487 0.473289 70.5138 0.492956C71.0157 0.500036 71.5184 0.487449 72.0203 0.501609C72.3491 0.596011 72.6724 0.706933 72.9918 0.831229C73.3262 1.04835 73.6786 1.2466 73.9594 1.53531C74.3725 2.03249 74.7815 2.55327 74.9994 3.16924C75.0891 3.37693 75.1764 3.59169 75.1591 3.82376C75.1788 3.8513 75.2173 3.90715 75.237 3.93468C75.2268 4.28869 75.2457 4.64191 75.2299 4.99513C75.1615 5.25945 75.108 5.5285 75.027 5.78889C74.7784 6.30653 74.3953 6.75021 73.9736 7.1349C74.079 7.24032 74.1482 7.37169 74.2222 7.49992C74.4857 7.77369 74.6281 8.13556 74.8256 8.45574C74.9475 8.63117 75.0458 8.8239 75.1041 9.0308C75.1749 9.30457 75.3283 9.54529 75.4211 9.8104C75.5485 10.0912 75.6272 10.3894 75.7342 10.6781C75.9214 11.0785 75.9655 11.5262 76.0764 11.9502C76.2361 12.4214 76.3864 12.8966 76.5523 13.3654C76.6168 13.7816 76.7978 14.1773 76.8112 14.6013C76.8308 14.6288 76.8702 14.6847 76.8898 14.713C76.8883 14.783 76.8851 14.9223 76.8835 14.9923C76.9048 15.0206 76.9473 15.0764 76.9685 15.1048C76.9646 15.2503 76.9638 15.3966 76.9622 15.5437C76.9834 15.5713 77.0259 15.6279 77.0472 15.6554C77.0432 15.8277 77.0424 16 77.0417 16.1731C77.0621 16.2006 77.1046 16.2572 77.125 16.2848C77.1211 17.0345 77.1211 17.7842 77.125 18.5331C77.1038 18.5614 77.0621 18.6173 77.0409 18.6456C77.0424 18.8171 77.0432 18.9894 77.0472 19.1625C77.0259 19.19 76.9834 19.2466 76.9622 19.2742C76.9638 19.4197 76.9646 19.566 76.9677 19.7124C76.948 19.7407 76.9071 19.7957 76.8875 19.8241C76.9181 20.1277 76.7868 20.4094 76.738 20.7036C76.7073 20.8751 76.6617 21.0442 76.631 21.2157C76.4855 21.6153 76.4044 22.0346 76.2479 22.4303C76.1118 22.7411 76.0292 23.0841 75.8058 23.3476C75.6996 23.7213 75.4872 24.054 75.2897 24.3844C75.1088 24.7707 74.8216 25.0932 74.6541 25.4866C74.4031 25.736 74.2096 26.0333 73.9626 26.2866C73.7919 26.5824 73.4882 26.7642 73.3128 27.0552C73.1586 27.2928 72.9139 27.4407 72.6992 27.6146C72.2602 28.1047 71.6584 28.4036 71.1856 28.8544C70.3856 29.3413 69.5391 29.7614 68.6659 30.1013C68.3425 30.1776 68.0562 30.4128 67.7148 30.3876C67.6888 30.3601 67.6361 30.305 67.6094 30.2775C67.592 30.0383 67.6062 29.7984 67.6046 29.5592C67.5669 29.523 67.4914 29.4499 67.4536 29.4129C67.4056 28.9771 67.2388 28.5468 66.9572 28.2069C66.4018 27.6956 65.6946 27.4037 65.0369 27.0529C64.845 26.8664 64.5854 26.7799 64.3918 26.599C64.0929 26.3881 63.7239 26.2615 63.3558 26.2969C62.9672 26.3244 62.5597 26.2292 62.1891 26.381C61.8532 26.4959 61.6204 26.7823 61.3073 26.9388C61.0335 27.2181 60.6386 27.3203 60.2924 27.48C60.1131 27.5925 59.9298 27.6972 59.7496 27.8081C59.4892 27.9591 59.3004 28.1983 59.0857 28.4036C58.8654 28.6026 58.8465 28.9197 58.7348 29.1785C58.6239 29.5411 58.6207 29.9164 58.6388 30.2924C58.5476 30.3467 58.4563 30.4002 58.3651 30.4545C58.0976 30.2948 57.7869 30.2389 57.4997 30.1264C57.0364 29.9321 56.5589 29.7693 56.1183 29.5238C55.758 29.372 55.4449 29.1344 55.0909 28.9724C54.9831 28.9307 54.9517 28.8048 54.862 28.7434C54.412 28.4359 53.9856 28.0952 53.5467 27.7727C53.2092 27.4273 52.8284 27.1166 52.5578 26.7138C52.3415 26.562 52.1967 26.3386 52.0142 26.1529C51.7868 25.8296 51.5178 25.5346 51.3353 25.1821C50.9427 24.6118 50.5541 24.0312 50.3236 23.3728C50.0978 22.9338 49.9256 22.4712 49.7619 22.0063C49.7564 21.9654 49.7454 21.8844 49.7399 21.8443C49.7037 21.8089 49.6321 21.7381 49.5959 21.7027C49.5959 21.5052 49.522 21.3219 49.452 21.141C49.4087 20.8302 49.264 20.5376 49.271 20.2198C49.2522 20.1914 49.2128 20.134 49.1932 20.1057C49.1939 19.9853 49.1955 19.8658 49.1987 19.7462C49.1774 19.7179 49.1349 19.662 49.1137 19.6345C49.1153 19.4874 49.1169 19.341 49.12 19.1955C49.0988 19.168 49.0571 19.1113 49.0358 19.0838C49.039 18.8061 49.0366 18.5292 49.0405 18.2515C49.0201 18.224 48.9776 18.1673 48.9572 18.1398C48.9611 17.6261 48.9611 17.1132 48.9572 16.5995C48.9776 16.5719 49.0201 16.5161 49.0405 16.4877C49.0366 16.236 49.039 15.9851 49.0358 15.7341C49.0563 15.7058 49.0988 15.6499 49.1192 15.6224C49.1169 15.4493 49.1161 15.277 49.1137 15.1048C49.1349 15.0764 49.1774 15.0206 49.1987 14.9923C49.1971 14.9223 49.1939 14.7822 49.1924 14.7122C49.2136 14.6839 49.2561 14.6272 49.2773 14.5997C49.2758 14.5297 49.2726 14.3897 49.271 14.3197C49.2907 14.2913 49.33 14.2355 49.3497 14.2079C49.3371 13.9987 49.4205 13.8044 49.4496 13.6006C49.4905 13.4921 49.5283 13.3819 49.5747 13.2749C49.5794 13.2348 49.5896 13.153 49.5944 13.1121C49.6306 13.0767 49.7037 13.0059 49.7399 12.9705C49.7187 12.7376 49.8721 12.5496 49.9303 12.3349C50.0247 12.0281 50.1671 11.7386 50.2788 11.438C50.2977 11.228 50.3504 11.0235 50.44 10.8331C50.4487 10.7591 50.4581 10.686 50.4684 10.612C50.632 10.2273 50.7067 9.80883 50.8995 9.43594C51.0057 9.22354 51.0576 8.98517 51.1937 8.78693C51.4824 8.35032 51.7113 7.87359 52.0221 7.45272C52.0236 7.41181 52.0276 7.33 52.0299 7.28909C52.0842 7.24031 52.1393 7.19233 52.1951 7.14434C52.0008 6.95396 51.7963 6.77303 51.6185 6.56613C51.4376 6.31754 51.2897 6.04456 51.0946 5.80541C51.0875 5.76765 51.0733 5.69056 51.0662 5.65201C50.9372 5.31216 50.8224 4.95422 50.846 4.58606C50.8468 4.37286 50.8452 4.15889 50.8538 3.9457C50.9168 3.80881 50.9349 3.65777 50.9813 3.5146C51.034 3.32894 51.1378 3.16059 51.1819 2.97179C51.4391 2.63509 51.6295 2.25433 51.8537 1.89639C52.0559 1.67848 52.2659 1.46608 52.4862 1.26626C52.804 1.05701 53.1077 0.804481 53.4837 0.704573ZM54.6535 0.684118C54.1831 0.732106 53.7189 0.854828 53.291 1.05779C52.7977 1.29222 52.3902 1.67848 52.0771 2.12138C51.8152 2.49506 51.5272 2.86165 51.3691 3.29511C51.078 4.05898 51.0521 4.94399 51.3888 5.69842C51.5776 6.13346 51.9104 6.48038 52.2313 6.8218C52.4516 7.04915 52.5963 7.34809 52.863 7.53139C53.1588 7.73514 53.4939 7.89956 53.8535 7.94754C54.2193 7.99396 54.5984 7.83111 54.8258 7.54162C55.2372 7.01297 55.5936 6.42768 56.1128 5.99264C56.3496 5.7999 56.6068 5.61346 56.9105 5.54345C57.2614 5.45455 57.6429 5.43646 57.956 5.23743C58.2117 5.08245 58.3651 4.79767 58.3989 4.50581C58.45 4.09753 58.439 3.68137 58.3816 3.27466C58.3297 2.89076 58.0693 2.58867 57.9041 2.2504C57.6885 1.80907 57.3369 1.43776 56.9081 1.19861C56.2292 0.813921 55.4331 0.622757 54.6535 0.684118ZM70.8599 0.686478C70.2723 0.743119 69.6972 0.928777 69.1827 1.21592C68.7375 1.47001 68.4196 1.88695 68.1836 2.33222C68.0043 2.64217 67.7785 2.94268 67.7368 3.30927C67.6762 3.75768 67.6495 4.22418 67.7612 4.6663C67.8375 4.96917 68.0743 5.21068 68.3614 5.32632C68.7854 5.50883 69.2842 5.475 69.676 5.74169C70.2542 6.12402 70.69 6.6802 71.077 7.24661C71.28 7.54083 71.5317 7.84291 71.8975 7.92473C72.3751 8.03486 72.8447 7.79886 73.242 7.55735C73.5559 7.3709 73.714 7.0287 73.9594 6.77224C74.2678 6.44262 74.5605 6.08862 74.7556 5.67797C75.1576 4.79689 75.0529 3.72779 74.5699 2.89941C74.2954 2.4274 74.0074 1.94832 73.6015 1.57622C72.8636 0.917764 71.8409 0.60309 70.8599 0.686478ZM57.1677 9.72151C56.6422 9.82063 56.171 10.1015 55.758 10.4319C55.201 10.8882 54.7385 11.4742 54.4804 12.1508C54.2145 12.8926 54.1406 13.7123 54.3239 14.4833C54.4246 14.9081 54.5772 15.3368 54.873 15.6672C55.1814 16.0228 55.6424 16.2502 56.1167 16.2462C56.6863 16.2486 57.2252 15.9953 57.6728 15.6602C58.4626 15.0615 59.0935 14.2827 59.6552 13.4732C59.8802 13.1215 60.1304 12.7298 60.0824 12.294C60.0273 11.7134 59.7779 11.1674 59.4593 10.686C58.97 9.95673 58.0378 9.52484 57.1677 9.72151ZM68.1034 9.72465C67.1429 9.92447 66.4931 10.7875 66.1973 11.674C66.0934 12.021 65.9833 12.4049 66.117 12.7597C66.2854 13.2089 66.5827 13.5928 66.8683 13.9727C67.4583 14.7602 68.1419 15.5186 69.0199 15.989C69.676 16.3438 70.5657 16.3572 71.1321 15.8246C71.7921 15.1826 71.9864 14.2056 71.9274 13.3166C71.8881 12.3789 71.4657 11.4829 70.8119 10.8174C70.1401 10.0787 69.1269 9.51068 68.1034 9.72465ZM49.806 13.5267C49.094 16.0236 49.0972 18.7172 49.7989 21.2165C50.2387 22.5302 50.7437 23.8393 51.528 24.991C51.9757 25.6345 52.4469 26.2654 52.9913 26.8318C54.4395 28.3643 56.2953 29.4963 58.3006 30.139C58.3745 29.5097 58.4083 28.8174 58.8284 28.3053C59.3579 27.6153 60.1603 27.2307 60.9186 26.8499C61.2286 26.7012 61.5039 26.4943 61.784 26.2969C62.1018 26.0711 62.4991 26.0019 62.8822 25.9924C63.2858 25.9838 63.7043 25.979 64.0897 26.1207C64.3958 26.2308 64.6357 26.4589 64.9079 26.6304C65.5254 27.0167 66.2201 27.2771 66.7936 27.7349C67.1161 27.9898 67.4158 28.2935 67.5944 28.6695C67.795 29.1108 67.8225 29.6033 67.8815 30.0777C68.1412 30.0297 68.3953 29.9518 68.6375 29.8448C69.1599 29.6182 69.6909 29.4058 70.1842 29.1187C70.9764 28.6459 71.7528 28.1369 72.4286 27.5044C73.2467 26.7948 73.9476 25.9578 74.5518 25.061C75.1379 24.2539 75.5533 23.3405 75.9222 22.4185C76.1181 21.9332 76.24 21.4226 76.4021 20.9262C76.6082 20.2953 76.7042 19.636 76.7813 18.9792C76.9772 17.3814 76.8702 15.7475 76.4815 14.1851C76.2864 13.5762 76.1323 12.9508 75.8797 12.3616C75.8294 13.2797 75.7602 14.204 75.5116 15.0938C75.3283 15.7428 75.1064 16.402 74.6863 16.9409C74.2411 17.4876 73.7573 18.006 73.2058 18.4474C72.3987 19.0523 71.516 19.5448 70.6412 20.0443C69.6366 20.6021 68.5376 20.9828 67.5826 21.6311C67.2585 21.8568 66.9753 22.1369 66.6433 22.3509C66.0958 22.7135 65.4594 22.9094 64.8229 23.0455C64.1338 23.1966 63.425 23.1328 62.7264 23.1478C61.7572 23.169 60.7747 22.9582 59.9188 22.4988C59.3815 22.2171 58.9771 21.7467 58.4532 21.4438C57.5453 20.901 56.5455 20.5384 55.6251 20.0184C54.7518 19.5149 53.866 19.0248 53.0605 18.4151C52.4933 17.9392 51.9772 17.3995 51.5328 16.8071C51.2865 16.4704 51.1229 16.0826 50.9884 15.6901C50.7209 14.8963 50.5525 14.0703 50.4699 13.2372C50.4259 12.81 50.4463 12.3797 50.418 11.951C50.1301 12.4395 50.0097 13.002 49.806 13.5267ZM60.7692 16.9511C60.7094 17.2791 60.8266 17.6552 61.1035 17.8534C61.5102 18.0886 61.9909 18.1469 62.4094 18.3545C62.6375 18.4875 62.8279 18.6747 63.0403 18.8313C63.2449 18.6684 63.4203 18.4663 63.6492 18.3364C64.0425 18.1547 64.4847 18.1004 64.8709 17.8991C65.1974 17.7283 65.3524 17.3193 65.2847 16.9676C65.2477 16.7686 65.0511 16.6301 64.8528 16.653C64.3887 16.671 63.9253 16.708 63.462 16.7324C62.7162 16.8001 61.9728 16.6765 61.2294 16.6506C61.0311 16.6293 60.8132 16.7497 60.7692 16.9511ZM61.8092 20.6587C61.8068 20.7075 61.8029 20.8051 61.8013 20.8538C62.164 21.034 62.5132 21.2385 62.8672 21.4352C63.0096 21.5264 63.1693 21.4297 63.3023 21.3675C63.6107 21.2015 63.9261 21.0466 64.2266 20.8641C64.2164 20.8129 64.1967 20.7091 64.1873 20.6579C63.8278 20.6493 63.4746 20.7232 63.1174 20.7374C62.6784 20.7563 62.2473 20.6469 61.8092 20.6587Z" fill="white"/>
<path d="M57.639 11.4567C57.9898 11.3891 58.395 11.4654 58.6381 11.7446C58.7592 11.876 58.83 12.0774 58.7411 12.2458C58.5972 12.5431 58.2833 12.7186 57.9765 12.8035C57.6114 12.9034 57.2268 12.7178 56.997 12.4361C56.8853 12.2985 56.8853 12.0971 56.942 11.9366C57.0836 11.6801 57.3581 11.5165 57.639 11.4567Z" fill="white"/>
<path d="M68.0231 11.4594C68.4125 11.3784 68.8633 11.4869 69.1205 11.804C69.2637 11.9762 69.2849 12.2382 69.1559 12.4246C68.9459 12.7259 68.547 12.9045 68.1852 12.803C67.9437 12.737 67.7124 12.6158 67.5385 12.4357C67.3749 12.2665 67.3379 11.9762 67.4858 11.7866C67.6219 11.6222 67.8162 11.5082 68.0231 11.4594Z" fill="white"/>
<path d="M54.6538 0.684142C55.4334 0.622781 56.2295 0.813945 56.9084 1.19863C57.3371 1.43778 57.6888 1.8091 57.9043 2.25042C58.0695 2.5887 58.3299 2.89078 58.3819 3.27468C58.4393 3.6814 58.4503 4.09755 58.3992 4.50584C58.3653 4.7977 58.2119 5.08247 57.9563 5.23745C57.6432 5.43648 57.2616 5.45457 56.9108 5.54347C56.6071 5.61348 56.3499 5.79993 56.1131 5.99266C55.5939 6.4277 55.2375 7.01299 54.8261 7.54164C54.5987 7.83114 54.2195 7.99398 53.8537 7.94757C53.4942 7.89958 53.1591 7.73516 52.8633 7.53141C52.5966 7.34811 52.4519 7.04918 52.2316 6.82183C51.9106 6.48041 51.5779 6.13348 51.3891 5.69845C51.0524 4.94402 51.0783 4.059 51.3694 3.29514C51.5275 2.86167 51.8154 2.49508 52.0774 2.12141C52.3905 1.67851 52.798 1.29225 53.2912 1.05782C53.7192 0.854852 54.1833 0.73213 54.6538 0.684142Z" fill="#AAAAAA"/>
<path d="M70.8602 0.686993C71.8412 0.603605 72.8639 0.918278 73.6018 1.57673C74.0077 1.94883 74.2957 2.42792 74.5702 2.89993C75.0532 3.7283 75.1579 4.7974 74.7559 5.67848C74.5608 6.08913 74.2681 6.44314 73.9598 6.77275C73.7143 7.02921 73.5562 7.37142 73.2423 7.55786C72.845 7.79937 72.3754 8.03538 71.8979 7.92524C71.5321 7.84343 71.2803 7.54134 71.0774 7.24712C70.6903 6.68071 70.2545 6.12453 69.6763 5.7422C69.2845 5.47552 68.7858 5.50935 68.3617 5.32684C68.0746 5.21119 67.8378 4.96968 67.7615 4.66681C67.6498 4.2247 67.6765 3.75819 67.7371 3.30979C67.7788 2.94319 68.0046 2.64268 68.1839 2.33273C68.4199 1.88747 68.7378 1.47053 69.183 1.21643C69.6975 0.929291 70.2726 0.743634 70.8602 0.686993Z" fill="#AAAAAA"/>
<path d="M57.168 9.72182C58.0381 9.52515 58.9703 9.95704 59.4596 10.6863C59.7782 11.1677 60.0276 11.7137 60.0827 12.2943C60.1306 12.7301 59.8805 13.1219 59.6555 13.4735C59.0938 14.283 58.4629 15.0618 57.6731 15.6605C57.2254 15.9956 56.6866 16.2489 56.117 16.2466C55.6426 16.2505 55.1816 16.0231 54.8733 15.6676C54.5775 15.3371 54.4248 14.9084 54.3242 14.4836C54.1409 13.7127 54.2148 12.8929 54.4807 12.1511C54.7387 11.4745 55.2013 10.8885 55.7583 10.4322C56.1713 10.1018 56.6425 9.82094 57.168 9.72182ZM57.6392 11.4572C57.3584 11.517 57.0838 11.6807 56.9422 11.9371C56.8856 12.0976 56.8856 12.299 56.9973 12.4367C57.227 12.7183 57.6117 12.9039 57.9767 12.804C58.2835 12.7191 58.5974 12.5436 58.7414 12.2463C58.8303 12.0779 58.7595 11.8765 58.6383 11.7452C58.3952 11.4659 57.9901 11.3896 57.6392 11.4572Z" fill="#AAAAAA"/>
<path d="M68.1037 9.72482C69.1272 9.51084 70.1405 10.0788 70.8123 10.8175C71.466 11.4831 71.8885 12.3791 71.9278 13.3168C71.9868 14.2058 71.7925 15.1828 71.1325 15.8247C70.5661 16.3573 69.6763 16.344 69.0202 15.9892C68.1423 15.5187 67.4587 14.7604 66.8687 13.9729C66.5831 13.5929 66.2857 13.209 66.1174 12.7598C65.9836 12.405 66.0938 12.0211 66.1976 11.6742C66.4934 10.7876 67.1432 9.92464 68.1037 9.72482ZM68.0235 11.4595C67.8166 11.5082 67.6223 11.6223 67.4862 11.7867C67.3383 11.9763 67.3753 12.2666 67.5389 12.4357C67.7128 12.6159 67.9441 12.737 68.1856 12.8031C68.5474 12.9046 68.9463 12.726 69.1563 12.4247C69.2853 12.2383 69.2641 11.9763 69.1209 11.804C68.8637 11.487 68.4129 11.3784 68.0235 11.4595Z" fill="#AAAAAA"/>
<path d="M49.8062 13.5274C50.01 13.0027 50.1304 12.4402 50.4183 11.9517C50.4466 12.3804 50.4262 12.8107 50.4702 13.2379C50.5528 14.071 50.7212 14.897 50.9886 15.6908C51.1232 16.0833 51.2868 16.4711 51.533 16.8078C51.9775 17.4002 52.4936 17.9399 53.0607 18.4158C53.8663 19.0255 54.7521 19.5156 55.6253 20.0191C56.5457 20.5391 57.5456 20.9017 58.4534 21.4445C58.9774 21.7474 59.3817 22.2178 59.919 22.4995C60.7749 22.9589 61.7575 23.1697 62.7267 23.1485C63.4253 23.1335 64.1341 23.1973 64.8232 23.0462C65.4596 22.9101 66.096 22.7142 66.6436 22.3516C66.9756 22.1376 67.2588 21.8575 67.5829 21.6318C68.5379 20.9835 69.6369 20.6028 70.6415 20.045C71.5163 19.5455 72.3989 19.053 73.2061 18.4481C73.7575 18.0067 74.2413 17.4883 74.6866 16.9416C75.1067 16.4027 75.3285 15.7435 75.5118 15.0945C75.7604 14.2047 75.8296 13.2804 75.88 12.3623C76.1325 12.9515 76.2867 13.5769 76.4818 14.1858C76.8704 15.7482 76.9774 17.3821 76.7815 18.9799C76.7044 19.6367 76.6085 20.296 76.4023 20.9269C76.2403 21.4233 76.1184 21.9339 75.9225 22.4192C75.5535 23.3412 75.1382 24.2546 74.5521 25.0617C73.9479 25.9585 73.247 26.7955 72.4288 27.5051C71.7531 28.1376 70.9766 28.6466 70.1844 29.1194C69.6912 29.4065 69.1602 29.6189 68.6378 29.8455C68.3955 29.9525 68.1414 30.0304 67.8818 30.0784C67.8228 29.604 67.7953 29.1115 67.5947 28.6702C67.4161 28.2942 67.1164 27.9905 66.7938 27.7356C66.2203 27.2778 65.5257 27.0174 64.9082 26.6311C64.636 26.4596 64.396 26.2315 64.09 26.1214C63.7045 25.9798 63.286 25.9845 62.8825 25.9931C62.4993 26.0026 62.1021 26.0718 61.7843 26.2976C61.5042 26.495 61.2289 26.7019 60.9189 26.8506C60.1605 27.2314 59.3581 27.616 58.8287 28.306C58.4086 28.8181 58.3748 29.5104 58.3008 30.1397C56.2956 29.497 54.4398 28.365 52.9915 26.8325C52.4471 26.2661 51.9759 25.6352 51.5283 24.9917C50.744 23.84 50.2389 22.5309 49.7992 21.2172C49.0974 18.7179 49.0943 16.0243 49.8062 13.5274Z" fill="#AAAAAA"/>
<path d="M60.7694 16.9509C60.8134 16.7495 61.0313 16.6291 61.2296 16.6504C61.973 16.6763 62.7164 16.7998 63.4622 16.7322C63.9255 16.7078 64.3889 16.6708 64.853 16.6527C65.0513 16.6299 65.248 16.7684 65.2849 16.9674C65.3526 17.319 65.1976 17.7281 64.8711 17.8988C64.4849 18.1002 64.0428 18.1545 63.6494 18.3362C63.4205 18.466 63.2451 18.6682 63.0405 18.831C62.8281 18.6745 62.6377 18.4873 62.4096 18.3543C61.9911 18.1466 61.5104 18.0884 61.1037 17.8532C60.8268 17.655 60.7096 17.2789 60.7694 16.9509Z" fill="#AAAAAA"/>
<path d="M61.8094 20.6592C62.2476 20.6474 62.6787 20.7568 63.1176 20.7379C63.4748 20.7237 63.828 20.6498 64.1875 20.6584C64.197 20.7096 64.2166 20.8134 64.2269 20.8645C63.9263 21.047 63.6109 21.202 63.3025 21.368C63.1696 21.4302 63.0099 21.5269 62.8675 21.4357C62.5135 21.239 62.1642 21.0345 61.8015 20.8543C61.8031 20.8055 61.807 20.708 61.8094 20.6592Z" fill="#AAAAAA"/>
<path d="M9.53383 35.4876L11.7859 31.5805C11.9157 31.3685 12.1039 31.2625 12.3505 31.2625C12.5972 31.2625 12.7854 31.3685 12.9152 31.5805L15.1673 35.4876C15.2192 35.5784 15.2451 35.6844 15.2451 35.8056C15.2451 35.983 15.1802 36.1366 15.0504 36.2664C14.925 36.3919 14.7735 36.4546 14.5961 36.4546C14.3408 36.4546 14.1461 36.3356 14.012 36.0976L13.6615 35.4811H11.0395L10.6826 36.0976C10.5485 36.3356 10.3559 36.4546 10.105 36.4546C9.92757 36.4546 9.77397 36.3919 9.64416 36.2664C9.51869 36.1366 9.45595 35.983 9.45595 35.8056C9.45595 35.6931 9.48191 35.5871 9.53383 35.4876ZM12.9087 34.183L12.3505 33.2095L11.7859 34.183H12.9087ZM19.5955 35.8056V31.9115C19.5955 31.7341 19.6582 31.5827 19.7837 31.4572C19.9135 31.3274 20.0671 31.2625 20.2445 31.2625H22.1915C22.6848 31.2625 23.1045 31.4377 23.4506 31.7882C23.8011 32.13 23.9763 32.5497 23.9763 33.0473C23.9763 33.3545 23.9028 33.64 23.7557 33.904C23.6085 34.1679 23.4074 34.3842 23.1521 34.553L23.9504 35.3448C24.0758 35.4832 24.1386 35.6368 24.1386 35.8056C24.1386 35.983 24.0737 36.1366 23.9439 36.2664C23.8184 36.3919 23.667 36.4546 23.4896 36.4546C23.3078 36.4546 23.1542 36.3919 23.0288 36.2664L21.5944 34.8321H20.8935V35.8056C20.8935 35.983 20.8286 36.1366 20.6988 36.2664C20.5733 36.3919 20.4219 36.4546 20.2445 36.4546C20.0671 36.4546 19.9135 36.3919 19.7837 36.2664C19.6582 36.1366 19.5955 35.983 19.5955 35.8056ZM22.211 32.5605H20.8935V33.534H22.1915C22.3257 33.534 22.4403 33.4864 22.5355 33.3913C22.6307 33.2961 22.6783 33.1814 22.6783 33.0473C22.6783 32.9175 22.6329 32.8071 22.542 32.7163C22.4511 32.6211 22.3408 32.5692 22.211 32.5605ZM31.8095 34.7736C31.935 34.6482 32.0886 34.5854 32.2703 34.5854C32.4477 34.5854 32.5991 34.6503 32.7246 34.7801C32.8544 34.9056 32.9193 35.0571 32.9193 35.2344C32.9193 35.4162 32.8566 35.5698 32.7311 35.6952C32.2249 36.2015 31.6126 36.4546 30.8944 36.4546C30.1761 36.4546 29.5639 36.2015 29.0577 35.6952C28.5514 35.189 28.2983 34.5768 28.2983 33.8585C28.2983 33.1403 28.5514 32.5281 29.0577 32.0218C29.5639 31.5156 30.1761 31.2625 30.8944 31.2625C31.604 31.2625 32.2162 31.5156 32.7311 32.0218C32.8566 32.1603 32.9193 32.3139 32.9193 32.4826C32.9193 32.66 32.8544 32.8136 32.7246 32.9434C32.5991 33.0689 32.4477 33.1317 32.2703 33.1317C32.0886 33.1317 31.935 33.0689 31.8095 32.9434C31.5542 32.6882 31.2492 32.5605 30.8944 32.5605C30.5396 32.5605 30.2345 32.6882 29.9793 32.9434C29.724 33.1987 29.5964 33.5038 29.5964 33.8585C29.5964 34.2133 29.724 34.5184 29.9793 34.7736C30.2345 35.0289 30.5396 35.1566 30.8944 35.1566C31.2492 35.1566 31.5542 35.0289 31.8095 34.7736ZM37.1518 35.4876L39.4039 31.5805C39.5337 31.3685 39.7219 31.2625 39.9685 31.2625C40.2151 31.2625 40.4034 31.3685 40.5332 31.5805L42.7852 35.4876C42.8372 35.5784 42.8631 35.6844 42.8631 35.8056C42.8631 35.983 42.7982 36.1366 42.6684 36.2664C42.5429 36.3919 42.3915 36.4546 42.2141 36.4546C41.9588 36.4546 41.7641 36.3356 41.63 36.0976L41.2795 35.4811H38.6575L38.3006 36.0976C38.1664 36.3356 37.9739 36.4546 37.7229 36.4546C37.5455 36.4546 37.3919 36.3919 37.2621 36.2664C37.1367 36.1366 37.0739 35.983 37.0739 35.8056C37.0739 35.6931 37.0999 35.5871 37.1518 35.4876ZM40.5267 34.183L39.9685 33.2095L39.4039 34.183H40.5267ZM47.2135 35.8056V31.9115C47.2135 31.7341 47.2762 31.5827 47.4017 31.4572C47.5315 31.3274 47.6851 31.2625 47.8625 31.2625H49.511C50.2249 31.2712 50.8306 31.5286 51.3282 32.0348C51.8301 32.5454 52.0811 33.1533 52.0811 33.8585C52.0811 34.5768 51.8279 35.189 51.3217 35.6952C50.8155 36.2015 50.2032 36.4546 49.485 36.4546H47.8625C47.6851 36.4546 47.5315 36.3919 47.4017 36.2664C47.2762 36.1366 47.2135 35.983 47.2135 35.8056ZM49.485 32.5605H48.5115V35.1566H49.511C49.8614 35.1479 50.16 35.0181 50.4066 34.7672C50.6576 34.5162 50.783 34.2133 50.783 33.8585C50.783 33.5038 50.6554 33.1987 50.4001 32.9434C50.1448 32.6882 49.8398 32.5605 49.485 32.5605ZM56.2314 35.8056V31.9115C56.2314 31.7341 56.2942 31.5827 56.4197 31.4572C56.5495 31.3274 56.7031 31.2625 56.8804 31.2625C57.0578 31.2625 57.2093 31.3274 57.3348 31.4572C57.4646 31.5827 57.5295 31.7341 57.5295 31.9115V35.8056C57.5295 35.983 57.4646 36.1366 57.3348 36.2664C57.2093 36.3919 57.0578 36.4546 56.8804 36.4546C56.7031 36.4546 56.5495 36.3919 56.4197 36.2664C56.2942 36.1366 56.2314 35.983 56.2314 35.8056ZM61.9557 35.4876L64.2078 31.5805C64.3376 31.3685 64.5258 31.2625 64.7724 31.2625C65.0191 31.2625 65.2073 31.3685 65.3371 31.5805L67.5891 35.4876C67.6411 35.5784 67.667 35.6844 67.667 35.8056C67.667 35.983 67.6021 36.1366 67.4723 36.2664C67.3468 36.3919 67.1954 36.4546 67.018 36.4546C66.7627 36.4546 66.568 36.3356 66.4339 36.0976L66.0834 35.4811H63.4614L63.1045 36.0976C62.9703 36.3356 62.7778 36.4546 62.5268 36.4546C62.3494 36.4546 62.1958 36.3919 62.066 36.2664C61.9406 36.1366 61.8778 35.983 61.8778 35.8056C61.8778 35.6931 61.9038 35.5871 61.9557 35.4876ZM65.3306 34.183L64.7724 33.2095L64.2078 34.183H65.3306Z" fill="white"/>
<path d="M7.61646 39.6909L69.5085 39.3987" stroke="white" stroke-width="0.295005" stroke-linecap="round"/>
<path d="M29.3751 42.6348H28.4547C28.3918 42.6348 28.3373 42.6125 28.2913 42.568C28.2468 42.522 28.2246 42.4676 28.2246 42.4047V41.024C28.2246 40.9611 28.2468 40.9075 28.2913 40.863C28.3373 40.8169 28.3918 40.7939 28.4547 40.7939H29.3843C29.5408 40.797 29.6743 40.8545 29.7847 40.9665C29.8952 41.0785 29.9504 41.2127 29.9504 41.3692C29.9504 41.495 29.912 41.61 29.8353 41.7143C29.912 41.8187 29.9504 41.9337 29.9504 42.0595C29.9504 42.219 29.8944 42.3548 29.7824 42.4668C29.6704 42.5788 29.5347 42.6348 29.3751 42.6348ZM29.3751 41.2541H28.6848V41.4842H29.3751C29.4073 41.4842 29.4342 41.4735 29.4557 41.452C29.4787 41.429 29.4902 41.4014 29.4902 41.3692C29.4902 41.337 29.4787 41.3101 29.4557 41.2887C29.4342 41.2656 29.4073 41.2541 29.3751 41.2541ZM29.3843 41.9445H28.6848V42.1746H29.3751C29.4073 42.1746 29.4342 42.1638 29.4557 42.1423C29.4787 42.1193 29.4902 42.0917 29.4902 42.0595C29.4902 42.0288 29.4794 42.0027 29.458 41.9813C29.438 41.9583 29.4135 41.946 29.3843 41.9445ZM31.0095 42.4047V41.024C31.0095 40.9611 31.0317 40.9075 31.0762 40.863C31.1222 40.8169 31.1767 40.7939 31.2396 40.7939H31.9299C32.1048 40.7939 32.2536 40.8561 32.3763 40.9803C32.5006 41.1015 32.5627 41.2503 32.5627 41.4267C32.5627 41.5356 32.5366 41.6369 32.4845 41.7305C32.4323 41.824 32.361 41.9007 32.2705 41.9606L32.5535 42.2413C32.598 42.2904 32.6202 42.3448 32.6202 42.4047C32.6202 42.4676 32.5972 42.522 32.5512 42.568C32.5067 42.6125 32.453 42.6348 32.3901 42.6348C32.3257 42.6348 32.2712 42.6125 32.2267 42.568L31.7182 42.0595H31.4697V42.4047C31.4697 42.4676 31.4467 42.522 31.4007 42.568C31.3562 42.6125 31.3025 42.6348 31.2396 42.6348C31.1767 42.6348 31.1222 42.6125 31.0762 42.568C31.0317 42.522 31.0095 42.4676 31.0095 42.4047ZM31.9368 41.2541H31.4697V41.5993H31.9299C31.9775 41.5993 32.0181 41.5824 32.0519 41.5487C32.0856 41.5149 32.1025 41.4743 32.1025 41.4267C32.1025 41.3807 32.0864 41.3416 32.0542 41.3094C32.0219 41.2756 31.9828 41.2572 31.9368 41.2541ZM33.6798 42.4047V41.024C33.6798 40.9611 33.702 40.9075 33.7465 40.863C33.7925 40.8169 33.847 40.7939 33.9099 40.7939H35.0604C35.1233 40.7939 35.177 40.8169 35.2215 40.863C35.2675 40.9075 35.2905 40.9611 35.2905 41.024C35.2905 41.0869 35.2675 41.1414 35.2215 41.1874C35.177 41.2319 35.1233 41.2541 35.0604 41.2541H34.14V41.4842H34.8303C34.8932 41.4842 34.9469 41.5073 34.9914 41.5533C35.0374 41.5978 35.0604 41.6515 35.0604 41.7143C35.0604 41.7772 35.0374 41.8317 34.9914 41.8777C34.9469 41.9222 34.8932 41.9445 34.8303 41.9445H34.14V42.1746H35.0604C35.1233 42.1746 35.177 42.1976 35.2215 42.2436C35.2675 42.2881 35.2905 42.3418 35.2905 42.4047C35.2905 42.4676 35.2675 42.522 35.2215 42.568C35.177 42.6125 35.1233 42.6348 35.0604 42.6348H33.9099C33.847 42.6348 33.7925 42.6125 33.7465 42.568C33.702 42.522 33.6798 42.4676 33.6798 42.4047ZM36.9483 42.4047V41.2541H36.4881C36.4252 41.2541 36.3708 41.2319 36.3247 41.1874C36.2803 41.1414 36.258 41.0869 36.258 41.024C36.258 40.9611 36.2803 40.9075 36.3247 40.863C36.3708 40.8169 36.4252 40.7939 36.4881 40.7939H37.8687C37.9316 40.7939 37.9853 40.8169 38.0298 40.863C38.0758 40.9075 38.0988 40.9611 38.0988 41.024C38.0988 41.0869 38.0758 41.1414 38.0298 41.1874C37.9853 41.2319 37.9316 41.2541 37.8687 41.2541H37.4085V42.4047C37.4085 42.4676 37.3855 42.522 37.3395 42.568C37.295 42.6125 37.2413 42.6348 37.1784 42.6348C37.1155 42.6348 37.0611 42.6125 37.0151 42.568C36.9706 42.522 36.9483 42.4676 36.9483 42.4047ZM38.8391 42.2919L39.6375 40.9067C39.6835 40.8315 39.7503 40.7939 39.8377 40.7939C39.9252 40.7939 39.9919 40.8315 40.0379 40.9067L40.8364 42.2919C40.8548 42.3241 40.864 42.3617 40.864 42.4047C40.864 42.4676 40.841 42.522 40.795 42.568C40.7505 42.6125 40.6968 42.6348 40.6339 42.6348C40.5434 42.6348 40.4743 42.5926 40.4268 42.5082L40.3025 42.2896H39.3729L39.2463 42.5082C39.1988 42.5926 39.1305 42.6348 39.0416 42.6348C38.9787 42.6348 38.9242 42.6125 38.8782 42.568C38.8337 42.522 38.8115 42.4676 38.8115 42.4047C38.8115 42.3648 38.8207 42.3272 38.8391 42.2919ZM40.0356 41.8294L39.8377 41.4842L39.6375 41.8294H40.0356ZM42.6364 42.1746C42.7284 42.1746 42.8143 42.1477 42.8941 42.094V41.9721H42.664C42.6011 41.9721 42.5467 41.9498 42.5006 41.9053C42.4561 41.8593 42.4339 41.8049 42.4339 41.742C42.4339 41.6791 42.4561 41.6254 42.5006 41.5809C42.5467 41.5349 42.6011 41.5119 42.664 41.5119H43.1242C43.1871 41.5119 43.2408 41.5349 43.2853 41.5809C43.3313 41.6254 43.3543 41.6791 43.3543 41.742V42.2022C43.3543 42.2666 43.3313 42.3211 43.2853 42.3655H43.2876C43.1081 42.545 42.891 42.6348 42.6364 42.6348C42.3817 42.6348 42.1647 42.545 41.9852 42.3655C41.8057 42.1861 41.716 41.969 41.716 41.7143C41.716 41.4597 41.8057 41.2426 41.9852 41.0632C42.1647 40.8837 42.3817 40.7939 42.6364 40.7939C42.888 40.7939 43.105 40.8837 43.2876 41.0632C43.3321 41.1122 43.3543 41.1667 43.3543 41.2265C43.3543 41.2894 43.3313 41.3439 43.2853 41.3899C43.2408 41.4344 43.1871 41.4566 43.1242 41.4566C43.0598 41.4566 43.0053 41.4344 42.9608 41.3899C42.8703 41.2994 42.7622 41.2541 42.6364 41.2541C42.5106 41.2541 42.4025 41.2994 42.3119 41.3899C42.2214 41.4804 42.1762 41.5886 42.1762 41.7143C42.1762 41.8401 42.2214 41.9483 42.3119 42.0388C42.4025 42.1293 42.5106 42.1746 42.6364 42.1746ZM44.3901 42.4047V41.024C44.3901 40.9611 44.4124 40.9075 44.4569 40.863C44.5029 40.8169 44.5573 40.7939 44.6202 40.7939C44.6801 40.7939 44.7345 40.8162 44.7836 40.8607L45.7708 41.8478V41.024C45.7708 40.9611 45.793 40.9075 45.8375 40.863C45.8835 40.8169 45.938 40.7939 46.0009 40.7939C46.0638 40.7939 46.1174 40.8169 46.1619 40.863C46.2079 40.9075 46.231 40.9611 46.231 41.024V42.4047C46.231 42.4676 46.2079 42.522 46.1619 42.568C46.1174 42.6125 46.0638 42.6348 46.0009 42.6348C45.9364 42.6348 45.882 42.6125 45.8375 42.568L44.8503 41.5809V42.4047C44.8503 42.4676 44.8273 42.522 44.7813 42.568C44.7368 42.6125 44.6831 42.6348 44.6202 42.6348C44.5573 42.6348 44.5029 42.6125 44.4569 42.568C44.4124 42.522 44.3901 42.4676 44.3901 42.4047ZM47.3346 42.4047V41.024C47.3346 40.9611 47.3568 40.9075 47.4013 40.863C47.4473 40.8169 47.5018 40.7939 47.5647 40.7939H48.7152C48.7781 40.7939 48.8318 40.8169 48.8763 40.863C48.9223 40.9075 48.9453 40.9611 48.9453 41.024C48.9453 41.0869 48.9223 41.1414 48.8763 41.1874C48.8318 41.2319 48.7781 41.2541 48.7152 41.2541H47.7948V41.4842H48.4851C48.548 41.4842 48.6017 41.5073 48.6462 41.5533C48.6922 41.5978 48.7152 41.6515 48.7152 41.7143C48.7152 41.7772 48.6922 41.8317 48.6462 41.8777C48.6017 41.9222 48.548 41.9445 48.4851 41.9445H47.7948V42.1746H48.7152C48.7781 42.1746 48.8318 42.1976 48.8763 42.2436C48.9223 42.2881 48.9453 42.3418 48.9453 42.4047C48.9453 42.4676 48.9223 42.522 48.8763 42.568C48.8318 42.6125 48.7781 42.6348 48.7152 42.6348H47.5647C47.5018 42.6348 47.4473 42.6125 47.4013 42.568C47.3568 42.522 47.3346 42.4676 47.3346 42.4047Z" fill="white"/>
</svg>
