<svg width="59" height="34" viewBox="0 0 59 34" fill="none" xmlns="http://www.w3.org/2000/svg">
<path d="M25.7081 2.91504H27.6405C27.7839 2.94265 27.9278 2.9707 28.0739 2.98361C28.8003 3.05486 29.5182 3.19958 30.2188 3.40307C30.6094 3.50638 30.9808 3.66758 31.3549 3.81764C31.5184 3.88398 31.6733 3.97037 31.8208 4.067C32.0484 4.21795 32.3 4.32749 32.5325 4.47087C32.8612 4.67081 33.176 4.89212 33.4878 5.11699C33.6112 5.20515 33.7105 5.32048 33.8071 5.43581C33.502 5.48257 33.193 5.46476 32.8856 5.46565C28.729 5.46609 24.5719 5.46565 20.4153 5.46565C20.1129 5.46565 19.81 5.47678 19.5089 5.44561C19.7967 5.14548 20.1396 4.90815 20.4816 4.67526C20.6803 4.54034 20.8914 4.42545 21.1029 4.31235C21.3808 4.16496 21.6342 3.97393 21.9197 3.8399C22.3397 3.6413 22.7882 3.51573 23.2287 3.37235C23.4028 3.31491 23.5796 3.26726 23.7596 3.23164C24.274 3.13011 24.7875 3.01122 25.3121 2.97827C25.4457 2.96847 25.5767 2.94131 25.7081 2.91504Z" fill="#AAAAAA"/>
<path d="M10.3535 3.39502C10.4256 3.39546 10.4978 3.39546 10.5699 3.39546C10.6082 3.50411 10.6474 3.61277 10.6862 3.72142C10.6136 3.83363 10.5419 3.94584 10.4697 4.05805C10.3918 3.94718 10.3161 3.83585 10.2404 3.72364C10.2787 3.6141 10.3165 3.50501 10.3535 3.39502Z" fill="#AAAAAA"/>
<path d="M14.1814 3.39545C14.254 3.39545 14.3266 3.39545 14.3992 3.39545C14.4362 3.50543 14.4745 3.61453 14.5128 3.72407C14.4371 3.83539 14.3609 3.94627 14.283 4.05581C14.209 3.94271 14.1356 3.82916 14.0621 3.71561C14.1022 3.60874 14.1418 3.50232 14.1814 3.39545Z" fill="#AAAAAA"/>
<path d="M6.52053 3.45068C6.60693 3.45113 6.69289 3.45113 6.77929 3.45113C6.80913 3.5393 6.84031 3.62791 6.87193 3.71607C6.79666 3.82918 6.72139 3.94184 6.64523 4.05449C6.56685 3.94228 6.48935 3.82873 6.41275 3.71518C6.44883 3.62702 6.4849 3.53885 6.52053 3.45068Z" fill="#AAAAAA"/>
<path d="M2.62366 3.7824C2.71451 3.67954 2.82274 3.5936 2.94121 3.52502C2.95724 3.53616 2.98931 3.55842 3.00579 3.56955C3.07259 3.75257 2.92695 3.89996 2.82719 4.03443C2.7586 3.95116 2.69135 3.86656 2.62366 3.7824Z" fill="#AAAAAA"/>
<path d="M2.82712 4.0674C2.93802 3.98502 3.05248 3.90799 3.16961 3.83496C3.3482 3.9071 3.52769 3.97701 3.6996 4.06384C3.52902 4.14933 3.35132 4.2188 3.17362 4.28737C3.05559 4.21746 2.94024 4.14399 2.82712 4.0674Z" fill="#AAAAAA"/>
<path d="M5.72028 4.05586C5.9149 3.98684 6.1073 3.91114 6.29748 3.82965C6.41238 3.90134 6.52016 3.98506 6.60389 4.09282C6.50101 4.15916 6.39724 4.22462 6.29258 4.28785C6.09884 4.21794 5.90822 4.13957 5.72028 4.05586Z" fill="#AAAAAA"/>
<path d="M6.6676 4.06652C6.76692 3.98102 6.86757 3.86836 7.00608 3.8559C7.19537 3.89553 7.36772 3.98904 7.54899 4.05405C7.36149 4.14355 7.16864 4.22192 6.97179 4.28827C6.86757 4.21836 6.76514 4.14533 6.6676 4.06652Z" fill="#AAAAAA"/>
<path d="M9.55002 4.05585C9.74375 3.98594 9.93526 3.90935 10.1263 3.83142C10.2314 3.90534 10.3352 3.98104 10.4354 4.06119C10.3365 4.13911 10.2439 4.23218 10.1241 4.27804C9.92235 4.2353 9.73975 4.13333 9.55002 4.05585Z" fill="#AAAAAA"/>
<path d="M10.4977 4.06742C10.5886 3.97837 10.6906 3.90133 10.7975 3.83142C10.9921 3.90222 11.1849 3.97703 11.3773 4.05406C11.1881 4.14357 10.9925 4.21882 10.7939 4.28517C10.6933 4.21526 10.5939 4.14357 10.4977 4.06742Z" fill="#AAAAAA"/>
<path d="M13.3976 4.06248C13.5762 3.9703 13.7646 3.89906 13.9552 3.83405C14.0607 3.9044 14.1623 3.98099 14.254 4.06916C14.1578 4.14486 14.0581 4.21699 13.9579 4.28779C13.7677 4.221 13.5793 4.14886 13.3976 4.06248Z" fill="#AAAAAA"/>
<path d="M14.3177 4.06701C14.4152 3.98241 14.519 3.90537 14.6259 3.83368C14.8094 3.90626 14.9933 3.97706 15.1746 4.05543C15.0018 4.15429 14.8152 4.22375 14.6286 4.2901C14.5194 4.22331 14.4152 4.14894 14.3177 4.06701Z" fill="#AAAAAA"/>
<path d="M2.55724 3.88708C2.64231 3.94631 2.72693 4.00642 2.8111 4.06698C2.69664 4.14402 2.5804 4.21882 2.46149 4.28918C2.48865 4.15426 2.51404 4.01844 2.55724 3.88708Z" fill="#AAAAAA"/>
<path d="M6.63635 4.09729C6.77441 4.32928 6.85413 4.58889 6.95835 4.83647C7.20108 5.42202 7.43579 6.01069 7.68208 6.59446C7.41619 6.47201 7.1503 6.34866 6.87417 6.2507C6.79445 6.39052 6.71963 6.53301 6.64392 6.67461C6.55974 6.53747 6.48537 6.39408 6.41455 6.24936C6.14688 6.34332 5.89748 6.48136 5.62714 6.56819C5.67345 6.42525 5.72913 6.28499 5.78792 6.1465C6.07607 5.46566 6.34062 4.77502 6.63635 4.09729Z" fill="#AAAAAA"/>
<path d="M10.4564 4.09766C10.5771 4.30249 10.6559 4.52736 10.7463 4.74599C10.9868 5.3547 11.2549 5.95228 11.4794 6.56722C11.2108 6.47282 10.957 6.3428 10.6866 6.25329C10.6158 6.40291 10.5414 6.55075 10.463 6.6968C10.3931 6.54585 10.3196 6.39668 10.2448 6.24839C9.97447 6.34057 9.71927 6.47015 9.45071 6.56767C9.59145 6.15266 9.78385 5.75813 9.93795 5.34802C10.1134 4.93257 10.2751 4.51088 10.4564 4.09766Z" fill="#AAAAAA"/>
<path d="M13.9423 4.90996C14.0545 4.63521 14.1534 4.35424 14.295 4.09241C14.5604 4.68375 14.7698 5.29869 15.049 5.8838C14.9831 6.0441 14.9172 6.20441 14.8446 6.36159C14.7319 6.32686 14.6192 6.2899 14.5065 6.25428C14.4375 6.39187 14.3676 6.52858 14.2963 6.66483C14.2144 6.5259 14.1369 6.38475 14.0589 6.24404C13.7864 6.35892 13.5129 6.47158 13.2457 6.59759C13.4849 6.03831 13.7075 5.47191 13.9423 4.90996Z" fill="#AAAAAA"/>
<path d="M2.11144 5.77462C2.36575 5.22781 2.54523 4.64894 2.82136 4.11237C2.8895 4.24328 2.9523 4.37731 3.00664 4.51446C3.28544 5.20955 3.57671 5.8993 3.85462 6.59484C3.58784 6.46927 3.31706 6.35172 3.04227 6.24574C2.967 6.39758 2.89173 6.54942 2.81646 6.70127C2.74877 6.54586 2.67662 6.39179 2.60046 6.23995C2.3849 6.32589 2.17112 6.41673 1.95868 6.50979C2.00589 6.26399 2.04553 6.01641 2.11144 5.77462Z" fill="#AAAAAA"/>
<path d="M4.72439 6.25598C4.80233 6.44968 4.87982 6.64338 4.95509 6.83842C4.88338 6.95197 4.80901 7.06418 4.73151 7.17416C4.65268 7.06507 4.57875 6.95286 4.51016 6.83708C4.58276 6.64383 4.65892 6.45191 4.72439 6.25598Z" fill="#AAAAAA"/>
<path d="M8.54707 6.2912C8.64104 6.4662 8.7123 6.65144 8.78223 6.83668C8.70829 6.95423 8.62946 7.06912 8.54262 7.17821C8.47091 7.06422 8.39876 6.95022 8.32706 6.83623C8.39965 6.65411 8.47136 6.47199 8.54707 6.2912Z" fill="#AAAAAA"/>
<path d="M12.1532 6.83627C12.2204 6.64881 12.2921 6.46268 12.3808 6.28412C12.4596 6.46669 12.5304 6.65237 12.6017 6.83761C12.5273 6.95339 12.4502 7.06738 12.3687 7.17781C12.2966 7.06382 12.2249 6.95027 12.1532 6.83627Z" fill="#AAAAAA"/>
<path d="M3.80295 7.17557C3.99936 7.11769 4.1824 7.01839 4.38282 6.9743C4.50619 7.01215 4.59972 7.10923 4.69859 7.1876C4.59749 7.26374 4.49416 7.33632 4.3895 7.40712C4.19176 7.33543 3.99668 7.25795 3.80295 7.17557Z" fill="#AAAAAA"/>
<path d="M4.74271 7.18529C4.84291 7.11003 4.93956 7.02454 5.05758 6.97778C5.25577 6.98892 5.43437 7.09489 5.60762 7.18351C5.44416 7.26588 5.27849 7.35272 5.09678 7.38611C4.96005 7.36607 4.85583 7.25698 4.74271 7.18529Z" fill="#AAAAAA"/>
<path d="M7.62689 7.18268C7.82063 7.11545 8.00279 7.01125 8.20543 6.97162C8.33013 7.00991 8.42544 7.10565 8.52565 7.18447C8.42366 7.26284 8.31944 7.33809 8.21389 7.41201C8.01837 7.33453 7.82286 7.25883 7.62689 7.18268Z" fill="#AAAAAA"/>
<path d="M8.89003 6.97736C9.08154 6.99918 9.25212 7.1056 9.43027 7.17417C9.26147 7.26902 9.0851 7.37144 8.88914 7.39103C8.76889 7.34383 8.67046 7.25655 8.56714 7.18219C8.67002 7.10738 8.768 7.01966 8.89003 6.97736Z" fill="#AAAAAA"/>
<path d="M11.4572 7.1822C11.6509 7.10517 11.8446 7.02858 12.0384 6.95288C12.1444 7.0268 12.2495 7.10205 12.3515 7.18176C12.2499 7.26147 12.1461 7.33761 12.041 7.41242C11.8446 7.34073 11.6487 7.26636 11.4572 7.1822Z" fill="#AAAAAA"/>
<path d="M12.7211 6.97552C12.9207 7.00491 13.0979 7.11535 13.2894 7.17546C13.101 7.25962 12.9095 7.33487 12.7189 7.41324C12.6102 7.33888 12.5025 7.26318 12.3978 7.18347C12.5002 7.10733 12.5987 7.01827 12.7211 6.97552Z" fill="#AAAAAA"/>
<path d="M4.72391 7.21338C4.87445 7.49079 4.97421 7.79092 5.09713 8.08035C5.24678 8.43569 5.38573 8.79504 5.53983 9.1486C5.0036 9.14904 4.46738 9.15083 3.93115 9.14637C4.05407 8.81597 4.19748 8.49358 4.32976 8.16674C4.45936 7.84836 4.58407 7.52731 4.72391 7.21338Z" fill="#AAAAAA"/>
<path d="M8.54212 7.21381C8.61338 7.34116 8.67574 7.47296 8.72874 7.60878C8.87883 7.99039 9.04228 8.36666 9.19281 8.74827C9.31529 9.06086 9.46181 9.36454 9.56336 9.68515C9.29525 9.58986 9.04183 9.4585 8.77149 9.37078C8.70068 9.52039 8.6263 9.66779 8.54791 9.81339C8.47844 9.66333 8.4054 9.51505 8.32968 9.36811C8.04732 9.46919 7.77787 9.60099 7.50174 9.71677C7.68612 9.34584 7.82018 8.95354 7.98675 8.5746C8.16757 8.11952 8.35863 7.668 8.54212 7.21381Z" fill="#AAAAAA"/>
<path d="M12.0057 8.08657C12.1322 7.79624 12.2355 7.49523 12.382 7.21381C12.672 7.87862 12.9312 8.55635 13.2136 9.22428C13.2746 9.36454 13.3236 9.50971 13.3587 9.65888C13.096 9.58986 12.8613 9.44381 12.5976 9.37746C12.5259 9.52574 12.452 9.67268 12.3789 9.82007C12.305 9.66957 12.232 9.51906 12.1607 9.36766C11.8899 9.46206 11.6356 9.59609 11.363 9.6856C11.559 9.14546 11.7977 8.62225 12.0057 8.08657Z" fill="#AAAAAA"/>
<path d="M17.4411 8.02606C17.7493 8.01003 18.0579 8.0176 18.3665 8.01671C24.2049 8.01582 30.0437 8.0176 35.8821 8.01582C35.9988 8.2349 36.0963 8.46289 36.2063 8.68509C36.5243 9.33298 36.7145 10.0316 36.9269 10.7183C36.9046 10.6644 36.8806 10.6118 36.857 10.5593C34.88 10.5557 32.903 10.5597 30.926 10.5575C30.6672 10.5562 30.4076 10.5499 30.1497 10.5789C29.8602 10.1153 29.4794 9.70034 29.0002 9.42916C28.7285 9.28266 28.4867 9.07783 28.1892 8.98298C27.5434 8.76435 26.8504 8.68108 26.1717 8.75321C25.8929 8.79151 25.6158 8.84583 25.3442 8.91931C25.0106 9.00881 24.7202 9.20251 24.4236 9.37172C24.0918 9.57789 23.764 9.80855 23.5279 10.1243C23.409 10.281 23.2763 10.4266 23.1547 10.5811C22.9107 10.5531 22.6648 10.5548 22.4194 10.5571C20.4273 10.5606 18.4351 10.554 16.443 10.5606C16.5588 10.0526 16.7454 9.56586 16.9097 9.07249C16.9961 8.79685 17.1903 8.57554 17.3075 8.31461C17.3524 8.21842 17.3948 8.12135 17.4411 8.02606Z" fill="#AAAAAA"/>
<path d="M10.4613 9.40863C10.5485 9.58719 10.6198 9.77288 10.692 9.95767C10.6176 10.0739 10.5392 10.1874 10.4537 10.2961C10.382 10.1825 10.3112 10.0681 10.2412 9.95322C10.3152 9.77198 10.3864 9.58942 10.4613 9.40863Z" fill="#AAAAAA"/>
<path d="M6.20529 10.5326C6.33935 10.1701 6.48988 9.81341 6.67738 9.47455C6.7335 9.63663 6.80253 9.79337 6.86711 9.9519C6.79452 10.065 6.72103 10.1772 6.6471 10.289C6.57673 10.2004 6.50725 10.1109 6.43733 10.0218C6.42308 10.0463 6.39502 10.0957 6.38077 10.1202C6.45826 10.1843 6.53576 10.2485 6.61236 10.3135C6.48988 10.4088 6.35538 10.4885 6.20529 10.5326Z" fill="#AAAAAA"/>
<path d="M6.65649 10.3073C6.75759 10.2298 6.85557 10.142 6.97538 10.0948C7.17847 10.1202 7.35884 10.2351 7.55124 10.3001C7.36152 10.3785 7.17669 10.4827 6.97226 10.5152C6.85513 10.4662 6.75804 10.3816 6.65649 10.3073Z" fill="#AAAAAA"/>
<path d="M9.54071 10.301C9.73801 10.2364 9.92373 10.1349 10.1277 10.0917C10.2484 10.1358 10.3437 10.2262 10.4435 10.3036C10.341 10.3811 10.2444 10.4737 10.121 10.5165C9.91749 10.4773 9.73267 10.3753 9.54071 10.301Z" fill="#AAAAAA"/>
<path d="M10.4853 10.3028C10.589 10.2244 10.6955 10.1496 10.8024 10.0757C10.9961 10.1483 11.1881 10.2244 11.3809 10.3001C11.1907 10.3856 10.9961 10.46 10.8001 10.5308C10.6941 10.456 10.5886 10.3807 10.4853 10.3028Z" fill="#AAAAAA"/>
<path d="M6.63104 10.3358C6.76287 10.5695 6.85061 10.8233 6.95527 11.0696C7.18241 11.6489 7.44295 12.2153 7.64916 12.8022C7.38595 12.7078 7.13298 12.5885 6.87422 12.4834C6.79984 12.6294 6.72279 12.7746 6.63238 12.9117C6.55845 12.7724 6.48853 12.6312 6.42172 12.4883C6.14114 12.5934 5.8659 12.7123 5.59689 12.8441C5.95141 12.0118 6.28321 11.1707 6.63104 10.3358Z" fill="#AAAAAA"/>
<path d="M10.4581 10.3322C10.5913 10.5678 10.6737 10.8269 10.7797 11.075C10.9164 11.4 11.0473 11.7277 11.1805 12.0546C11.2811 12.3039 11.3956 12.5484 11.4776 12.8053C11.2077 12.7154 10.9547 12.5827 10.6861 12.4883C10.614 12.6388 10.5396 12.7884 10.4639 12.9367C10.39 12.7871 10.3169 12.6361 10.2452 12.4856C9.96552 12.5907 9.69607 12.7207 9.42172 12.8378C9.78292 12.0092 10.1027 11.1631 10.4581 10.3322Z" fill="#AAAAAA"/>
<path d="M22.3624 13.1219C22.3887 12.9727 22.4087 12.8227 22.4305 12.6726C22.3094 13.6972 22.578 14.7387 23.0643 15.6382C22.6715 15.6605 22.2782 15.6476 21.885 15.6502C20.0598 15.6525 18.2347 15.6458 16.4096 15.6538C16.3 15.1684 16.227 14.676 16.1816 14.1808C16.1682 13.9635 16.1651 13.7453 16.1326 13.5293C16.0934 13.2591 16.0938 12.9834 16.1388 12.7136C16.1214 12.8458 16.1174 12.979 16.1156 13.1121C17.8753 13.1121 19.6354 13.1121 21.3951 13.1121C21.7175 13.1121 22.04 13.1072 22.3624 13.1219Z" fill="#AAAAAA"/>
<path d="M4.58411 14.1127C4.74222 13.7738 4.92037 13.4443 5.06422 13.0988C5.38578 13.1201 5.70823 13.1117 6.02979 13.1121C7.64826 13.1121 9.26629 13.1121 10.8843 13.1121C11.1876 13.1121 11.4905 13.1068 11.7933 13.1219C11.6272 13.43 11.5105 13.7613 11.3684 14.0806C11.136 14.6065 10.9262 15.1431 10.667 15.6569C8.42187 15.6382 6.17587 15.6614 3.93076 15.6454C4.01938 15.4623 4.09911 15.2753 4.16992 15.0847C4.29284 14.7543 4.44026 14.4342 4.58411 14.1127Z" fill="#AAAAAA"/>
<path d="M30.8967 13.1094C32.9859 13.1139 35.0751 13.1139 37.1639 13.1094C37.1871 13.4746 37.1969 13.8419 37.1577 14.2062C37.1082 14.6951 37.0668 15.1925 36.9029 15.6596C36.7515 15.6534 36.5996 15.6498 36.4482 15.6498C34.6672 15.6511 32.8857 15.6498 31.1042 15.6502C30.8152 15.6502 30.5257 15.656 30.2371 15.6382C30.3439 15.4334 30.4566 15.2308 30.5631 15.0255C30.7034 14.7187 30.7907 14.3896 30.8543 14.0592C30.9162 13.7462 30.8958 13.426 30.8967 13.1094Z" fill="#AAAAAA"/>
<path d="M2.8089 18.1804C3.12511 18.1928 3.44177 18.1879 3.75843 18.1884C7.66299 18.1884 11.5676 18.1884 15.4717 18.1884C15.7883 18.1884 16.105 18.1853 16.4216 18.1942C16.2542 19.0562 16.0796 19.917 15.8948 20.7759C15.6204 20.7675 15.3456 20.7706 15.0708 20.771C11.1217 20.771 7.17308 20.771 3.22398 20.771C2.70067 20.7697 2.17736 20.7746 1.65405 20.7666C1.81884 20.4037 1.95512 20.0283 2.11145 19.6618C2.23081 19.3764 2.42009 19.1261 2.52787 18.8358C2.61071 18.6127 2.70245 18.3932 2.8089 18.1804Z" fill="#AAAAAA"/>
<path d="M17.401 18.2071C17.707 18.179 18.0148 18.1884 18.3221 18.1884C23.8892 18.1884 29.4563 18.1884 35.0235 18.1884C35.3388 18.1884 35.6541 18.1853 35.9699 18.1942C35.8523 18.4137 35.6777 18.5963 35.5579 18.814C35.4844 18.9449 35.4109 19.0763 35.3232 19.1983C35.0092 19.6356 34.6819 20.0671 34.2993 20.4478C34.1951 20.5533 34.0944 20.6624 33.9871 20.7644C33.6945 20.7755 33.4014 20.7702 33.1084 20.7711C28.5215 20.7715 23.9342 20.7706 19.3469 20.7715C19.0997 20.5582 18.8743 20.3209 18.677 20.0608C18.4788 19.8003 18.2633 19.5541 18.0504 19.3056C17.78 18.9739 17.6135 18.5749 17.401 18.2071Z" fill="#AAAAAA"/>
<path d="M24.7207 23.3083C26.007 23.3101 27.2936 23.3096 28.5803 23.3083C28.2218 23.3653 27.8606 23.3982 27.4981 23.4111C26.9356 23.4811 26.3642 23.4815 25.8012 23.4111C25.4391 23.3982 25.0784 23.3657 24.7207 23.3083Z" fill="#AAAAAA"/>
<path d="M8.16885 3.45645C8.45255 3.4658 8.72868 3.37808 9.01238 3.38699C9.45953 3.39589 9.90624 3.39011 10.3534 3.395C10.3164 3.50499 10.2786 3.61409 10.2403 3.72363C10.316 3.83584 10.3917 3.94716 10.4696 4.05804C10.5418 3.94582 10.6135 3.83361 10.6861 3.7214C10.6473 3.61275 10.6081 3.5041 10.5698 3.39545C11.7737 3.39055 12.9775 3.39055 14.1813 3.39545C14.1417 3.50232 14.1021 3.60874 14.062 3.71561C14.1355 3.82916 14.209 3.94271 14.2829 4.05581C14.3608 3.94627 14.437 3.83539 14.5127 3.72407C14.4744 3.61453 14.4361 3.50543 14.3991 3.39545C14.7732 3.39545 15.1469 3.38565 15.521 3.39322C15.7183 3.38476 15.9125 3.50722 15.9913 3.68711C15.9847 3.94716 15.8568 4.18539 15.7188 4.39913C15.4515 4.8738 15.2868 5.39523 15.0489 5.88372C14.7697 5.29861 14.5604 4.68367 14.2949 4.09232C14.1533 4.35415 14.0544 4.63513 13.9422 4.90987C13.7075 5.47182 13.4848 6.03823 13.2456 6.59751C13.5128 6.47149 13.7863 6.35884 14.0589 6.24395C14.1368 6.38466 14.2143 6.52582 14.2963 6.66475C14.3675 6.52849 14.4374 6.39179 14.5065 6.25419C14.6191 6.28982 14.7318 6.32678 14.8445 6.36151C14.7407 6.59172 14.6637 6.83351 14.5488 7.05883C14.4659 7.22626 14.3506 7.37498 14.2731 7.54553C14.1778 7.75481 14.1119 7.97612 14.0148 8.18496C13.7743 8.71129 13.5449 9.24252 13.3316 9.78043C13.2078 10.101 12.9855 10.3722 12.8742 10.6982C12.5985 11.338 12.3264 11.9793 12.0525 12.6196C11.9799 12.7941 11.8877 12.9589 11.7933 13.1219C11.4904 13.1067 11.1876 13.1121 10.8843 13.1121C9.26624 13.1121 7.64821 13.1121 6.02973 13.1121C5.70817 13.1116 5.38573 13.1201 5.06417 13.0987C5.25657 12.6833 5.41423 12.2531 5.60173 11.8354C5.70639 11.5981 5.79324 11.3527 5.91661 11.1243C6.02038 10.9306 6.12148 10.7356 6.20521 10.5325C6.3553 10.4884 6.4898 10.4087 6.61228 10.3134C6.53567 10.2484 6.45818 10.1843 6.38068 10.1202C6.39493 10.0957 6.42299 10.0463 6.43724 10.0218C6.50717 10.1108 6.57665 10.2003 6.64701 10.2889C6.72095 10.1772 6.79443 10.065 6.86703 9.95186C6.80245 9.79334 6.73342 9.6366 6.6773 9.47451C6.6488 9.38367 6.62475 9.2915 6.60025 9.19977C6.25242 9.11784 5.89345 9.15524 5.53982 9.14856C5.38573 8.795 5.24677 8.43566 5.09712 8.08032C4.9742 7.79088 4.87444 7.49076 4.7239 7.21334C4.58406 7.52727 4.45935 7.84832 4.32975 8.1667C4.19748 8.49355 4.05407 8.81593 3.93114 9.14634C3.35305 9.15257 2.77541 9.145 2.19732 9.15257C2.06816 9.14812 1.92609 9.16237 1.81207 9.08845C1.70028 9.02076 1.59518 8.92013 1.57335 8.78521C1.52926 8.54075 1.60052 8.29628 1.64417 8.05672C1.75551 7.54241 1.84681 7.0241 1.9586 6.50979C2.17104 6.41672 2.38482 6.32589 2.60038 6.23995C2.67654 6.39179 2.74869 6.54586 2.81638 6.70126C2.89165 6.54942 2.96692 6.39758 3.04219 6.24573C3.31698 6.35171 3.58776 6.46927 3.85454 6.59484C3.57663 5.8993 3.28536 5.20955 3.00656 4.51446C2.95222 4.37731 2.88942 4.24328 2.82128 4.11236C2.54515 4.64893 2.36567 5.22781 2.11136 5.77462C2.17906 5.42685 2.22493 5.07329 2.33939 4.7371C2.38883 4.59016 2.43069 4.44098 2.46142 4.28914C2.58034 4.21879 2.69658 4.14398 2.81104 4.06694C2.72686 4.00638 2.64224 3.94627 2.55718 3.88705C2.57811 3.85142 2.60038 3.81669 2.62354 3.7824C2.69123 3.86656 2.75848 3.95117 2.82707 4.03444C2.92683 3.89996 3.07247 3.75257 3.00566 3.56956C3.0021 3.54907 2.99498 3.50722 2.99186 3.48673C3.17179 3.46046 3.3535 3.45111 3.53521 3.452C4.53061 3.4471 5.52557 3.44888 6.52053 3.45066C6.4849 3.53883 6.44882 3.627 6.41275 3.71517C6.48935 3.82871 6.56685 3.94226 6.64523 4.05447C6.72139 3.94182 6.79666 3.82916 6.87193 3.71606C6.84031 3.62789 6.80913 3.53928 6.77929 3.45111C7.24248 3.44844 7.70566 3.44621 8.16885 3.45645ZM2.82707 4.06739C2.9402 4.14398 3.05555 4.21745 3.17357 4.28736C3.35127 4.21879 3.52898 4.14932 3.69955 4.06383C3.52764 3.97699 3.34815 3.90708 3.16956 3.83495C3.05243 3.90797 2.93797 3.98501 2.82707 4.06739ZM5.7202 4.05581C5.90814 4.13952 6.09876 4.21789 6.2925 4.28781C6.39716 4.22457 6.50093 4.15912 6.60381 4.09277C6.52008 3.98501 6.4123 3.9013 6.2974 3.8296C6.10723 3.91109 5.91483 3.98679 5.7202 4.05581ZM6.6675 4.0665C6.76504 4.14531 6.86747 4.21834 6.97169 4.28825C7.16854 4.2219 7.36139 4.14353 7.54889 4.05403C7.36762 3.98902 7.19527 3.89551 7.00598 3.85588C6.86747 3.86834 6.76682 3.981 6.6675 4.0665ZM9.54994 4.05581C9.73967 4.13329 9.92227 4.23526 10.124 4.27801C10.2438 4.23214 10.3365 4.13908 10.4353 4.06115C10.3351 3.981 10.2314 3.9053 10.1262 3.83139C9.93518 3.90931 9.74368 3.9859 9.54994 4.05581ZM10.4977 4.06739C10.5939 4.14353 10.6932 4.21522 10.7939 4.28513C10.9925 4.21879 11.188 4.14353 11.3773 4.05403C11.1849 3.97699 10.992 3.90219 10.7974 3.83139C10.6905 3.9013 10.5885 3.97833 10.4977 4.06739ZM13.3975 4.06249C13.5792 4.14888 13.7676 4.22101 13.9578 4.28781C14.058 4.217 14.1577 4.14487 14.2539 4.06917C14.1622 3.981 14.0607 3.90441 13.9551 3.83406C13.7645 3.89907 13.5761 3.97032 13.3975 4.06249ZM14.3176 4.06694C14.4152 4.14888 14.5194 4.22324 14.6285 4.29003C14.8151 4.22368 15.0017 4.15422 15.1745 4.05537C14.9933 3.97699 14.8093 3.90619 14.6258 3.83361C14.5189 3.9053 14.4152 3.98234 14.3176 4.06694ZM6.63633 4.09722C6.3406 4.77495 6.07605 5.46559 5.78789 6.14643C5.72911 6.28492 5.67343 6.42518 5.62712 6.56812C5.89746 6.48129 6.14686 6.34325 6.41453 6.2493C6.48534 6.39401 6.55972 6.5374 6.6439 6.67455C6.71961 6.53294 6.79443 6.39045 6.87415 6.25063C7.15028 6.3486 7.41617 6.47194 7.68206 6.59439C7.43577 6.01062 7.20106 5.42195 6.95833 4.8364C6.85411 4.58882 6.77439 4.32922 6.63633 4.09722ZM10.4563 4.09767C10.275 4.51089 10.1133 4.93258 9.93786 5.34803C9.78376 5.75814 9.59136 6.15267 9.45062 6.56768C9.71918 6.47016 9.97438 6.34058 10.2447 6.24841C10.3195 6.39669 10.393 6.54586 10.4629 6.69681C10.5413 6.55076 10.6157 6.40292 10.6865 6.2533C10.9569 6.34281 11.2107 6.47283 11.4793 6.56723C11.2548 5.95229 10.9867 5.35471 10.7462 4.74601C10.6558 4.52737 10.577 4.3025 10.4563 4.09767ZM4.72435 6.25598C4.65888 6.4519 4.58272 6.64382 4.51013 6.83708C4.57871 6.95285 4.65265 7.06506 4.73148 7.17416C4.80897 7.06417 4.88335 6.95196 4.95505 6.83841C4.87978 6.64338 4.80229 6.44968 4.72435 6.25598ZM8.54696 6.29115C8.47125 6.47194 8.39955 6.65406 8.32695 6.83618C8.39866 6.95018 8.47081 7.06417 8.54251 7.17817C8.62936 7.06907 8.70819 6.95419 8.78212 6.83663C8.7122 6.65139 8.64094 6.46615 8.54696 6.29115ZM12.1531 6.83618C12.2248 6.95018 12.2965 7.06373 12.3687 7.17772C12.4502 7.06729 12.5272 6.9533 12.6016 6.83752C12.5304 6.65228 12.4595 6.4666 12.3807 6.28403C12.2921 6.46259 12.2204 6.64872 12.1531 6.83618ZM3.80288 7.17549C3.99661 7.25787 4.19169 7.33535 4.38943 7.40704C4.49409 7.33624 4.59742 7.26366 4.69852 7.18752C4.59965 7.10915 4.50612 7.01207 4.38275 6.97422C4.18233 7.01831 3.99929 7.11761 3.80288 7.17549ZM4.74261 7.18529C4.85573 7.25698 4.95995 7.36608 5.09668 7.38612C5.27839 7.35272 5.44407 7.26589 5.60752 7.18351C5.43427 7.0949 5.25568 6.98892 5.05749 6.97779C4.93946 7.02454 4.84282 7.11004 4.74261 7.18529ZM7.62683 7.18262C7.82279 7.25876 8.01831 7.33446 8.21383 7.41194C8.31938 7.33802 8.4236 7.26277 8.52559 7.1844C8.42538 7.10558 8.33007 7.00985 8.20537 6.97155C8.00272 7.01118 7.82057 7.11538 7.62683 7.18262ZM8.8899 6.97734C8.76787 7.01964 8.66989 7.10737 8.56701 7.18217C8.67033 7.25654 8.76876 7.34381 8.88901 7.39101C9.08497 7.37142 9.26134 7.269 9.43013 7.17416C9.25199 7.10558 9.08141 6.99916 8.8899 6.97734ZM11.457 7.18217C11.6485 7.26633 11.8445 7.3407 12.0409 7.41239C12.146 7.33758 12.2498 7.26143 12.3513 7.18173C12.2493 7.10202 12.1442 7.02677 12.0382 6.95285C11.8445 7.02855 11.6508 7.10514 11.457 7.18217ZM12.721 6.97556C12.5985 7.01831 12.5001 7.10737 12.3976 7.18351C12.5023 7.26322 12.6101 7.33891 12.7188 7.41328C12.9094 7.33491 13.1009 7.25965 13.2893 7.17549C13.0978 7.11538 12.9205 7.00495 12.721 6.97556ZM8.54207 7.21379C8.35857 7.66798 8.16751 8.1195 7.98669 8.57459C7.82012 8.95353 7.68606 9.34582 7.50168 9.71675C7.77781 9.60097 8.04726 9.46917 8.32962 9.36809C8.40534 9.51503 8.47838 9.66331 8.54785 9.81338C8.62624 9.66777 8.70062 9.52038 8.77143 9.37076C9.04177 9.45848 9.29519 9.58984 9.5633 9.68513C9.46176 9.36453 9.31523 9.06084 9.19275 8.74825C9.04222 8.36664 8.87877 7.99037 8.72868 7.60876C8.67568 7.47295 8.61333 7.34114 8.54207 7.21379ZM12.0057 8.08655C11.7977 8.62223 11.559 9.14545 11.363 9.68558C11.6356 9.59608 11.8899 9.46205 12.1607 9.36764C12.232 9.51904 12.305 9.66955 12.3789 9.82006C12.452 9.67267 12.5259 9.52572 12.5976 9.37744C12.8613 9.44379 13.096 9.58984 13.3587 9.65886C13.3236 9.50969 13.2746 9.36453 13.2136 9.22426C12.9312 8.55633 12.672 7.8786 12.3821 7.21379C12.2355 7.49521 12.1322 7.79623 12.0057 8.08655ZM10.4612 9.40861C10.3863 9.5894 10.3151 9.77197 10.2412 9.9532C10.3111 10.0681 10.3819 10.1825 10.4536 10.2961C10.5391 10.1874 10.6175 10.0739 10.6919 9.95765C10.6197 9.77286 10.5485 9.58717 10.4612 9.40861ZM6.65637 10.3072C6.75791 10.3816 6.855 10.4662 6.97214 10.5151C7.17656 10.4826 7.36139 10.3784 7.55112 10.3001C7.35872 10.2351 7.17834 10.1202 6.97525 10.0948C6.85545 10.142 6.75747 10.2297 6.65637 10.3072ZM9.54059 10.301C9.73254 10.3753 9.91737 10.4773 10.1209 10.5165C10.2443 10.4737 10.3409 10.3811 10.4434 10.3036C10.3436 10.2262 10.2483 10.1358 10.1276 10.0917C9.9236 10.1349 9.73789 10.2364 9.54059 10.301ZM10.4852 10.3027C10.5885 10.3807 10.6941 10.4559 10.8001 10.5307C10.9961 10.4599 11.1907 10.3856 11.3809 10.3001C11.188 10.2244 10.9961 10.1482 10.8023 10.0757C10.6954 10.1496 10.589 10.2244 10.4852 10.3027ZM6.63098 10.3357C6.28315 11.1706 5.95135 12.0118 5.59683 12.844C5.86583 12.7122 6.14107 12.5933 6.42166 12.4882C6.48846 12.6312 6.55839 12.7723 6.63232 12.9117C6.72273 12.7745 6.79978 12.6294 6.87415 12.4833C7.13291 12.5884 7.38588 12.7077 7.6491 12.8021C7.44289 12.2153 7.18235 11.6489 6.95521 11.0695C6.85055 10.8233 6.76281 10.5695 6.63098 10.3357ZM10.458 10.3321C10.1026 11.163 9.78287 12.0091 9.42167 12.8378C9.69602 12.7207 9.96547 12.5906 10.2452 12.4855C10.3169 12.6361 10.3899 12.787 10.4638 12.9366C10.5396 12.7883 10.6139 12.6387 10.6861 12.4882C10.9546 12.5826 11.2076 12.7153 11.4775 12.8053C11.3956 12.5483 11.2811 12.3039 11.1804 12.0545C11.0473 11.7277 10.9163 11.3999 10.7796 11.0749C10.6736 10.8269 10.5912 10.5677 10.458 10.3321Z" fill="white"/>
<path d="M19.1244 5.80983C19.2469 5.68248 19.3779 5.56403 19.5088 5.44559C19.8099 5.47676 20.1127 5.46563 20.4151 5.46563C24.5718 5.46563 28.7289 5.46607 32.8855 5.46563C33.1928 5.46473 33.5019 5.48255 33.807 5.43579C34.0056 5.64997 34.2158 5.85436 34.4488 6.03114C34.6688 6.19857 34.8255 6.43056 34.9832 6.6541C35.2816 7.10874 35.6121 7.54334 35.882 8.01579C30.0436 8.01757 24.2048 8.01579 18.3664 8.01668C18.0578 8.01757 17.7491 8.01 17.4409 8.02603C17.6204 7.67514 17.8195 7.33093 18.0756 7.02947C18.2404 6.83711 18.3633 6.61313 18.5294 6.42166C18.7125 6.20302 18.9271 6.01466 19.1244 5.80983Z" fill="white"/>
<path d="M16.4429 10.5606C18.4351 10.5539 20.4272 10.5606 22.4194 10.557C22.6648 10.5548 22.9106 10.553 23.1547 10.5811C23.0028 10.822 22.8487 11.0669 22.7521 11.3367C22.6055 11.7713 22.4795 12.2153 22.4305 12.6726C22.4087 12.8227 22.3886 12.9727 22.3624 13.1219C22.0399 13.1072 21.7175 13.1121 21.395 13.1121C19.6354 13.1121 17.8753 13.1121 16.1156 13.1121C16.1174 12.979 16.1214 12.8458 16.1388 12.7136C16.1668 12.5359 16.1699 12.356 16.1788 12.1765C16.2256 11.632 16.3049 11.09 16.4429 10.5606Z" fill="white"/>
<path d="M30.1497 10.5789C30.4075 10.5499 30.6672 10.5562 30.9259 10.5575C32.9029 10.5597 34.8799 10.5557 36.8569 10.5593C36.8805 10.6118 36.9046 10.6644 36.9269 10.7183C37.0453 11.1043 37.1019 11.5064 37.1335 11.9081C37.1411 12.0047 37.1754 12.0955 37.2057 12.1868V13.1086L37.1638 13.1095C35.075 13.1139 32.9858 13.1139 30.8965 13.1095C30.9317 12.4633 30.795 11.8141 30.5367 11.2232C30.4133 11.005 30.2659 10.8015 30.1497 10.5789Z" fill="white"/>
<path d="M3.50355 16.5951C3.67369 16.2914 3.77389 15.9552 3.93067 15.6453C6.17578 15.6614 8.42178 15.6382 10.6669 15.6569C10.5302 15.9272 10.3948 16.1984 10.2808 16.4798C10.2162 16.6419 10.1275 16.8004 10.1151 16.9776C10.1494 17.0498 10.2055 17.1085 10.2563 17.17C12.1437 17.1562 14.0317 17.1695 15.9191 17.1629C16.1258 17.1557 16.3587 17.2323 16.4563 17.4291C16.5752 17.6745 16.4665 17.9448 16.4215 18.1942C16.1049 18.1852 15.7882 18.1884 15.4715 18.1884C11.5674 18.1884 7.66287 18.1884 3.75831 18.1884C3.44165 18.1879 3.12499 18.1928 2.80878 18.1803C2.95664 17.8727 3.05195 17.5427 3.19625 17.2328C3.29512 17.0186 3.38776 16.8013 3.50355 16.5951Z" fill="white"/>
<path d="M16.4095 15.6538C18.2347 15.6458 20.0598 15.6524 21.8849 15.6502C22.2782 15.6475 22.6715 15.6604 23.0643 15.6382C23.14 15.7633 23.2344 15.8755 23.3315 15.9846C23.5074 16.1801 23.6557 16.4023 23.8597 16.5715C24.3701 17.0039 24.9803 17.3321 25.6425 17.4532C26.0883 17.5333 26.5435 17.6242 26.9978 17.5658C27.3394 17.5182 27.6845 17.4808 28.0159 17.381C28.4078 17.2724 28.7712 17.0818 29.108 16.8574C29.3342 16.7042 29.5627 16.5443 29.7301 16.3244C29.9043 16.0999 30.0846 15.8786 30.237 15.6382C30.5256 15.656 30.8151 15.6502 31.1041 15.6502C32.8856 15.6498 34.6671 15.6511 36.4481 15.6498C36.5995 15.6498 36.7514 15.6533 36.9028 15.6596C36.804 15.9739 36.7144 16.2914 36.6147 16.6053C36.5211 16.9059 36.3893 17.1918 36.2869 17.4892C36.2031 17.7333 36.0949 17.9684 35.9698 18.1941C35.654 18.1852 35.3387 18.1883 35.0234 18.1883C29.4562 18.1883 23.8891 18.1883 18.322 18.1883C18.0147 18.1883 17.7069 18.179 17.4009 18.207C17.3234 18.0752 17.2584 17.9372 17.193 17.7996C17.1239 17.6531 17.0224 17.5249 16.9578 17.3761C16.7164 16.8222 16.5601 16.2371 16.4095 15.6538Z" fill="white"/>
<path d="M1.65395 20.7666C2.17727 20.7746 2.70058 20.7697 3.22389 20.7711C7.17299 20.7711 11.1216 20.7711 15.0707 20.7711C15.3455 20.7706 15.6203 20.7675 15.8947 20.776C15.8631 20.983 15.8105 21.187 15.733 21.382C15.6373 21.7222 15.582 22.0726 15.5094 22.4182C15.4676 22.6221 15.3344 22.7953 15.1785 22.9276C14.9995 23.0727 14.7585 23.0955 14.5372 23.103C10.6175 23.1021 6.69822 23.103 2.77852 23.1026C2.30286 23.103 1.8272 23.1004 1.35155 23.1061C1.24021 23.103 1.12441 23.1093 1.01841 23.0701C0.960513 23.0113 0.932454 22.9316 0.907959 22.855V22.5785C0.916421 22.4017 0.949378 22.22 1.0536 22.0731C1.19211 21.8714 1.27895 21.6416 1.36446 21.414C1.44686 21.1919 1.55464 20.9812 1.65395 20.7666Z" fill="white"/>
<path d="M19.3468 20.7715C23.9341 20.7706 28.5214 20.7715 33.1083 20.771C33.4014 20.7701 33.6944 20.7755 33.987 20.7643C33.592 21.1139 33.1604 21.4171 32.7444 21.74C32.0332 22.2267 31.2248 22.5401 30.4339 22.8692C30.0072 23.0509 29.5471 23.1284 29.096 23.2223C28.9254 23.258 28.7535 23.2905 28.5802 23.3083C27.2935 23.3096 26.0069 23.3101 24.7206 23.3083C24.583 23.2922 24.4458 23.2718 24.3105 23.2433C23.8682 23.1538 23.4211 23.0723 22.9975 22.9124C22.8251 22.8492 22.6617 22.7659 22.4889 22.7036C22.0279 22.5344 21.5919 22.3064 21.1528 22.0882C20.8054 21.915 20.4825 21.6954 20.1872 21.4434C19.9075 21.219 19.6198 21.0044 19.3468 20.7715Z" fill="white"/>
<path d="M41.1929 1.05555C41.3238 1.02 41.4459 0.959556 41.5709 0.905635C41.9673 0.884896 42.3649 0.905634 42.7625 0.896154C43.0902 0.872452 43.377 1.06029 43.6809 1.15095C43.8652 1.29019 44.0892 1.37197 44.2575 1.53373C44.3896 1.66172 44.5176 1.79504 44.6474 1.92599C44.6705 2.09131 44.7629 2.23471 44.8423 2.3781C45.0734 2.29218 45.2915 2.17664 45.5232 2.0925C45.5783 2.08598 45.634 2.07946 45.6903 2.07294C45.8378 2.00717 45.9924 1.9491 46.1584 1.96214C46.1791 1.94733 46.2212 1.9177 46.2419 1.90288C46.2946 1.90407 46.4007 1.90644 46.4534 1.90762C46.4742 1.89163 46.5163 1.85963 46.5376 1.84363C46.6271 1.84482 46.7177 1.84659 46.809 1.84837C46.8303 1.83237 46.8724 1.80037 46.8931 1.78438C47.0027 1.78615 47.1129 1.78734 47.2238 1.78912C47.2445 1.77312 47.2872 1.74171 47.3079 1.72571C47.5757 1.72927 47.8441 1.72512 48.1126 1.72927C48.1339 1.71386 48.176 1.68187 48.1967 1.66646C48.3656 1.66883 48.5351 1.66883 48.7051 1.66646C48.7264 1.68246 48.7685 1.71386 48.7893 1.72927C49.0375 1.72571 49.2858 1.72927 49.5347 1.72571C49.556 1.74171 49.5981 1.77312 49.6188 1.78852C49.748 1.78675 49.8778 1.78615 50.0081 1.78438C50.0294 1.80037 50.0715 1.83237 50.0928 1.84837C50.1823 1.84659 50.2724 1.84541 50.3636 1.84422C50.3844 1.85904 50.4264 1.88807 50.4472 1.90288C50.686 1.89814 50.907 2.00599 51.1411 2.03858C51.432 2.14049 51.7277 2.23589 52.0008 2.38107C52.0589 2.27678 52.117 2.17071 52.1395 2.0522C52.4482 1.57876 52.908 1.19302 53.4567 1.0354C53.6434 0.984443 53.8205 0.88134 54.0202 0.896154C54.3983 0.901487 54.7769 0.892006 55.1549 0.902672C55.4026 0.973777 55.6462 1.05733 55.8867 1.15095C56.1386 1.31449 56.404 1.46381 56.6156 1.68127C56.9266 2.05576 57.2348 2.44802 57.3989 2.91199C57.4665 3.06842 57.5322 3.23018 57.5192 3.40498C57.534 3.42572 57.563 3.46779 57.5779 3.48853C57.5702 3.75517 57.5844 4.02123 57.5725 4.28728C57.521 4.48637 57.4807 4.68902 57.4196 4.88515C57.2324 5.27505 56.9438 5.60924 56.6262 5.89899C56.7056 5.9784 56.7578 6.07735 56.8135 6.17394C57.012 6.38014 57.1192 6.65271 57.268 6.89388C57.3598 7.02601 57.4339 7.17119 57.4777 7.32702C57.531 7.53323 57.6466 7.71455 57.7165 7.91423C57.8125 8.12577 57.8718 8.35035 57.9523 8.56781C58.0934 8.86941 58.1265 9.20657 58.2101 9.52595C58.3304 9.88088 58.4436 10.2388 58.5686 10.5919C58.6172 10.9054 58.7535 11.2034 58.7635 11.5228C58.7783 11.5436 58.808 11.5856 58.8228 11.607C58.8216 11.6597 58.8192 11.7646 58.818 11.8173C58.834 11.8386 58.866 11.8807 58.882 11.902C58.8791 12.0117 58.8785 12.1219 58.8773 12.2327C58.8933 12.2534 58.9253 12.2961 58.9413 12.3168C58.9383 12.4466 58.9377 12.5764 58.9371 12.7067C58.9526 12.7275 58.9846 12.7701 59 12.7909C58.997 13.3556 58.997 13.9203 59 14.4844C58.984 14.5057 58.9526 14.5478 58.9366 14.5691C58.9377 14.6983 58.9383 14.828 58.9413 14.9584C58.9253 14.9791 58.8933 15.0218 58.8773 15.0425C58.8785 15.1521 58.8791 15.2624 58.8814 15.3726C58.8666 15.3939 58.8358 15.4354 58.821 15.4567C58.8441 15.6854 58.7452 15.8976 58.7084 16.1192C58.6853 16.2484 58.6509 16.3757 58.6278 16.5049C58.5182 16.8059 58.4572 17.1218 58.3393 17.4198C58.2368 17.6539 58.1745 17.9122 58.0063 18.1107C57.9263 18.3922 57.7663 18.6428 57.6175 18.8917C57.4813 19.1826 57.265 19.4256 57.1388 19.7218C56.9498 19.9097 56.804 20.1337 56.6179 20.3245C56.4893 20.5473 56.2606 20.6841 56.1285 20.9034C56.0124 21.0823 55.8281 21.1937 55.6663 21.3247C55.3357 21.6938 54.8824 21.919 54.5263 22.2585C53.9236 22.6253 53.2861 22.9417 52.6283 23.1977C52.3848 23.2552 52.1691 23.4323 51.912 23.4134C51.8924 23.3926 51.8527 23.3512 51.8326 23.3304C51.8195 23.1503 51.8302 22.9696 51.829 22.7894C51.8006 22.7622 51.7437 22.7071 51.7152 22.6792C51.6791 22.351 51.5535 22.0268 51.3413 21.7709C50.923 21.3857 50.3903 21.1659 49.8949 20.9016C49.7504 20.7612 49.5548 20.696 49.4091 20.5597C49.1839 20.4009 48.906 20.3055 48.6287 20.3322C48.336 20.3529 48.029 20.2812 47.7499 20.3956C47.4969 20.4821 47.3215 20.6978 47.0857 20.8157C46.8795 21.026 46.582 21.1031 46.3213 21.2233C46.1862 21.3081 46.0481 21.3869 45.9125 21.4704C45.7163 21.5842 45.5741 21.7643 45.4123 21.919C45.2464 22.0689 45.2322 22.3077 45.1481 22.5026C45.0645 22.7758 45.0622 23.0585 45.0758 23.3417C45.007 23.3826 44.9383 23.4229 44.8696 23.4638C44.6681 23.3435 44.4341 23.3014 44.2178 23.2167C43.8688 23.0703 43.5091 22.9476 43.1773 22.7628C42.9059 22.6484 42.6701 22.4695 42.4034 22.3474C42.3222 22.316 42.2985 22.2212 42.231 22.175C41.8921 21.9433 41.5709 21.6867 41.2403 21.4438C40.9861 21.1836 40.6993 20.9496 40.4954 20.6462C40.3325 20.5318 40.2235 20.3636 40.086 20.2237C39.9147 19.9802 39.7121 19.758 39.5746 19.4925C39.2789 19.0629 38.9862 18.6256 38.8126 18.1297C38.6425 17.799 38.5128 17.4506 38.3895 17.1004C38.3854 17.0696 38.3771 17.0086 38.3729 16.9784C38.3457 16.9517 38.2918 16.8984 38.2645 16.8717C38.2645 16.723 38.2088 16.5849 38.1561 16.4486C38.1235 16.2146 38.0145 15.9942 38.0198 15.7548C38.0056 15.7334 37.9759 15.6902 37.9611 15.6688C37.9617 15.5782 37.9629 15.4881 37.9653 15.3981C37.9493 15.3767 37.9173 15.3347 37.9013 15.3139C37.9025 15.2031 37.9036 15.0929 37.906 14.9833C37.89 14.9625 37.8586 14.9199 37.8426 14.8991C37.845 14.69 37.8432 14.4814 37.8462 14.2722C37.8308 14.2515 37.7988 14.2088 37.7834 14.1881C37.7863 13.8012 37.7863 13.4148 37.7834 13.0279C37.7988 13.0071 37.8308 12.9651 37.8462 12.9437C37.8432 12.7541 37.845 12.5651 37.8426 12.3761C37.858 12.3548 37.89 12.3127 37.9054 12.2919C37.9036 12.1616 37.9031 12.0318 37.9013 11.902C37.9173 11.8807 37.9493 11.8386 37.9653 11.8173C37.9641 11.7646 37.9617 11.6591 37.9605 11.6064C37.9765 11.585 38.0085 11.5424 38.0245 11.5216C38.0233 11.4689 38.021 11.3634 38.0198 11.3107C38.0346 11.2894 38.0642 11.2473 38.079 11.2266C38.0696 11.0689 38.1324 10.9226 38.1543 10.7691C38.1851 10.6873 38.2135 10.6044 38.2485 10.5238C38.2521 10.4936 38.2598 10.432 38.2633 10.4011C38.2906 10.3745 38.3457 10.3211 38.3729 10.2945C38.3569 10.1191 38.4725 9.97747 38.5163 9.81571C38.5874 9.58461 38.6947 9.36656 38.7788 9.14021C38.7931 8.982 38.8328 8.82794 38.9003 8.68454C38.9068 8.62884 38.9139 8.57374 38.9216 8.51804C39.0449 8.22828 39.1012 7.91305 39.2463 7.63218C39.3263 7.4722 39.3654 7.29266 39.468 7.14334C39.6854 6.81447 39.8579 6.45539 40.0919 6.13838C40.0931 6.10757 40.0961 6.04595 40.0978 6.01513C40.1387 5.97839 40.1802 5.94225 40.2223 5.90611C40.0759 5.76271 39.9218 5.62643 39.7879 5.47059C39.6516 5.28334 39.5402 5.07773 39.3933 4.8976C39.388 4.86916 39.3773 4.81109 39.372 4.78205C39.2748 4.52607 39.1883 4.25647 39.2061 3.97916C39.2066 3.81858 39.2055 3.6574 39.212 3.49683C39.2594 3.39372 39.273 3.27995 39.308 3.17211C39.3477 3.03227 39.4259 2.90547 39.4591 2.76326C39.6528 2.50965 39.7962 2.22286 39.9651 1.95325C40.1174 1.78912 40.2756 1.62913 40.4415 1.47862C40.6809 1.32101 40.9096 1.1308 41.1929 1.05555ZM42.074 1.04014C41.7196 1.07629 41.37 1.16872 41.0477 1.3216C40.6762 1.49818 40.3692 1.78912 40.1334 2.12272C39.9361 2.40418 39.7192 2.6803 39.6001 3.00679C39.3809 3.58215 39.3613 4.24876 39.6149 4.81701C39.7571 5.14469 40.0078 5.406 40.2495 5.66316C40.4154 5.83441 40.5245 6.05957 40.7253 6.19764C40.9481 6.35111 41.2006 6.47495 41.4713 6.51109C41.7469 6.54605 42.0325 6.4234 42.2037 6.20534C42.5136 5.80715 42.7821 5.3663 43.1731 5.03862C43.3515 4.89345 43.5452 4.75302 43.774 4.70028C44.0382 4.63332 44.3256 4.61969 44.5615 4.46978C44.754 4.35305 44.8696 4.13855 44.8951 3.91872C44.9336 3.61119 44.9253 3.29773 44.882 2.99139C44.8429 2.70223 44.6468 2.47469 44.5224 2.21989C44.36 1.88748 44.0951 1.6078 43.7722 1.42766C43.2608 1.13791 42.6612 0.993923 42.074 1.04014ZM54.2809 1.04192C53.8383 1.08458 53.4052 1.22442 53.0176 1.4407C52.6823 1.63209 52.4429 1.94614 52.2651 2.28152C52.13 2.51498 51.96 2.74133 51.9285 3.01746C51.8829 3.35521 51.8628 3.70659 51.9469 4.0396C52.0044 4.26772 52.1827 4.44963 52.399 4.53674C52.7184 4.67421 53.0941 4.64873 53.3892 4.8496C53.8247 5.13758 54.153 5.55651 54.4445 5.98314C54.5974 6.20475 54.787 6.43228 55.0625 6.49391C55.4222 6.57686 55.7759 6.3991 56.0752 6.21719C56.3116 6.07676 56.4307 5.819 56.6156 5.62583C56.8478 5.37756 57.0683 5.11091 57.2152 4.80161C57.518 4.13796 57.4392 3.33269 57.0754 2.70874C56.8686 2.35322 56.6517 1.99236 56.346 1.71209C55.7901 1.21613 55.0198 0.979109 54.2809 1.04192ZM43.9677 7.84728C43.5719 7.92194 43.217 8.13347 42.9059 8.38234C42.4864 8.72602 42.138 9.16746 41.9436 9.67705C41.7433 10.2358 41.6876 10.8532 41.8257 11.4339C41.9015 11.7539 42.0165 12.0768 42.2393 12.3257C42.4716 12.5935 42.8188 12.7648 43.1761 12.7618C43.6051 12.7636 44.011 12.5728 44.3481 12.3204C44.9431 11.8695 45.4183 11.2828 45.8414 10.6731C46.0108 10.4082 46.1992 10.1132 46.1631 9.78489C46.1216 9.3476 45.9338 8.93637 45.6938 8.57374C45.3252 8.02445 44.6231 7.69914 43.9677 7.84728ZM52.2047 7.84965C51.4812 8.00015 50.9917 8.65017 50.7689 9.31797C50.6907 9.57928 50.6078 9.86844 50.7085 10.1357C50.8353 10.474 51.0593 10.7632 51.2744 11.0494C51.7188 11.6425 52.2337 12.2137 52.895 12.5681C53.3892 12.8353 54.0593 12.8454 54.486 12.4442C54.9831 11.9607 55.1295 11.2248 55.085 10.5552C55.0554 9.84889 54.7372 9.17398 54.2448 8.67269C53.7388 8.11629 52.9756 7.68848 52.2047 7.84965ZM38.4227 10.7134C37.8865 12.5941 37.8888 14.623 38.4174 16.5055C38.7486 17.4951 39.129 18.4811 39.7198 19.3485C40.0569 19.8332 40.4119 20.3085 40.8219 20.7351C41.9128 21.8894 43.3106 22.742 44.821 23.2261C44.8767 22.7521 44.9022 22.2307 45.2186 21.8449C45.6174 21.3253 46.2218 21.0355 46.793 20.7487C47.0264 20.6367 47.2338 20.4809 47.4448 20.3322C47.6842 20.1621 47.9834 20.11 48.272 20.1028C48.5759 20.0963 48.8912 20.0928 49.1815 20.1994C49.412 20.2824 49.5927 20.4542 49.7978 20.5834C50.2629 20.8743 50.7861 21.0705 51.2181 21.4153C51.461 21.6073 51.6868 21.836 51.8213 22.1193C51.9724 22.4517 51.9931 22.8226 52.0376 23.1799C52.2331 23.1438 52.4245 23.0851 52.607 23.0045C53.0005 22.8339 53.4004 22.6739 53.772 22.4576C54.3686 22.1015 54.9535 21.7181 55.4625 21.2417C56.0787 20.7072 56.6067 20.0768 57.0617 19.4013C57.5032 18.7933 57.8161 18.1054 58.094 17.4109C58.2415 17.0453 58.3333 16.6608 58.4554 16.2869C58.6107 15.8116 58.6829 15.3151 58.741 14.8203C58.8886 13.6169 58.808 12.3862 58.5153 11.2094C58.3683 10.7507 58.2522 10.2797 58.062 9.83585C58.024 10.5273 57.9719 11.2236 57.7847 11.8938C57.6466 12.3826 57.4795 12.8792 57.1631 13.285C56.8277 13.6969 56.4633 14.0873 56.0479 14.4198C55.44 14.8754 54.7751 15.2464 54.1162 15.6226C53.3595 16.0427 52.5318 16.3295 51.8124 16.8178C51.5683 16.9878 51.355 17.1988 51.1049 17.36C50.6925 17.6331 50.2131 17.7807 49.7338 17.8832C49.2147 17.9969 48.6808 17.949 48.1546 17.9602C47.4246 17.9762 46.6845 17.8174 46.0399 17.4714C45.6351 17.2592 45.3306 16.9049 44.9359 16.6768C44.2522 16.2679 43.499 15.9947 42.8058 15.6031C42.148 15.2238 41.4808 14.8547 40.8741 14.3955C40.4468 14.037 40.0581 13.6305 39.7233 13.1843C39.5379 12.9307 39.4146 12.6386 39.3133 12.3429C39.1118 11.745 38.985 11.1229 38.9228 10.4954C38.8896 10.1736 38.905 9.84948 38.8837 9.52654C38.6668 9.89451 38.5762 10.3182 38.4227 10.7134ZM46.6804 13.2927C46.6354 13.5398 46.7236 13.8231 46.9322 13.9724C47.2386 14.1496 47.6006 14.1934 47.9158 14.3498C48.0877 14.45 48.2311 14.591 48.3911 14.7089C48.5451 14.5863 48.6773 14.434 48.8497 14.3362C49.146 14.1993 49.479 14.1585 49.7699 14.0068C50.0158 13.8782 50.1325 13.5701 50.0816 13.3052C50.0537 13.1553 49.9056 13.051 49.7563 13.0682C49.4067 13.0818 49.0577 13.1097 48.7087 13.128C48.1469 13.179 47.587 13.0859 47.027 13.0664C46.8777 13.0504 46.7136 13.1411 46.6804 13.2927ZM47.4637 16.0854C47.462 16.1221 47.459 16.1956 47.4578 16.2324C47.731 16.368 47.9941 16.5221 48.2607 16.6702C48.368 16.739 48.4882 16.6661 48.5884 16.6193C48.8207 16.4943 49.0583 16.3775 49.2846 16.2401C49.2769 16.2015 49.2621 16.1233 49.255 16.0848C48.9842 16.0783 48.7181 16.134 48.4491 16.1447C48.1185 16.1589 47.7938 16.0765 47.4637 16.0854Z" fill="white"/>
<path d="M44.3228 9.15445C44.587 9.10349 44.8922 9.16096 45.0753 9.37132C45.1665 9.47027 45.2199 9.62196 45.1529 9.74877C45.0445 9.97275 44.808 10.1049 44.577 10.1689C44.302 10.2441 44.0123 10.1043 43.8392 9.89216C43.7551 9.78847 43.7551 9.63678 43.7978 9.5159C43.9044 9.32273 44.1112 9.19948 44.3228 9.15445Z" fill="white"/>
<path d="M52.1443 9.15621C52.4376 9.09517 52.7771 9.17695 52.9709 9.41574C53.0787 9.54551 53.0947 9.74283 52.9975 9.88326C52.8393 10.1102 52.5389 10.2447 52.2663 10.1683C52.0844 10.1185 51.9102 10.0272 51.7793 9.89155C51.656 9.76416 51.6282 9.54551 51.7396 9.4027C51.8421 9.27886 51.9884 9.19294 52.1443 9.15621Z" fill="white"/>
<path d="M42.074 1.04018C42.6612 0.993963 43.2609 1.13795 43.7722 1.42771C44.0952 1.60784 44.3601 1.88752 44.5224 2.21994C44.6468 2.47473 44.843 2.70227 44.8821 2.99143C44.9253 3.29777 44.9336 3.61123 44.8951 3.91876C44.8696 4.13859 44.7541 4.35309 44.5615 4.46982C44.3257 4.61973 44.0383 4.63336 43.774 4.70032C43.5453 4.75306 43.3515 4.89349 43.1732 5.03866C42.7821 5.36634 42.5137 5.80719 42.2038 6.20538C42.0325 6.42344 41.7469 6.54609 41.4714 6.51113C41.2006 6.47499 40.9482 6.35115 40.7254 6.19768C40.5245 6.05961 40.4155 5.83445 40.2496 5.6632C40.0078 5.40604 39.7572 5.14473 39.615 4.81705C39.3614 4.2488 39.3809 3.58219 39.6002 3.00683C39.7193 2.68034 39.9361 2.40422 40.1334 2.12276C40.3693 1.78916 40.6762 1.49822 41.0477 1.32164C41.3701 1.16876 41.7197 1.07633 42.074 1.04018Z" fill="#AAAAAA"/>
<path d="M54.281 1.04196C55.0199 0.97915 55.7902 1.21617 56.346 1.71213C56.6518 1.9924 56.8686 2.35326 57.0754 2.70878C57.4393 3.33273 57.5181 4.138 57.2153 4.80165C57.0683 5.11095 56.8479 5.3776 56.6156 5.62587C56.4308 5.81904 56.3117 6.0768 56.0752 6.21723C55.776 6.39914 55.4222 6.5769 55.0626 6.49395C54.787 6.43232 54.5974 6.20479 54.4445 5.98318C54.153 5.55655 53.8247 5.13762 53.3892 4.84964C53.0941 4.64877 52.7185 4.67425 52.3991 4.53678C52.1828 4.44968 52.0045 4.26776 51.947 4.03964C51.8628 3.70663 51.883 3.35525 51.9286 3.0175C51.96 2.74137 52.1301 2.51502 52.2652 2.28156C52.4429 1.94618 52.6823 1.63213 53.0177 1.44074C53.4052 1.22446 53.8384 1.08462 54.281 1.04196Z" fill="#AAAAAA"/>
<path d="M43.9678 7.84731C44.6231 7.69917 45.3253 8.02448 45.6938 8.57376C45.9338 8.9364 46.1217 9.34763 46.1631 9.78492C46.1993 10.1132 46.0108 10.4083 45.8414 10.6731C45.4183 11.2829 44.9431 11.8695 44.3482 12.3204C44.011 12.5728 43.6051 12.7636 43.1761 12.7619C42.8188 12.7648 42.4716 12.5936 42.2393 12.3257C42.0165 12.0769 41.9016 11.7539 41.8257 11.434C41.6877 10.8533 41.7433 10.2358 41.9436 9.67708C42.138 9.16749 42.4864 8.72605 42.9059 8.38237C43.217 8.1335 43.5719 7.92197 43.9678 7.84731ZM44.3227 9.15446C44.1112 9.19949 43.9044 9.32274 43.7977 9.51591C43.755 9.63679 43.755 9.78848 43.8392 9.89217C44.0122 10.1043 44.302 10.2441 44.5769 10.1689C44.808 10.1049 45.0444 9.97276 45.1528 9.74878C45.2198 9.62197 45.1665 9.47028 45.0752 9.37133C44.8921 9.16097 44.587 9.1035 44.3227 9.15446Z" fill="#AAAAAA"/>
<path d="M52.2047 7.84967C52.9756 7.6885 53.7388 8.11631 54.2449 8.67271C54.7373 9.174 55.0555 9.84891 55.0851 10.5552C55.1295 11.2248 54.9832 11.9607 54.486 12.4442C54.0594 12.8454 53.3892 12.8353 52.895 12.5681C52.2338 12.2138 51.7189 11.6425 51.2744 11.0494C51.0594 10.7632 50.8354 10.474 50.7086 10.1357C50.6078 9.86846 50.6908 9.5793 50.769 9.31799C50.9918 8.6502 51.4812 8.00018 52.2047 7.84967ZM52.1443 9.15623C51.9885 9.19297 51.8421 9.27888 51.7396 9.40273C51.6282 9.54553 51.656 9.76418 51.7793 9.89157C51.9102 10.0273 52.0845 10.1185 52.2664 10.1683C52.5389 10.2447 52.8393 10.1102 52.9976 9.88328C53.0947 9.74285 53.0787 9.54553 52.9709 9.41576C52.7771 9.17697 52.4376 9.0952 52.1443 9.15623Z" fill="#AAAAAA"/>
<path d="M38.4228 10.7135C38.5762 10.3182 38.6669 9.89458 38.8837 9.52661C38.9051 9.84955 38.8897 10.1737 38.9229 10.4954C38.9851 11.1229 39.1119 11.7451 39.3133 12.343C39.4147 12.6386 39.5379 12.9308 39.7234 13.1844C40.0582 13.6306 40.4469 14.0371 40.8741 14.3955C41.4809 14.8548 42.1481 15.2239 42.8058 15.6031C43.4991 15.9948 44.2522 16.268 44.936 16.6768C45.3306 16.905 45.6352 17.2593 46.0399 17.4714C46.6846 17.8175 47.4247 17.9763 48.1547 17.9603C48.6809 17.949 49.2147 17.997 49.7338 17.8832C50.2132 17.7807 50.6925 17.6332 51.1049 17.36C51.355 17.1989 51.5683 16.9879 51.8124 16.8179C52.5318 16.3296 53.3596 16.0428 54.1163 15.6227C54.7752 15.2464 55.44 14.8755 56.0479 14.4198C56.4633 14.0874 56.8277 13.6969 57.1631 13.2851C57.4795 12.8792 57.6466 12.3827 57.7847 11.8938C57.9719 11.2237 58.0241 10.5274 58.062 9.83592C58.2522 10.2797 58.3683 10.7508 58.5153 11.2094C58.808 12.3862 58.8886 13.6169 58.7411 14.8204C58.683 15.3152 58.6107 15.8117 58.4554 16.2869C58.3334 16.6608 58.2415 17.0454 58.094 17.411C57.8161 18.1055 57.5032 18.7934 57.0618 19.4013C56.6067 20.0768 56.0788 20.7073 55.4625 21.2418C54.9535 21.7182 54.3687 22.1016 53.772 22.4577C53.4005 22.674 53.0005 22.8339 52.607 23.0046C52.4245 23.0852 52.2332 23.1438 52.0376 23.18C51.9932 22.8227 51.9724 22.4518 51.8213 22.1193C51.6868 21.8361 51.4611 21.6074 51.2181 21.4154C50.7862 21.0705 50.2629 20.8744 49.7978 20.5835C49.5928 20.4543 49.4121 20.2825 49.1816 20.1995C48.8912 20.0928 48.576 20.0964 48.272 20.1029C47.9834 20.11 47.6842 20.1622 47.4448 20.3322C47.2339 20.481 47.0265 20.6368 46.793 20.7488C46.2218 21.0356 45.6174 21.3253 45.2186 21.845C44.9022 22.2307 44.8767 22.7522 44.821 23.2262C43.3106 22.7421 41.9128 21.8894 40.822 20.7352C40.4119 20.3085 40.057 19.8333 39.7198 19.3486C39.1291 18.4811 38.7486 17.4951 38.4174 16.5056C37.8889 14.6231 37.8865 12.5942 38.4228 10.7135Z" fill="#AAAAAA"/>
<path d="M46.6804 13.2927C46.7136 13.1411 46.8777 13.0504 47.0271 13.0664C47.587 13.0859 48.147 13.179 48.7087 13.128C49.0577 13.1097 49.4067 13.0818 49.7563 13.0682C49.9056 13.051 50.0538 13.1553 50.0816 13.3052C50.1326 13.5701 50.0158 13.8782 49.7699 14.0068C49.479 14.1585 49.146 14.1993 48.8497 14.3362C48.6773 14.434 48.5452 14.5863 48.3911 14.7089C48.2311 14.591 48.0877 14.45 47.9159 14.3498C47.6006 14.1934 47.2386 14.1496 46.9322 13.9724C46.7237 13.8231 46.6354 13.5398 46.6804 13.2927Z" fill="#AAAAAA"/>
<path d="M47.4638 16.0854C47.7938 16.0765 48.1185 16.1589 48.4492 16.1447C48.7182 16.134 48.9842 16.0783 49.255 16.0848C49.2622 16.1233 49.277 16.2016 49.2847 16.2401C49.0583 16.3775 48.8207 16.4943 48.5884 16.6193C48.4883 16.6661 48.368 16.739 48.2608 16.6703C47.9941 16.5221 47.731 16.3681 47.4579 16.2324C47.459 16.1956 47.462 16.1221 47.4638 16.0854Z" fill="#AAAAAA"/>
<path d="M8.08906 27.7354L9.78536 24.7925C9.88313 24.6328 10.0249 24.553 10.2107 24.553C10.3964 24.553 10.5382 24.6328 10.636 24.7925L12.3323 27.7354C12.3714 27.8038 12.3909 27.8836 12.3909 27.9749C12.3909 28.1085 12.342 28.2242 12.2443 28.322C12.1498 28.4165 12.0357 28.4637 11.9021 28.4637C11.7098 28.4637 11.5631 28.3741 11.4621 28.1949L11.1981 27.7305H9.22318L8.95432 28.1949C8.85329 28.3741 8.70826 28.4637 8.51924 28.4637C8.38562 28.4637 8.26993 28.4165 8.17216 28.322C8.07765 28.2242 8.0304 28.1085 8.0304 27.9749C8.0304 27.8902 8.04995 27.8103 8.08906 27.7354ZM10.6311 26.7528L10.2107 26.0195L9.78536 26.7528H10.6311ZM15.6677 27.9749V25.0418C15.6677 24.9082 15.7149 24.7941 15.8095 24.6996C15.9072 24.6018 16.0229 24.553 16.1565 24.553H17.6231C17.9946 24.553 18.3107 24.6849 18.5714 24.9489C18.8354 25.2064 18.9674 25.5225 18.9674 25.8973C18.9674 26.1287 18.912 26.3438 18.8012 26.5426C18.6904 26.7414 18.5389 26.9043 18.3466 27.0314L18.9479 27.6278C19.0424 27.7321 19.0896 27.8478 19.0896 27.9749C19.0896 28.1085 19.0407 28.2242 18.943 28.322C18.8485 28.4165 18.7344 28.4637 18.6008 28.4637C18.4639 28.4637 18.3482 28.4165 18.2537 28.322L17.1733 27.2416H16.6454V27.9749C16.6454 28.1085 16.5965 28.2242 16.4987 28.322C16.4042 28.4165 16.2902 28.4637 16.1565 28.4637C16.0229 28.4637 15.9072 28.4165 15.8095 28.322C15.7149 28.2242 15.6677 28.1085 15.6677 27.9749ZM17.6377 25.5307H16.6454V26.2639H17.6231C17.7241 26.2639 17.8105 26.2281 17.8822 26.1564C17.9539 26.0847 17.9897 25.9983 17.9897 25.8973C17.9897 25.7995 17.9555 25.7164 17.8871 25.648C17.8186 25.5763 17.7355 25.5372 17.6377 25.5307ZM24.8675 27.1976C24.962 27.1031 25.0777 27.0559 25.2146 27.0559C25.3482 27.0559 25.4623 27.1047 25.5568 27.2025C25.6546 27.297 25.7034 27.4111 25.7034 27.5447C25.7034 27.6816 25.6562 27.7973 25.5617 27.8918C25.1804 28.2731 24.7192 28.4637 24.1782 28.4637C23.6372 28.4637 23.1761 28.2731 22.7948 27.8918C22.4135 27.5105 22.2228 27.0493 22.2228 26.5084C22.2228 25.9674 22.4135 25.5062 22.7948 25.1249C23.1761 24.7436 23.6372 24.553 24.1782 24.553C24.7127 24.553 25.1739 24.7436 25.5617 25.1249C25.6562 25.2292 25.7034 25.3449 25.7034 25.472C25.7034 25.6056 25.6546 25.7213 25.5568 25.8191C25.4623 25.9136 25.3482 25.9608 25.2146 25.9608C25.0777 25.9608 24.962 25.9136 24.8675 25.8191C24.6752 25.6268 24.4455 25.5307 24.1782 25.5307C23.911 25.5307 23.6812 25.6268 23.489 25.8191C23.2967 26.0114 23.2005 26.2411 23.2005 26.5084C23.2005 26.7756 23.2967 27.0053 23.489 27.1976C23.6812 27.3899 23.911 27.486 24.1782 27.486C24.4455 27.486 24.6752 27.3899 24.8675 27.1976ZM28.8915 27.7354L30.5878 24.7925C30.6855 24.6328 30.8273 24.553 31.0131 24.553C31.1988 24.553 31.3406 24.6328 31.4384 24.7925L33.1347 27.7354C33.1738 27.8038 33.1933 27.8836 33.1933 27.9749C33.1933 28.1085 33.1444 28.2242 33.0467 28.322C32.9522 28.4165 32.8381 28.4637 32.7045 28.4637C32.5122 28.4637 32.3655 28.3741 32.2645 28.1949L32.0005 27.7305H30.0256L29.7567 28.1949C29.6557 28.3741 29.5107 28.4637 29.3216 28.4637C29.188 28.4637 29.0723 28.4165 28.9746 28.322C28.88 28.2242 28.8328 28.1085 28.8328 27.9749C28.8328 27.8902 28.8523 27.8103 28.8915 27.7354ZM31.4335 26.7528L31.0131 26.0195L30.5878 26.7528H31.4335ZM36.4701 27.9749V25.0418C36.4701 24.9082 36.5173 24.7941 36.6119 24.6996C36.7096 24.6018 36.8253 24.553 36.9589 24.553H38.2006C38.7383 24.5595 39.1946 24.7534 39.5694 25.1347C39.9474 25.5193 40.1364 25.9771 40.1364 26.5084C40.1364 27.0493 39.9458 27.5105 39.5645 27.8918C39.1832 28.2731 38.722 28.4637 38.1811 28.4637H36.9589C36.8253 28.4637 36.7096 28.4165 36.6119 28.322C36.5173 28.2242 36.4701 28.1085 36.4701 27.9749ZM38.1811 25.5307H37.4478V27.486H38.2006C38.4646 27.4795 38.6895 27.3818 38.8752 27.1927C39.0642 27.0037 39.1588 26.7756 39.1588 26.5084C39.1588 26.2411 39.0626 26.0114 38.8703 25.8191C38.6781 25.6268 38.4483 25.5307 38.1811 25.5307ZM43.2626 27.9749V25.0418C43.2626 24.9082 43.3098 24.7941 43.4044 24.6996C43.5021 24.6018 43.6178 24.553 43.7514 24.553C43.8851 24.553 43.9991 24.6018 44.0936 24.6996C44.1914 24.7941 44.2403 24.9082 44.2403 25.0418V27.9749C44.2403 28.1085 44.1914 28.2242 44.0936 28.322C43.9991 28.4165 43.8851 28.4637 43.7514 28.4637C43.6178 28.4637 43.5021 28.4165 43.4044 28.322C43.3098 28.2242 43.2626 28.1085 43.2626 27.9749ZM47.5742 27.7354L49.2705 24.7925C49.3683 24.6328 49.5101 24.553 49.6958 24.553C49.8816 24.553 50.0234 24.6328 50.1211 24.7925L51.8174 27.7354C51.8565 27.8038 51.8761 27.8836 51.8761 27.9749C51.8761 28.1085 51.8272 28.2242 51.7294 28.322C51.6349 28.4165 51.5209 28.4637 51.3872 28.4637C51.195 28.4637 51.0483 28.3741 50.9473 28.1949L50.6833 27.7305H48.7084L48.4395 28.1949C48.3385 28.3741 48.1934 28.4637 48.0044 28.4637C47.8708 28.4637 47.7551 28.4165 47.6573 28.322C47.5628 28.2242 47.5156 28.1085 47.5156 27.9749C47.5156 27.8902 47.5351 27.8103 47.5742 27.7354ZM50.1162 26.7528L49.6958 26.0195L49.2705 26.7528H50.1162Z" fill="white"/>
<path d="M6.64484 30.3949L53.2631 30.1748" stroke="white" stroke-width="0.222204" stroke-linecap="round"/>
<path d="M23.0339 33.106H22.3406C22.2932 33.106 22.2522 33.0892 22.2176 33.0557C22.1841 33.021 22.1673 32.98 22.1673 32.9326V31.8927C22.1673 31.8454 22.1841 31.8049 22.2176 31.7714C22.2522 31.7367 22.2932 31.7194 22.3406 31.7194H23.0408C23.1587 31.7217 23.2592 31.765 23.3424 31.8494C23.4256 31.9337 23.4672 32.0348 23.4672 32.1527C23.4672 32.2475 23.4383 32.3341 23.3805 32.4127C23.4383 32.4913 23.4672 32.5779 23.4672 32.6727C23.4672 32.7928 23.425 32.8951 23.3407 32.9794C23.2563 33.0638 23.1541 33.106 23.0339 33.106ZM23.0339 32.066H22.5139V32.2394H23.0339C23.0582 32.2394 23.0784 32.2313 23.0946 32.2151C23.1119 32.1978 23.1206 32.177 23.1206 32.1527C23.1206 32.1284 23.1119 32.1082 23.0946 32.092C23.0784 32.0747 23.0582 32.066 23.0339 32.066ZM23.0408 32.586H22.5139V32.7593H23.0339C23.0582 32.7593 23.0784 32.7512 23.0946 32.7351C23.1119 32.7177 23.1206 32.6969 23.1206 32.6727C23.1206 32.6496 23.1125 32.6299 23.0963 32.6137C23.0813 32.5964 23.0628 32.5872 23.0408 32.586ZM24.2649 32.9326V31.8927C24.2649 31.8454 24.2817 31.8049 24.3152 31.7714C24.3499 31.7367 24.3909 31.7194 24.4383 31.7194H24.9582C25.0899 31.7194 25.202 31.7662 25.2944 31.8598C25.388 31.9511 25.4348 32.0632 25.4348 32.196C25.4348 32.2781 25.4152 32.3543 25.3759 32.4248C25.3366 32.4953 25.2829 32.5531 25.2147 32.5981L25.4279 32.8096C25.4614 32.8466 25.4782 32.8876 25.4782 32.9326C25.4782 32.98 25.4608 33.021 25.4262 33.0557C25.3927 33.0892 25.3522 33.106 25.3048 33.106C25.2563 33.106 25.2153 33.0892 25.1818 33.0557L24.7988 32.6727H24.6116V32.9326C24.6116 32.98 24.5942 33.021 24.5596 33.0557C24.5261 33.0892 24.4856 33.106 24.4383 33.106C24.3909 33.106 24.3499 33.0892 24.3152 33.0557C24.2817 33.021 24.2649 32.98 24.2649 32.9326ZM24.9634 32.066H24.6116V32.326H24.9582C24.994 32.326 25.0246 32.3133 25.0501 32.2879C25.0755 32.2625 25.0882 32.2319 25.0882 32.196C25.0882 32.1614 25.0761 32.1319 25.0518 32.1076C25.0275 32.0822 24.9981 32.0684 24.9634 32.066ZM26.2762 32.9326V31.8927C26.2762 31.8454 26.293 31.8049 26.3265 31.7714C26.3612 31.7367 26.4022 31.7194 26.4496 31.7194H27.3162C27.3635 31.7194 27.404 31.7367 27.4375 31.7714C27.4721 31.8049 27.4895 31.8454 27.4895 31.8927C27.4895 31.9401 27.4721 31.9811 27.4375 32.0158C27.404 32.0493 27.3635 32.066 27.3162 32.066H26.6229V32.2394H27.1428C27.1902 32.2394 27.2307 32.2567 27.2642 32.2914C27.2988 32.3249 27.3162 32.3653 27.3162 32.4127C27.3162 32.4601 27.2988 32.5011 27.2642 32.5357C27.2307 32.5692 27.1902 32.586 27.1428 32.586H26.6229V32.7593H27.3162C27.3635 32.7593 27.404 32.7767 27.4375 32.8113C27.4721 32.8448 27.4895 32.8853 27.4895 32.9326C27.4895 32.98 27.4721 33.021 27.4375 33.0557C27.404 33.0892 27.3635 33.106 27.3162 33.106H26.4496C26.4022 33.106 26.3612 33.0892 26.3265 33.0557C26.293 33.021 26.2762 32.98 26.2762 32.9326ZM28.7382 32.9326V32.066H28.3915C28.3442 32.066 28.3032 32.0493 28.2685 32.0158C28.235 31.9811 28.2182 31.9401 28.2182 31.8927C28.2182 31.8454 28.235 31.8049 28.2685 31.7714C28.3032 31.7367 28.3442 31.7194 28.3915 31.7194H29.4315C29.4788 31.7194 29.5193 31.7367 29.5528 31.7714C29.5874 31.8049 29.6048 31.8454 29.6048 31.8927C29.6048 31.9401 29.5874 31.9811 29.5528 32.0158C29.5193 32.0493 29.4788 32.066 29.4315 32.066H29.0848V32.9326C29.0848 32.98 29.0675 33.021 29.0328 33.0557C28.9993 33.0892 28.9589 33.106 28.9115 33.106C28.8641 33.106 28.8231 33.0892 28.7884 33.0557C28.7549 33.021 28.7382 32.98 28.7382 32.9326ZM30.1623 32.8477L30.7637 31.8043C30.7984 31.7477 30.8487 31.7194 30.9145 31.7194C30.9804 31.7194 31.0307 31.7477 31.0653 31.8043L31.6667 32.8477C31.6806 32.872 31.6875 32.9003 31.6875 32.9326C31.6875 32.98 31.6702 33.021 31.6355 33.0557C31.602 33.0892 31.5616 33.106 31.5142 33.106C31.446 33.106 31.394 33.0742 31.3582 33.0106L31.2646 32.846H30.5644L30.4691 33.0106C30.4333 33.0742 30.3819 33.106 30.3148 33.106C30.2675 33.106 30.2265 33.0892 30.1918 33.0557C30.1583 33.021 30.1415 32.98 30.1415 32.9326C30.1415 32.9026 30.1485 32.8743 30.1623 32.8477ZM31.0636 32.4993L30.9145 32.2394L30.7637 32.4993H31.0636ZM33.0225 32.7593C33.0919 32.7593 33.1566 32.7391 33.2167 32.6987V32.6068H33.0433C32.996 32.6068 32.955 32.59 32.9203 32.5565C32.8868 32.5219 32.87 32.4809 32.87 32.4335C32.87 32.3861 32.8868 32.3457 32.9203 32.3122C32.955 32.2775 32.996 32.2602 33.0433 32.2602H33.39C33.4374 32.2602 33.4778 32.2775 33.5113 32.3122C33.546 32.3457 33.5633 32.3861 33.5633 32.4335V32.7801C33.5633 32.8286 33.546 32.8697 33.5113 32.9032H33.513C33.3778 33.0384 33.2144 33.106 33.0225 33.106C32.8307 33.106 32.6672 33.0384 32.5321 32.9032C32.3969 32.768 32.3293 32.6045 32.3293 32.4127C32.3293 32.2209 32.3969 32.0574 32.5321 31.9222C32.6672 31.787 32.8307 31.7194 33.0225 31.7194C33.212 31.7194 33.3755 31.787 33.513 31.9222C33.5465 31.9592 33.5633 32.0002 33.5633 32.0452C33.5633 32.0926 33.546 32.1336 33.5113 32.1683C33.4778 32.2018 33.4374 32.2186 33.39 32.2186C33.3415 32.2186 33.3004 32.2018 33.2669 32.1683C33.1988 32.1001 33.1173 32.066 33.0225 32.066C32.9278 32.066 32.8463 32.1001 32.7782 32.1683C32.71 32.2365 32.6759 32.3179 32.6759 32.4127C32.6759 32.5074 32.71 32.5889 32.7782 32.6571C32.8463 32.7252 32.9278 32.7593 33.0225 32.7593ZM34.3435 32.9326V31.8927C34.3435 31.8454 34.3602 31.8049 34.3938 31.7714C34.4284 31.7367 34.4694 31.7194 34.5168 31.7194C34.5619 31.7194 34.6029 31.7362 34.6399 31.7697L35.3834 32.5132V31.8927C35.3834 31.8454 35.4002 31.8049 35.4337 31.7714C35.4683 31.7367 35.5094 31.7194 35.5567 31.7194C35.6041 31.7194 35.6445 31.7367 35.678 31.7714C35.7127 31.8049 35.73 31.8454 35.73 31.8927V32.9326C35.73 32.98 35.7127 33.021 35.678 33.0557C35.6445 33.0892 35.6041 33.106 35.5567 33.106C35.5082 33.106 35.4672 33.0892 35.4337 33.0557L34.6901 32.3122V32.9326C34.6901 32.98 34.6728 33.021 34.6381 33.0557C34.6046 33.0892 34.5642 33.106 34.5168 33.106C34.4694 33.106 34.4284 33.0892 34.3938 33.0557C34.3602 33.021 34.3435 32.98 34.3435 32.9326ZM36.5613 32.9326V31.8927C36.5613 31.8454 36.5781 31.8049 36.6116 31.7714C36.6462 31.7367 36.6872 31.7194 36.7346 31.7194H37.6012C37.6486 31.7194 37.689 31.7367 37.7225 31.7714C37.7572 31.8049 37.7745 31.8454 37.7745 31.8927C37.7745 31.9401 37.7572 31.9811 37.7225 32.0158C37.689 32.0493 37.6486 32.066 37.6012 32.066H36.9079V32.2394H37.4279C37.4753 32.2394 37.5157 32.2567 37.5492 32.2914C37.5839 32.3249 37.6012 32.3653 37.6012 32.4127C37.6012 32.4601 37.5839 32.5011 37.5492 32.5357C37.5157 32.5692 37.4753 32.586 37.4279 32.586H36.9079V32.7593H37.6012C37.6486 32.7593 37.689 32.7767 37.7225 32.8113C37.7572 32.8448 37.7745 32.8853 37.7745 32.9326C37.7745 32.98 37.7572 33.021 37.7225 33.0557C37.689 33.0892 37.6486 33.106 37.6012 33.106H36.7346C36.6872 33.106 36.6462 33.0892 36.6116 33.0557C36.5781 33.021 36.5613 32.98 36.5613 32.9326Z" fill="white"/>
</svg>
