<svg width="186" height="102" viewBox="0 0 186 102" fill="none" xmlns="http://www.w3.org/2000/svg">
<path d="M79.5126 6.9646H85.6511C86.1066 7.0523 86.5636 7.14141 87.0276 7.18243C89.3351 7.40874 91.6156 7.86845 93.841 8.51486C95.0817 8.84302 96.2616 9.35506 97.45 9.83173C97.9692 10.0425 98.4615 10.3169 98.9298 10.6238C99.6527 11.1033 100.452 11.4513 101.191 11.9068C102.235 12.5419 103.235 13.2449 104.225 13.9592C104.617 14.2392 104.933 14.6056 105.24 14.9719C104.27 15.1204 103.289 15.0639 102.312 15.0667C89.1087 15.0681 75.9036 15.0667 62.6998 15.0667C61.7392 15.0667 60.7772 15.1021 59.8209 15.003C60.7348 14.0497 61.8241 13.2958 62.9106 12.556C63.5416 12.1274 64.2122 11.7625 64.8842 11.4032C65.767 10.935 66.572 10.3282 67.4788 9.90246C68.8129 9.2716 70.2376 8.87272 71.6367 8.41726C72.1899 8.23479 72.7515 8.08345 73.3231 7.97029C74.9571 7.64779 76.5883 7.27013 78.2549 7.16545C78.6793 7.13434 79.0952 7.04805 79.5126 6.9646Z" fill="black"/>
<path d="M30.7382 8.48926C30.9674 8.49067 31.1966 8.49067 31.4258 8.49067C31.5474 8.8358 31.6719 9.18093 31.795 9.52607C31.5644 9.88251 31.3367 10.239 31.1075 10.5954C30.8599 10.2432 30.6194 9.88958 30.3789 9.53314C30.5005 9.18518 30.6208 8.83863 30.7382 8.48926Z" fill="black"/>
<path d="M42.8977 8.49072C43.1283 8.49072 43.3589 8.49072 43.5895 8.49072C43.7069 8.8401 43.8286 9.18664 43.9503 9.5346C43.7098 9.88822 43.4678 10.2404 43.2203 10.5884C42.9854 10.2291 42.752 9.86842 42.5186 9.50773C42.6459 9.16825 42.7718 8.8302 42.8977 8.49072Z" fill="black"/>
<path d="M18.5629 8.66626C18.8374 8.66767 19.1104 8.66767 19.3849 8.66767C19.4797 8.94774 19.5787 9.22922 19.6792 9.50928C19.4401 9.86856 19.201 10.2264 18.9591 10.5843C18.7101 10.2278 18.4639 9.86715 18.2206 9.50646C18.3352 9.22639 18.4498 8.94633 18.5629 8.66626Z" fill="black"/>
<path d="M6.18402 9.71991C6.47263 9.39317 6.81641 9.12017 7.19273 8.90234C7.24366 8.93771 7.34552 9.00843 7.39786 9.04379C7.61007 9.62514 7.14746 10.0933 6.83055 10.5205C6.61269 10.256 6.39906 9.98724 6.18402 9.71991Z" fill="black"/>
<path d="M6.83051 10.6253C7.18277 10.3636 7.54636 10.1189 7.91844 9.88696C8.48574 10.1161 9.05588 10.3382 9.60197 10.614C9.06013 10.8856 8.49565 11.1062 7.93117 11.3241C7.55626 11.102 7.18985 10.8686 6.83051 10.6253Z" fill="black"/>
<path d="M16.0207 10.5884C16.6389 10.3692 17.2501 10.1287 17.8542 9.86987C18.2192 10.0976 18.5616 10.3635 18.8275 10.7058C18.5007 10.9166 18.1711 11.1245 17.8386 11.3254C17.2232 11.1033 16.6177 10.8543 16.0207 10.5884Z" fill="black"/>
<path d="M19.0298 10.6224C19.3453 10.3508 19.6651 9.99297 20.105 9.95337C20.7063 10.0793 21.2538 10.3763 21.8296 10.5828C21.234 10.8671 20.6214 11.1161 19.9961 11.3268C19.6651 11.1047 19.3397 10.8728 19.0298 10.6224Z" fill="black"/>
<path d="M28.186 10.5884C28.8014 10.3663 29.4098 10.123 30.0167 9.87549C30.3506 10.1103 30.6802 10.3508 30.9985 10.6054C30.6845 10.8529 30.3902 11.1485 30.0096 11.2942C29.3688 11.1584 28.7887 10.8345 28.186 10.5884Z" fill="black"/>
<path d="M31.1966 10.6252C31.4852 10.3423 31.8092 10.0976 32.1487 9.87549C32.767 10.1004 33.3796 10.338 33.9907 10.5827C33.3895 10.867 32.7684 11.1061 32.1374 11.3168C31.8177 11.0948 31.5022 10.867 31.1966 10.6252Z" fill="black"/>
<path d="M40.408 10.6097C40.9753 10.3169 41.5737 10.0905 42.1792 9.88403C42.5145 10.1075 42.8371 10.3508 43.1285 10.6309C42.8229 10.8713 42.506 11.1005 42.1877 11.3254C41.5836 11.1132 40.9852 10.8841 40.408 10.6097Z" fill="black"/>
<path d="M43.3307 10.6238C43.6405 10.355 43.9702 10.1103 44.3097 9.88257C44.8926 10.1131 45.4768 10.338 46.0526 10.587C45.5037 10.901 44.9109 11.1216 44.3182 11.3324C43.9716 11.1202 43.6405 10.884 43.3307 10.6238Z" fill="black"/>
<path d="M5.97336 10.0525C6.24357 10.2406 6.51237 10.4316 6.77976 10.6239C6.41617 10.8686 6.04692 11.1063 5.66919 11.3298C5.75549 10.9012 5.83613 10.4698 5.97336 10.0525Z" fill="black"/>
<path d="M18.9308 10.72C19.3693 11.4569 19.6226 12.2815 19.9536 13.068C20.7246 14.928 21.4702 16.798 22.2526 18.6523C21.408 18.2633 20.5634 17.8715 19.6862 17.5604C19.433 18.0045 19.1953 18.4571 18.9548 18.9069C18.6874 18.4713 18.4512 18.0158 18.2262 17.5561C17.376 17.8546 16.5837 18.293 15.725 18.5689C15.8721 18.1148 16.0489 17.6693 16.2357 17.2294C17.151 15.0666 17.9914 12.8728 18.9308 10.72Z" fill="black"/>
<path d="M31.065 10.7214C31.4484 11.3721 31.6988 12.0864 31.986 12.7809C32.75 14.7145 33.6016 16.6127 34.3147 18.5661C33.4616 18.2662 32.6552 17.8532 31.7964 17.5689C31.5715 18.0442 31.3352 18.5138 31.0862 18.9777C30.8641 18.4982 30.6307 18.0244 30.393 17.5533C29.5343 17.8461 28.7236 18.2577 27.8705 18.5675C28.3176 17.2492 28.9288 15.996 29.4183 14.6933C29.9757 13.3736 30.4892 12.0341 31.065 10.7214Z" fill="black"/>
<path d="M42.138 13.3013C42.4945 12.4286 42.8086 11.5361 43.2584 10.7043C44.1016 12.5828 44.7665 14.5361 45.6536 16.3948C45.4442 16.904 45.2348 17.4132 45.0042 17.9125C44.6463 17.8022 44.2884 17.6848 43.9304 17.5716C43.7112 18.0087 43.489 18.4429 43.2627 18.8757C43.0024 18.4344 42.7562 17.986 42.5086 17.5391C41.6428 17.904 40.7742 18.2619 39.9253 18.6622C40.685 16.8856 41.3924 15.0864 42.138 13.3013Z" fill="black"/>
<path d="M4.55703 16.0483C5.36484 14.3113 5.93498 12.4725 6.81212 10.7681C7.02857 11.1839 7.22805 11.6097 7.40065 12.0453C8.28627 14.2533 9.21151 16.4443 10.0943 18.6537C9.24688 18.2549 8.38672 17.8814 7.51383 17.5448C7.27474 18.0271 7.03565 18.5095 6.79656 18.9918C6.58152 18.4982 6.35233 18.0087 6.11041 17.5264C5.42568 17.7994 4.74661 18.088 4.07178 18.3836C4.22174 17.6028 4.34765 16.8163 4.55703 16.0483Z" fill="black"/>
<path d="M12.8573 17.5774C13.1049 18.1927 13.3511 18.808 13.5902 19.4275C13.3624 19.7882 13.1261 20.1447 12.88 20.494C12.6296 20.1475 12.3947 19.791 12.1768 19.4233C12.4075 18.8094 12.6494 18.1998 12.8573 17.5774Z" fill="black"/>
<path d="M25 17.6892C25.2985 18.2451 25.5249 18.8335 25.747 19.4219C25.5122 19.7954 25.2618 20.1603 24.9859 20.5068C24.7581 20.1447 24.5289 19.7826 24.3011 19.4205C24.5317 18.842 24.7595 18.2635 25 17.6892Z" fill="black"/>
<path d="M36.4551 19.4204C36.6687 18.825 36.8965 18.2337 37.178 17.6665C37.4284 18.2464 37.6534 18.8363 37.8797 19.4247C37.6435 19.7925 37.3987 20.1546 37.1398 20.5053C36.9106 20.1432 36.6829 19.7826 36.4551 19.4204Z" fill="black"/>
<path d="M9.93027 20.4982C10.5542 20.3143 11.1356 19.9989 11.7723 19.8589C12.1641 19.9791 12.4612 20.2875 12.7753 20.5364C12.4542 20.7783 12.1259 21.0089 11.7935 21.2338C11.1653 21.006 10.5457 20.7599 9.93027 20.4982Z" fill="black"/>
<path d="M12.9153 20.5293C13.2336 20.2902 13.5406 20.0186 13.9155 19.8701C14.5451 19.9055 15.1124 20.2421 15.6627 20.5236C15.1435 20.7853 14.6172 21.0611 14.04 21.1672C13.6057 21.1035 13.2747 20.757 12.9153 20.5293Z" fill="black"/>
<path d="M22.0771 20.5208C22.6926 20.3072 23.2712 19.9762 23.9149 19.8503C24.311 19.972 24.6138 20.2761 24.9321 20.5265C24.6081 20.7754 24.2771 21.0145 23.9418 21.2493C23.3207 21.0031 22.6996 20.7627 22.0771 20.5208Z" fill="black"/>
<path d="M26.0894 19.8689C26.6977 19.9382 27.2396 20.2763 27.8055 20.4941C27.2693 20.7954 26.7091 21.1207 26.0866 21.1829C25.7046 21.033 25.3919 20.7558 25.0637 20.5196C25.3905 20.2819 25.7018 20.0033 26.0894 19.8689Z" fill="black"/>
<path d="M34.2439 20.5195C34.8593 20.2748 35.4747 20.0315 36.0901 19.791C36.4268 20.0258 36.7607 20.2649 37.0847 20.5181C36.7621 20.7712 36.4325 21.0131 36.0986 21.2507C35.4747 21.023 34.8522 20.7868 34.2439 20.5195Z" fill="black"/>
<path d="M38.259 19.863C38.8928 19.9564 39.4558 20.3072 40.0642 20.4981C39.4657 20.7655 38.8574 21.0045 38.2519 21.2535C37.9067 21.0172 37.5643 20.7768 37.2319 20.5236C37.5573 20.2817 37.8699 19.9988 38.259 19.863Z" fill="black"/>
<path d="M12.8559 20.6184C13.3341 21.4996 13.651 22.453 14.0415 23.3724C14.5168 24.5011 14.9582 25.6426 15.4477 26.7657C13.7444 26.7671 12.041 26.7728 10.3377 26.7586C10.7282 25.7091 11.1837 24.685 11.6039 23.6468C12.0156 22.6354 12.4117 21.6156 12.8559 20.6184Z" fill="black"/>
<path d="M24.9845 20.6199C25.2108 21.0244 25.4089 21.4431 25.5773 21.8745C26.054 23.0867 26.5732 24.2819 27.0514 25.4941C27.4405 26.4871 27.9059 27.4518 28.2285 28.4702C27.3768 28.1675 26.5718 27.7502 25.7131 27.4716C25.4881 27.9468 25.2519 28.415 25.0029 28.8776C24.7822 28.4009 24.5502 27.9299 24.3096 27.4631C23.4127 27.7842 22.5568 28.2029 21.6797 28.5706C22.2654 27.3924 22.6912 26.1462 23.2203 24.9425C23.7947 23.4969 24.4016 22.0626 24.9845 20.6199Z" fill="black"/>
<path d="M35.9868 23.3922C36.3886 22.47 36.7168 21.5138 37.1823 20.6199C38.1032 22.7317 38.9266 24.8845 39.8236 27.0062C40.0174 27.4518 40.173 27.9129 40.2848 28.3867C39.4501 28.1675 38.7045 27.7035 37.867 27.4928C37.6392 27.9638 37.4044 28.4306 37.1724 28.8988C36.9375 28.4207 36.7055 27.9426 36.4791 27.4617C35.619 27.7615 34.8112 28.1873 33.9453 28.4716C34.5678 26.7558 35.3261 25.0938 35.9868 23.3922Z" fill="black"/>
<path d="M53.2522 23.1999C54.2312 23.149 55.2116 23.1731 56.1921 23.1702C74.7378 23.1674 93.285 23.1731 111.831 23.1674C112.201 23.8633 112.511 24.5875 112.861 25.2934C113.871 27.3514 114.475 29.5707 115.15 31.7518C115.079 31.5807 115.003 31.4138 114.928 31.2469C108.648 31.2356 102.368 31.2483 96.0876 31.2412C95.2656 31.237 94.4408 31.2172 93.6217 31.3091C92.7021 29.8366 91.4925 28.5184 89.9703 27.6569C89.1073 27.1916 88.3391 26.5409 87.394 26.2396C85.3427 25.5451 83.1413 25.2806 80.9853 25.5098C80.0997 25.6314 79.2197 25.804 78.3567 26.0374C77.2971 26.3217 76.3747 26.937 75.4324 27.4745C74.3785 28.1294 73.3372 28.8621 72.5874 29.8649C72.2097 30.3628 71.7881 30.8254 71.4019 31.3162C70.6266 31.2271 69.8457 31.2327 69.0661 31.2398C62.738 31.2511 56.4099 31.2299 50.0818 31.2511C50.4496 29.6372 51.0424 28.0912 51.5645 26.524C51.8389 25.6484 52.4557 24.9454 52.8278 24.1165C52.9707 23.811 53.1051 23.5026 53.2522 23.1999Z" fill="black"/>
<path d="M31.0806 27.5918C31.3579 28.159 31.5842 28.7488 31.8134 29.3358C31.5771 29.705 31.3281 30.0657 31.0565 30.4108C30.8287 30.0501 30.6038 29.6866 30.3817 29.3217C30.6165 28.746 30.8429 28.1661 31.0806 27.5918Z" fill="black"/>
<path d="M17.5613 31.1621C17.9871 30.0107 18.4653 28.8777 19.0609 27.8013C19.2392 28.3161 19.4584 28.814 19.6636 29.3176C19.433 29.6769 19.1995 30.0333 18.9647 30.3883C18.7412 30.1069 18.5205 29.8226 18.2984 29.5397C18.2531 29.6175 18.164 29.7745 18.1187 29.8523C18.3648 30.0559 18.611 30.2596 18.8543 30.4661C18.4653 30.7688 18.038 31.022 17.5613 31.1621Z" fill="black"/>
<path d="M18.9944 30.4462C19.3156 30.2001 19.6268 29.9214 20.0074 29.7715C20.6525 29.8521 21.2255 30.217 21.8366 30.4236C21.234 30.6725 20.6469 31.0035 19.9975 31.1067C19.6254 30.9512 19.317 30.6824 18.9944 30.4462Z" fill="black"/>
<path d="M28.1563 30.4265C28.783 30.2214 29.373 29.8989 30.0209 29.7617C30.4043 29.9018 30.707 30.1889 31.0239 30.435C30.6986 30.6811 30.3916 30.9753 29.9997 31.1111C29.3531 30.9867 28.766 30.6627 28.1563 30.4265Z" fill="black"/>
<path d="M31.157 30.4321C31.4866 30.1831 31.8247 29.9455 32.1643 29.7107C32.7797 29.9413 33.3894 30.1831 34.002 30.4236C33.3979 30.6952 32.7797 30.9314 32.1572 31.1563C31.8205 30.9187 31.4852 30.6796 31.157 30.4321Z" fill="black"/>
<path d="M18.9139 30.5366C19.3327 31.2792 19.6114 32.0855 19.9438 32.8677C20.6653 34.7079 21.493 36.5071 22.148 38.3714C21.3119 38.0715 20.5083 37.6924 19.6863 37.3586C19.4501 37.8226 19.2053 38.2837 18.9181 38.7193C18.6833 38.2766 18.4612 37.8282 18.249 37.3742C17.3577 37.708 16.4834 38.0857 15.6289 38.5043C16.755 35.8607 17.809 33.1888 18.9139 30.5366Z" fill="black"/>
<path d="M31.0707 30.5254C31.4937 31.2736 31.7554 32.0969 32.0921 32.8847C32.5264 33.9173 32.9423 34.9583 33.3654 35.9966C33.6851 36.7887 34.0487 37.5652 34.309 38.3814C33.4517 38.0956 32.6481 37.6741 31.795 37.3743C31.5658 37.8524 31.3295 38.3276 31.089 38.7986C30.8542 38.3234 30.6222 37.8439 30.3944 37.3658C29.506 37.6996 28.65 38.1126 27.7786 38.4846C28.9259 35.8523 29.9417 33.1648 31.0707 30.5254Z" fill="black"/>
<path d="M68.8851 39.3872C68.9686 38.9133 69.0322 38.4366 69.1016 37.96C68.7168 41.2147 69.5698 44.5231 71.1147 47.3803C69.8669 47.4511 68.6177 47.41 67.3685 47.4185C61.5709 47.4256 55.7734 47.4044 49.9758 47.4298C49.6277 45.8881 49.3957 44.3237 49.2514 42.7508C49.209 42.0605 49.1991 41.3674 49.0958 40.6814C48.9713 39.8228 48.9727 38.9473 49.1156 38.0901C49.0604 38.5102 49.0477 38.9331 49.042 39.356C54.6317 39.356 60.2227 39.356 65.8123 39.356C66.8366 39.356 67.8608 39.3405 68.8851 39.3872Z" fill="black"/>
<path d="M12.4117 42.5342C12.914 41.4578 13.4798 40.4111 13.9368 39.3135C14.9582 39.3814 15.9825 39.3545 17.0039 39.3559C22.1451 39.3559 27.2848 39.3559 32.4246 39.3559C33.388 39.3559 34.35 39.3389 35.312 39.387C34.7843 40.3658 34.4137 41.4182 33.9624 42.4324C33.2239 44.1029 32.5575 45.8073 31.7342 47.4396C24.6025 47.3802 17.468 47.4538 10.3363 47.4028C10.6178 46.8215 10.8711 46.2274 11.096 45.622C11.4865 44.5725 11.9548 43.5555 12.4117 42.5342Z" fill="black"/>
<path d="M95.9944 39.3474C102.631 39.3616 109.267 39.3616 115.903 39.3474C115.976 40.5073 116.007 41.6742 115.883 42.8313C115.726 44.3843 115.594 45.9643 115.074 47.4481C114.592 47.4283 114.11 47.417 113.629 47.417C107.972 47.4212 102.313 47.417 96.6537 47.4184C95.7355 47.4184 94.8159 47.4368 93.8992 47.3802C94.2387 46.7295 94.5966 46.086 94.9347 45.4339C95.3804 44.4593 95.6577 43.414 95.86 42.3645C96.0566 41.3701 95.9916 40.3531 95.9944 39.3474Z" fill="black"/>
<path d="M6.77259 55.4556C7.77706 55.4952 8.78293 55.4796 9.78881 55.481C22.1918 55.481 34.5948 55.481 46.9963 55.481C48.0022 55.481 49.0081 55.4711 50.014 55.4994C49.482 58.2378 48.9274 60.972 48.3403 63.7005C47.4689 63.6736 46.596 63.6835 45.7231 63.685C33.1786 63.685 20.6356 63.685 8.09113 63.685C6.42881 63.6807 4.7665 63.6963 3.10419 63.6708C3.62764 62.518 4.06055 61.3256 4.55712 60.1615C4.93627 59.2548 5.53753 58.4599 5.8799 57.5377C6.14304 56.829 6.43447 56.1317 6.77259 55.4556Z" fill="black"/>
<path d="M53.125 55.5402C54.0969 55.4511 55.0745 55.4808 56.0507 55.4808C73.7349 55.4808 91.419 55.4808 109.103 55.4808C110.105 55.4808 111.106 55.4709 112.11 55.4992C111.736 56.1965 111.181 56.7765 110.801 57.4682C110.567 57.884 110.334 58.3013 110.055 58.6888C109.058 60.0779 108.018 61.4485 106.803 62.6579C106.472 62.9931 106.152 63.3396 105.811 63.6635C104.882 63.6989 103.951 63.6819 103.02 63.6848C88.4495 63.6862 73.8777 63.6833 59.306 63.6862C58.5208 63.0086 57.8049 62.2547 57.1782 61.4287C56.5487 60.6012 55.8639 59.819 55.1877 59.0297C54.3289 57.976 53.7998 56.7086 53.125 55.5402Z" fill="black"/>
<path d="M76.3762 71.7446C80.462 71.7503 84.5491 71.7489 88.6363 71.7446C87.4974 71.9257 86.3501 72.0304 85.1985 72.0714C83.4117 72.2934 81.5966 72.2949 79.8084 72.0714C78.6582 72.0304 77.5122 71.9271 76.3762 71.7446Z" fill="black"/>
<path d="M23.7987 8.68459C24.6999 8.7143 25.5771 8.43564 26.4783 8.46393C27.8986 8.49222 29.3176 8.47384 30.738 8.48939C30.6206 8.83877 30.5003 9.18531 30.3787 9.53327C30.6192 9.88972 30.8597 10.2433 31.1073 10.5955C31.3365 10.2391 31.5642 9.88265 31.7948 9.5262C31.6717 9.18107 31.5472 8.83594 31.4256 8.49081C35.2496 8.47525 39.0736 8.47525 42.8977 8.49081C42.7718 8.83028 42.6458 9.16834 42.5185 9.50781C42.7519 9.8685 42.9854 10.2292 43.2202 10.5885C43.4678 10.2405 43.7097 9.88831 43.9502 9.53469C43.8286 9.18673 43.7069 8.84018 43.5895 8.49081C44.7779 8.49081 45.9648 8.45969 47.1532 8.48374C47.7799 8.45686 48.3967 8.84584 48.6471 9.41729C48.6259 10.2433 48.2199 11.0001 47.7813 11.679C46.9325 13.1869 46.409 14.8432 45.6536 16.3949C44.7665 14.5363 44.1016 12.5829 43.2584 10.7045C42.8085 11.5362 42.4945 12.4287 42.138 13.3014C41.3924 15.0865 40.685 16.8857 39.9253 18.6623C40.7741 18.262 41.6428 17.9041 42.5086 17.5392C42.7562 17.9862 43.0024 18.4345 43.2627 18.8759C43.489 18.443 43.7111 18.0088 43.9304 17.5717C44.2883 17.6849 44.6463 17.8023 45.0042 17.9126C44.6746 18.6439 44.4298 19.4119 44.0648 20.1277C43.8017 20.6595 43.4353 21.1319 43.1891 21.6737C42.8863 22.3385 42.677 23.0415 42.3686 23.7049C41.6046 25.3768 40.876 27.0642 40.1984 28.7729C39.8051 29.7913 39.0991 30.6527 38.7454 31.6881C37.8697 33.7207 37.0053 35.7576 36.1352 37.7916C35.9046 38.3461 35.6118 38.8694 35.3119 39.3871C34.3498 39.339 33.3878 39.356 32.4244 39.356C27.2847 39.356 22.1449 39.356 17.0038 39.356C15.9823 39.3546 14.9581 39.3814 13.9366 39.3135C14.5478 37.9938 15.0486 36.6275 15.6442 35.3007C15.9767 34.5468 16.2525 33.7674 16.6444 33.0418C16.9741 32.4265 17.2952 31.807 17.5612 31.162C18.0379 31.0219 18.4652 30.7687 18.8542 30.466C18.6109 30.2595 18.3647 30.0558 18.1186 29.8521C18.1639 29.7744 18.253 29.6173 18.2983 29.5396C18.5204 29.8224 18.7411 30.1068 18.9646 30.3882C19.1994 30.0332 19.4329 29.6768 19.6635 29.3175C19.4583 28.8139 19.2391 28.316 19.0608 27.8012C18.9703 27.5126 18.8939 27.2198 18.816 26.9284C17.7111 26.6682 16.5709 26.787 15.4476 26.7658C14.9581 25.6427 14.5167 24.5012 14.0413 23.3725C13.6509 22.4531 13.334 21.4997 12.8558 20.6185C12.4115 21.6157 12.0154 22.6355 11.6037 23.6469C11.1836 24.6851 10.728 25.7092 10.3375 26.7587C8.50122 26.7785 6.66631 26.7545 4.82998 26.7785C4.41971 26.7644 3.96841 26.8096 3.60623 26.5748C3.25114 26.3598 2.91726 26.0402 2.84794 25.6116C2.70788 24.835 2.93424 24.0585 3.07288 23.2975C3.42656 21.6638 3.71658 20.0173 4.07168 18.3836C4.74651 18.088 5.42558 17.7994 6.11031 17.5265C6.35223 18.0088 6.58142 18.4982 6.79646 18.9918C7.03555 18.5095 7.27464 18.0272 7.51373 17.5448C8.38662 17.8815 9.24678 18.2549 10.0942 18.6538C9.21141 16.4444 8.28618 14.2534 7.40055 12.0454C7.22795 11.6097 7.02848 11.184 6.81202 10.7681C5.93489 12.4725 5.36475 14.3114 4.55694 16.0483C4.77198 14.9436 4.91769 13.8205 5.28128 12.7526C5.43832 12.2858 5.5713 11.812 5.66892 11.3297C6.04665 11.1062 6.4159 10.8685 6.77948 10.6238C6.5121 10.4315 6.2433 10.2405 5.97309 10.0524C6.03958 9.93923 6.11031 9.8289 6.18388 9.71998C6.39892 9.98732 6.61255 10.2561 6.83041 10.5206C7.14732 10.0934 7.60993 9.62522 7.39772 9.04387C7.38641 8.9788 7.36377 8.84584 7.35387 8.78078C7.92542 8.69732 8.50263 8.66762 9.07984 8.67045C12.2418 8.65489 15.4023 8.66055 18.5628 8.6662C18.4496 8.94627 18.335 9.22633 18.2204 9.5064C18.4638 9.86709 18.7099 10.2278 18.9589 10.5842C19.2009 10.2264 19.4399 9.8685 19.679 9.50923C19.5786 9.22916 19.4796 8.94768 19.3848 8.66762C20.8561 8.65913 22.3274 8.65206 23.7987 8.68459ZM6.83041 10.6252C7.18976 10.8685 7.55617 11.1019 7.93108 11.324C8.49556 11.1062 9.06004 10.8855 9.60188 10.6139C9.05579 10.3381 8.48565 10.116 7.91835 9.88689C7.54627 10.1189 7.18268 10.3636 6.83041 10.6252ZM16.0205 10.5885C16.6176 10.8544 17.2231 11.1033 17.8385 11.3254C18.1709 11.1246 18.5006 10.9166 18.8274 10.7059C18.5614 10.3636 18.219 10.0976 17.854 9.86992C17.2499 10.1288 16.6388 10.3692 16.0205 10.5885ZM19.0297 10.6224C19.3395 10.8728 19.6649 11.1048 19.9959 11.3268C20.6213 11.1161 21.2338 10.8671 21.8294 10.5828C21.2536 10.3763 20.7061 10.0793 20.1049 9.95337C19.6649 9.99298 19.3452 10.3508 19.0297 10.6224ZM28.1858 10.5885C28.7885 10.8346 29.3686 11.1585 30.0094 11.2943C30.39 11.1486 30.6843 10.853 30.9983 10.6054C30.68 10.3508 30.3504 10.1104 30.0165 9.87558C29.4096 10.1231 28.8012 10.3664 28.1858 10.5885ZM31.1964 10.6252C31.502 10.8671 31.8175 11.0949 32.1372 11.3169C32.7682 11.1062 33.3892 10.8671 33.9905 10.5828C33.3793 10.3381 32.7667 10.1005 32.1485 9.87558C31.809 10.0976 31.485 10.3424 31.1964 10.6252ZM40.4077 10.6097C40.9849 10.8841 41.5834 11.1132 42.1875 11.3254C42.5058 11.1005 42.8227 10.8714 43.1283 10.6309C42.8368 10.3508 42.5143 10.1075 42.179 9.88406C41.5735 10.0906 40.975 10.3169 40.4077 10.6097ZM43.3306 10.6238C43.6404 10.8841 43.9715 11.1203 44.3181 11.3325C44.9108 11.1217 45.5036 10.9011 46.0525 10.5871C45.4767 10.3381 44.8924 10.1132 44.3096 9.88265C43.97 10.1104 43.6404 10.3551 43.3306 10.6238ZM18.9306 10.72C17.9913 12.8728 17.1509 15.0667 16.2356 17.2294C16.0488 17.6693 15.872 18.1149 15.7249 18.5689C16.5836 18.2931 17.3758 17.8546 18.2261 17.5562C18.451 18.0159 18.6873 18.4713 18.9547 18.907C19.1952 18.4572 19.4329 18.0045 19.6861 17.5604C20.5632 17.8716 21.4078 18.2634 22.2524 18.6524C21.4701 16.798 20.7245 14.9281 19.9535 13.068C19.6224 12.2816 19.3692 11.457 18.9306 10.72ZM31.0648 10.7214C30.489 12.0341 29.9755 13.3736 29.4181 14.6933C28.9286 15.996 28.3174 17.2492 27.8703 18.5675C28.7234 18.2577 29.5341 17.8461 30.3928 17.5533C30.6305 18.0243 30.8639 18.4982 31.086 18.9777C31.335 18.5138 31.5713 18.0441 31.7962 17.5689C32.655 17.8532 33.4614 18.2662 34.3145 18.5661C33.6014 16.6127 32.7498 14.7145 31.9858 12.7809C31.6986 12.0864 31.4482 11.3721 31.0648 10.7214ZM12.8572 17.5774C12.6492 18.1997 12.4073 18.8094 12.1767 19.4233C12.3946 19.791 12.6294 20.1475 12.8798 20.494C13.126 20.1446 13.3622 19.7882 13.59 19.4275C13.3509 18.808 13.1048 18.1927 12.8572 17.5774ZM24.9999 17.6891C24.7593 18.2634 24.5316 18.8419 24.301 19.4204C24.5287 19.7825 24.7579 20.1446 24.9857 20.5067C25.2616 20.1602 25.512 19.7953 25.7468 19.4218C25.5247 18.8334 25.2984 18.245 24.9999 17.6891ZM36.455 19.4204C36.6827 19.7825 36.9105 20.1432 37.1397 20.5053C37.3986 20.1545 37.6433 19.7924 37.8796 19.4247C37.6532 18.8363 37.4283 18.2464 37.1779 17.6665C36.8964 18.2337 36.6686 18.8249 36.455 19.4204ZM9.9301 20.4983C10.5455 20.7599 11.1652 21.006 11.7933 21.2338C12.1258 21.0089 12.454 20.7783 12.7751 20.5364C12.4611 20.2875 12.164 19.9791 11.7721 19.8589C11.1355 19.9989 10.554 20.3144 9.9301 20.4983ZM12.9152 20.5294C13.2745 20.7571 13.6056 21.1036 14.0399 21.1673C14.6171 21.0612 15.1434 20.7854 15.6626 20.5237C15.1123 20.2422 14.545 19.9056 13.9154 19.8702C13.5405 20.0187 13.2335 20.2903 12.9152 20.5294ZM22.077 20.5209C22.6995 20.7628 23.3206 21.0032 23.9416 21.2493C24.2769 21.0145 24.608 20.7755 24.9319 20.5265C24.6136 20.2762 24.3109 19.9721 23.9148 19.8504C23.271 19.9763 22.6924 20.3073 22.077 20.5209ZM26.0892 19.8688C25.7016 20.0032 25.3903 20.2818 25.0635 20.5195C25.3917 20.7557 25.7044 21.0329 26.0864 21.1829C26.7089 21.1206 27.2691 20.7953 27.8053 20.494C27.2394 20.2762 26.6975 19.9381 26.0892 19.8688ZM34.2437 20.5195C34.8521 20.7868 35.4746 21.023 36.0984 21.2508C36.4323 21.0131 36.762 20.7712 37.0845 20.5181C36.7605 20.2649 36.4267 20.0258 36.09 19.791C35.4746 20.0315 34.8591 20.2748 34.2437 20.5195ZM38.2587 19.8632C37.8697 19.9989 37.557 20.2818 37.2317 20.5237C37.5641 20.7769 37.9065 21.0174 38.2517 21.2536C38.8572 21.0046 39.4655 20.7656 40.0639 20.4983C39.4556 20.3073 38.8925 19.9565 38.2587 19.8632ZM24.9843 20.6199C24.4014 22.0627 23.7945 23.4969 23.2201 24.9425C22.691 26.1462 22.2652 27.3924 21.6795 28.5706C22.5566 28.2029 23.4125 27.7842 24.3095 27.4631C24.55 27.9299 24.782 28.4009 25.0027 28.8776C25.2517 28.415 25.4879 27.9469 25.7129 27.4716C26.5716 27.7502 27.3766 28.1675 28.2283 28.4702C27.9057 27.4518 27.4403 26.4871 27.0512 25.4942C26.573 24.282 26.0538 23.0867 25.5771 21.8745C25.4087 21.4431 25.2106 21.0244 24.9843 20.6199ZM35.9867 23.3923C35.326 25.0939 34.5677 26.7559 33.9452 28.4716C34.811 28.1873 35.6189 27.7616 36.479 27.4617C36.7054 27.9426 36.9374 28.4207 37.1722 28.8988C37.4042 28.4306 37.6391 27.9638 37.8669 27.4928C38.7044 27.7036 39.45 28.1675 40.2846 28.3868C40.1729 27.9129 40.0173 27.4518 39.8234 27.0062C38.9265 24.8845 38.1031 22.7317 37.1821 20.6199C36.7167 21.5138 36.3885 22.47 35.9867 23.3923ZM31.0804 27.5918C30.8427 28.1661 30.6164 28.746 30.3815 29.3217C30.6036 29.6867 30.8286 30.0502 31.0563 30.4109C31.328 30.0657 31.577 29.705 31.8132 29.3359C31.584 28.7489 31.3577 28.159 31.0804 27.5918ZM18.9943 30.4462C19.3169 30.6824 19.6253 30.9512 19.9974 31.1068C20.6467 31.0035 21.2338 30.6725 21.8365 30.4236C21.2253 30.2171 20.6524 29.8522 20.0073 29.7715C19.6267 29.9215 19.3155 30.2001 18.9943 30.4462ZM28.1561 30.4264C28.7659 30.6626 29.353 30.9866 29.9995 31.111C30.3914 30.9752 30.6984 30.681 31.0238 30.4349C30.7069 30.1888 30.4041 29.9017 30.0207 29.7616C29.3728 29.8988 28.7829 30.2213 28.1561 30.4264ZM31.1568 30.4321C31.485 30.6796 31.8203 30.9187 32.157 31.1563C32.7795 30.9314 33.3977 30.6952 34.0018 30.4236C33.3892 30.1831 32.7795 29.9413 32.1641 29.7107C31.8245 29.9455 31.4864 30.1831 31.1568 30.4321ZM18.9137 30.5368C17.8088 33.1889 16.7548 35.8608 15.6287 38.5045C16.4832 38.0858 17.3575 37.7081 18.2487 37.3743C18.461 37.8284 18.6831 38.2767 18.9179 38.7195C19.2051 38.2838 19.4499 37.8227 19.6861 37.3587C20.5081 37.6926 21.3116 38.0716 22.1477 38.3715C21.4927 36.5072 20.6651 34.708 19.9436 32.8678C19.6111 32.0856 19.3324 31.2794 18.9137 30.5368ZM31.0705 30.5254C29.9415 33.1648 28.9257 35.8523 27.7784 38.4847C28.6499 38.1127 29.5058 37.6996 30.3942 37.3658C30.622 37.8439 30.854 38.3234 31.0889 38.7987C31.3294 38.3277 31.5656 37.8524 31.7948 37.3743C32.6479 37.6742 33.4515 38.0957 34.3088 38.3814C34.0485 37.5653 33.6849 36.7887 33.3652 35.9966C32.9422 34.9584 32.5262 33.9173 32.0919 32.8848C31.7552 32.0969 31.4935 31.2737 31.0705 30.5254Z" fill="white"/>
<path d="M58.5997 16.1601C58.9888 15.7555 59.4047 15.3793 59.8206 15.003C60.777 15.1021 61.739 15.0667 62.6996 15.0667C75.9033 15.0667 89.1085 15.0681 102.312 15.0667C103.288 15.0639 104.27 15.1204 105.239 14.9719C105.87 15.6523 106.538 16.3015 107.278 16.8631C107.977 17.3949 108.475 18.1319 108.976 18.8419C109.923 20.2861 110.973 21.6666 111.831 23.1674C93.2848 23.173 74.7376 23.1674 56.1918 23.1702C55.2114 23.173 54.231 23.149 53.252 23.1999C53.8222 22.0853 54.4545 20.9919 55.268 20.0343C55.7915 19.4233 56.1819 18.7118 56.7096 18.1036C57.2911 17.4091 57.973 16.8107 58.5997 16.1601Z" fill="white"/>
<path d="M50.0817 31.251C56.4098 31.2298 62.7379 31.251 69.066 31.2397C69.8455 31.2326 70.6265 31.2269 71.4018 31.3161C70.9193 32.0813 70.4298 32.8592 70.1228 33.7164C69.6574 35.0969 69.257 36.5072 69.1014 37.9598C69.0321 38.4365 68.9684 38.9132 68.8849 39.387C67.8607 39.3404 66.8364 39.3559 65.8121 39.3559C60.2225 39.3559 54.6315 39.3559 49.0419 39.3559C49.0475 38.933 49.0603 38.5101 49.1154 38.09C49.2046 37.5256 49.2145 36.9541 49.2428 36.3841C49.3913 34.6542 49.6431 32.9328 50.0817 31.251Z" fill="white"/>
<path d="M93.6217 31.3089C94.4408 31.217 95.2656 31.2368 96.0876 31.241C102.368 31.2481 108.648 31.2354 114.928 31.2467C115.003 31.4136 115.079 31.5805 115.15 31.7517C115.526 32.978 115.706 34.2553 115.806 35.5311C115.83 35.8381 115.939 36.1266 116.035 36.4166V39.3446L115.902 39.3474C109.267 39.3615 102.631 39.3615 95.9942 39.3474C96.106 37.295 95.6716 35.2327 94.8511 33.3557C94.4592 32.6626 93.9909 32.0162 93.6217 31.3089Z" fill="white"/>
<path d="M8.97939 50.4199C9.51981 49.4552 9.83813 48.3873 10.3361 47.4028C17.4678 47.4538 24.6023 47.3802 31.734 47.4396C31.2997 48.2982 30.8696 49.1596 30.5074 50.0535C30.3023 50.5684 30.0207 51.072 29.9811 51.6349C30.0901 51.8641 30.2683 52.0508 30.4296 52.246C36.4252 52.2021 42.4223 52.2446 48.4179 52.2233C49.0744 52.2007 49.8143 52.444 50.1241 53.0692C50.5019 53.8486 50.1567 54.7072 50.0138 55.4993C49.0079 55.471 48.002 55.4809 46.9961 55.4809C34.5946 55.4809 22.1916 55.4809 9.78861 55.4809C8.78274 55.4795 7.77686 55.495 6.7724 55.4554C7.24209 54.478 7.54485 53.4299 8.00322 52.4454C8.31729 51.7651 8.61155 51.0748 8.97939 50.4199Z" fill="white"/>
<path d="M49.9755 47.4299C55.7731 47.4044 61.5707 47.4256 67.3682 47.4186C68.6175 47.4101 69.8667 47.4511 71.1145 47.3804C71.355 47.7778 71.6549 48.1343 71.9633 48.4808C72.5221 49.1018 72.9932 49.8076 73.6412 50.3451C75.2625 51.7186 77.2007 52.761 79.3044 53.1458C80.7205 53.4004 82.1664 53.6889 83.6094 53.5036C84.6945 53.3523 85.7909 53.2335 86.8435 52.9166C88.0884 52.5715 89.2429 51.9661 90.3124 51.2532C91.0311 50.7666 91.7569 50.2588 92.2888 49.5601C92.842 48.8472 93.4149 48.1442 93.8988 47.3804C94.8155 47.4369 95.7351 47.4186 96.6533 47.4186C102.312 47.4171 107.971 47.4214 113.629 47.4171C114.11 47.4171 114.592 47.4285 115.073 47.4483C114.759 48.4469 114.475 49.4554 114.158 50.4526C113.861 51.4074 113.442 52.3155 113.117 53.2603C112.851 54.0355 112.507 54.7823 112.109 55.4994C111.106 55.4711 110.105 55.481 109.103 55.481C91.4187 55.481 73.7346 55.481 56.0504 55.481C55.0742 55.481 54.0966 55.4513 53.1247 55.5405C52.8785 55.1218 52.672 54.6833 52.464 54.2462C52.2447 53.7809 51.9222 53.3735 51.717 52.9011C50.9502 51.1415 50.4537 49.2828 49.9755 47.4299Z" fill="white"/>
<path d="M3.104 63.6707C4.76631 63.6961 6.42862 63.6806 8.09094 63.6848C20.6354 63.6848 33.1784 63.6848 45.7229 63.6848C46.5958 63.6834 47.4687 63.6735 48.3401 63.7004C48.2397 64.3581 48.0728 65.0059 47.8266 65.6255C47.5224 66.7061 47.347 67.8193 47.1164 68.9169C46.9834 69.5648 46.5604 70.115 46.0653 70.5351C45.4965 70.9962 44.7312 71.0683 44.028 71.0924C31.577 71.0896 19.1273 71.0924 6.6762 71.091C5.16526 71.0924 3.65433 71.0839 2.14339 71.1023C1.78971 71.0924 1.42188 71.1122 1.08517 70.9877C0.901253 70.801 0.812124 70.5478 0.734314 70.3045V69.4261C0.761194 68.8646 0.865884 68.2875 1.19693 67.8207C1.63691 67.18 1.91279 66.4501 2.18442 65.7273C2.44614 65.0215 2.78851 64.3524 3.104 63.6707Z" fill="white"/>
<path d="M59.3058 63.6862C73.8775 63.6834 88.4493 63.6862 103.02 63.6848C103.951 63.682 104.881 63.6989 105.811 63.6636C104.556 64.7739 103.185 65.7372 101.864 66.7627C99.6045 68.3087 97.0367 69.3045 94.5242 70.3498C93.1688 70.9269 91.7074 71.173 90.2743 71.4715C89.7325 71.5846 89.1864 71.6879 88.636 71.7444C84.5489 71.7487 80.4617 71.7501 76.3759 71.7444C75.9388 71.6935 75.5031 71.6285 75.073 71.5379C73.6681 71.2536 72.2477 70.9948 70.9023 70.487C70.3548 70.2861 69.8356 70.0216 69.2867 69.8236C67.8225 69.2861 66.4374 68.5619 65.0425 67.8688C63.939 67.3186 62.9133 66.6212 61.9754 65.8206C61.0869 65.1077 60.173 64.426 59.3058 63.6862Z" fill="white"/>
<path d="M128.701 1.058C129.117 0.945064 129.505 0.753076 129.902 0.581793C131.161 0.515915 132.424 0.581793 133.687 0.551677C134.728 0.476387 135.639 1.07306 136.604 1.36104C137.19 1.80336 137.901 2.06311 138.436 2.57696C138.856 2.98352 139.262 3.40703 139.674 3.823C139.748 4.34814 140.041 4.80364 140.294 5.25914C141.028 4.98622 141.72 4.61918 142.456 4.35191C142.631 4.3312 142.808 4.3105 142.987 4.28979C143.456 4.08087 143.947 3.89641 144.474 3.93782C144.54 3.89076 144.673 3.79665 144.739 3.74959C144.907 3.75336 145.244 3.76088 145.411 3.76465C145.477 3.71383 145.611 3.61219 145.679 3.56137C145.963 3.56513 146.251 3.57078 146.541 3.57642C146.608 3.5256 146.742 3.42397 146.808 3.37315C147.156 3.37879 147.506 3.38255 147.858 3.3882C147.924 3.33738 148.06 3.23762 148.126 3.1868C148.976 3.1981 149.829 3.18492 150.682 3.1981C150.749 3.14916 150.883 3.04752 150.949 2.99858C151.485 3.00611 152.024 3.00611 152.564 2.99858C152.632 3.0494 152.765 3.14916 152.831 3.1981C153.62 3.1868 154.408 3.1981 155.199 3.1868C155.267 3.23762 155.4 3.33738 155.466 3.38632C155.877 3.38067 156.289 3.37879 156.703 3.37315C156.771 3.42397 156.904 3.5256 156.972 3.57642C157.256 3.57078 157.542 3.56702 157.832 3.56325C157.898 3.61031 158.032 3.70254 158.098 3.74959C158.856 3.73453 159.558 4.0771 160.302 4.18062C161.226 4.50437 162.165 4.80741 163.033 5.26855C163.217 4.93728 163.402 4.60036 163.473 4.22391C164.454 2.72001 165.915 1.49468 167.657 0.994003C168.25 0.832131 168.813 0.504621 169.447 0.551677C170.648 0.568617 171.851 0.538501 173.052 0.572381C173.839 0.79825 174.612 1.06364 175.376 1.36104C176.176 1.88053 177.02 2.35486 177.692 3.04564C178.68 4.23521 179.659 5.48125 180.18 6.95504C180.395 7.45195 180.603 7.96579 180.562 8.52105C180.609 8.58693 180.701 8.72057 180.748 8.78645C180.724 9.63345 180.769 10.4786 180.731 11.3237C180.568 11.9561 180.44 12.5999 180.246 13.2229C179.651 14.4614 178.734 15.523 177.726 16.4434C177.978 16.6956 178.143 17.0099 178.32 17.3167C178.951 17.9718 179.292 18.8376 179.764 19.6036C180.056 20.0234 180.291 20.4845 180.43 20.9796C180.6 21.6346 180.967 22.2105 181.189 22.8449C181.494 23.5168 181.682 24.2302 181.938 24.921C182.386 25.879 182.491 26.95 182.757 27.9645C183.139 29.092 183.498 30.2289 183.895 31.3507C184.05 32.3464 184.483 33.2931 184.515 34.3077C184.562 34.3735 184.656 34.5072 184.703 34.5749C184.699 34.7425 184.692 35.0756 184.688 35.2431C184.739 35.3109 184.84 35.4445 184.891 35.5123C184.882 35.8605 184.88 36.2106 184.876 36.5626C184.927 36.6284 185.029 36.764 185.079 36.8298C185.07 37.2421 185.068 37.6543 185.066 38.0684C185.115 38.1342 185.217 38.2698 185.266 38.3356C185.256 40.1294 185.256 41.9232 185.266 43.7151C185.215 43.7828 185.115 43.9165 185.064 43.9842C185.068 44.3945 185.07 44.8068 185.079 45.2208C185.029 45.2867 184.927 45.4222 184.876 45.4881C184.88 45.8363 184.882 46.1864 184.889 46.5365C184.842 46.6043 184.744 46.736 184.697 46.8038C184.771 47.5303 184.456 48.2042 184.34 48.9081C184.266 49.3185 184.157 49.7231 184.084 50.1335C183.735 51.0896 183.542 52.0929 183.167 53.0396C182.841 53.7831 182.644 54.6038 182.109 55.2343C181.855 56.1284 181.347 56.9246 180.874 57.7151C180.442 58.6393 179.755 59.411 179.354 60.3521C178.753 60.9488 178.29 61.6603 177.699 62.2663C177.291 62.9741 176.564 63.4089 176.144 64.1053C175.776 64.6737 175.19 65.0276 174.676 65.4436C173.626 66.6162 172.186 67.3314 171.055 68.41C169.141 69.5751 167.115 70.5802 165.026 71.3933C164.252 71.5759 163.567 72.1387 162.75 72.0784C162.688 72.0126 162.562 71.8808 162.498 71.8149C162.457 71.2427 162.491 70.6686 162.487 70.0964C162.397 70.0099 162.216 69.8348 162.126 69.7464C162.011 68.7036 161.612 67.674 160.938 66.8609C159.609 65.6374 157.917 64.9391 156.343 64.0996C155.884 63.6536 155.263 63.4465 154.8 63.0136C154.085 62.5092 153.202 62.2061 152.321 62.2908C151.391 62.3567 150.416 62.1289 149.53 62.4922C148.726 62.767 148.169 63.4522 147.42 63.8267C146.765 64.4949 145.82 64.7396 144.992 65.1217C144.562 65.3909 144.124 65.6412 143.693 65.9066C143.07 66.268 142.618 66.8402 142.104 67.3314C141.577 67.8076 141.532 68.5662 141.265 69.1854C140.999 70.0531 140.992 70.951 141.035 71.8507C140.817 71.9806 140.598 72.1086 140.38 72.2384C139.74 71.8563 138.997 71.7227 138.31 71.4535C137.201 70.9886 136.059 70.599 135.004 70.0117C134.142 69.6485 133.393 69.08 132.546 68.6923C132.288 68.5925 132.213 68.2914 131.999 68.1446C130.922 67.4086 129.902 66.5936 128.851 65.8219C128.044 64.9956 127.133 64.2521 126.485 63.2884C125.968 62.9251 125.622 62.3906 125.185 61.9464C124.641 61.1728 123.997 60.4669 123.56 59.6237C122.621 58.2591 121.691 56.87 121.14 55.2946C120.6 54.2443 120.188 53.1375 119.796 52.0251C119.783 51.9272 119.756 51.7334 119.743 51.6374C119.657 51.5527 119.485 51.3833 119.399 51.2986C119.399 50.8261 119.222 50.3876 119.054 49.9547C118.951 49.2112 118.605 48.511 118.622 47.7506C118.576 47.6828 118.482 47.5454 118.435 47.4776C118.437 47.1897 118.441 46.9036 118.448 46.6175C118.398 46.5497 118.296 46.4161 118.245 46.3502C118.249 45.9982 118.253 45.6481 118.26 45.2999C118.209 45.234 118.11 45.0985 118.059 45.0326C118.066 44.3682 118.061 43.7056 118.07 43.0412C118.021 42.9753 117.919 42.8398 117.87 42.7739C117.88 41.5448 117.88 40.3176 117.87 39.0885C117.919 39.0226 118.021 38.889 118.07 38.8213C118.061 38.2189 118.066 37.6185 118.059 37.0181C118.108 36.9503 118.209 36.8167 118.258 36.7508C118.253 36.3367 118.251 35.9245 118.245 35.5123C118.296 35.4445 118.398 35.3109 118.448 35.2431C118.445 35.0756 118.437 34.7406 118.433 34.5731C118.484 34.5053 118.586 34.3698 118.637 34.3039C118.633 34.1364 118.625 33.8013 118.622 33.6338C118.669 33.5661 118.763 33.4324 118.81 33.3665C118.78 32.8659 118.979 32.401 119.049 31.9135C119.147 31.6537 119.237 31.3902 119.348 31.1342C119.359 31.0382 119.384 30.8425 119.395 30.7446C119.482 30.6599 119.657 30.4905 119.743 30.4058C119.692 29.8486 120.06 29.3988 120.199 28.8849C120.425 28.1509 120.765 27.4582 121.033 26.7392C121.078 26.2366 121.204 25.7473 121.419 25.2918C121.439 25.1148 121.462 24.9398 121.486 24.7628C121.878 23.8424 122.057 22.8411 122.518 21.9489C122.772 21.4407 122.896 20.8704 123.222 20.3961C123.912 19.3514 124.46 18.2108 125.204 17.2038C125.207 17.1059 125.217 16.9102 125.222 16.8123C125.352 16.6956 125.484 16.5808 125.618 16.466C125.153 16.0105 124.663 15.5775 124.238 15.0825C123.805 14.4877 123.451 13.8346 122.985 13.2624C122.968 13.1721 122.934 12.9876 122.917 12.8954C122.608 12.0822 122.333 11.2258 122.39 10.3449C122.392 9.83485 122.388 9.32289 122.409 8.8128C122.559 8.48529 122.602 8.1239 122.713 7.78134C122.84 7.33713 123.088 6.93433 123.193 6.48259C123.809 5.677 124.264 4.766 124.801 3.90958C125.285 3.3882 125.787 2.88 126.314 2.40191C127.075 1.90124 127.801 1.29704 128.701 1.058ZM131.5 1.00906C130.374 1.12387 129.264 1.4175 128.24 1.90312C127.06 2.46402 126.085 3.3882 125.335 4.4479C124.709 5.34196 124.02 6.21908 123.641 7.25619C122.945 9.08384 122.883 11.2014 123.688 13.0064C124.14 14.0473 124.936 14.8774 125.704 15.6942C126.231 16.2382 126.578 16.9535 127.216 17.392C127.923 17.8795 128.725 18.2729 129.586 18.3877C130.461 18.4988 131.368 18.1092 131.912 17.4165C132.896 16.1516 133.749 14.7512 134.991 13.7104C135.558 13.2492 136.173 12.8031 136.9 12.6356C137.739 12.4229 138.652 12.3796 139.401 11.9034C140.013 11.5326 140.38 10.8513 140.461 10.1529C140.583 9.17607 140.557 8.18037 140.42 7.20726C140.295 6.28873 139.672 5.56595 139.277 4.75659C138.761 3.70065 137.92 2.81224 136.894 2.24004C135.27 1.31963 133.365 0.862244 131.5 1.00906ZM170.276 1.0147C168.87 1.15023 167.494 1.59443 166.263 2.28145C165.197 2.88941 164.437 3.887 163.872 4.95234C163.443 5.69394 162.903 6.41295 162.803 7.29007C162.658 8.36295 162.594 9.47911 162.862 10.5369C163.044 11.2616 163.611 11.8394 164.298 12.1161C165.312 12.5528 166.506 12.4719 167.443 13.1099C168.826 14.0247 169.869 15.3554 170.795 16.7107C171.281 17.4146 171.883 18.1374 172.758 18.3331C173.901 18.5967 175.025 18.032 175.975 17.4541C176.726 17.008 177.104 16.1893 177.692 15.5757C178.429 14.787 179.13 13.94 179.596 12.9575C180.558 10.8494 180.308 8.29142 179.152 6.30943C178.495 5.18009 177.806 4.03381 176.835 3.14351C175.07 1.56808 172.623 0.815188 170.276 1.0147ZM137.515 22.6322C136.258 22.8693 135.131 23.5413 134.142 24.3318C132.81 25.4235 131.703 26.8258 131.086 28.4445C130.449 30.2194 130.273 32.1807 130.711 34.0253C130.952 35.0417 131.317 36.0675 132.025 36.8581C132.763 37.7088 133.866 38.2528 135.001 38.2434C136.363 38.2491 137.653 37.643 138.724 36.8411C140.614 35.4088 142.123 33.5453 143.467 31.6085C144.005 30.7672 144.604 29.8298 144.489 28.7871C144.357 27.398 143.761 26.0917 142.998 24.9398C141.828 23.1949 139.597 22.1616 137.515 22.6322ZM163.68 22.6397C161.382 23.1178 159.827 25.1826 159.12 27.3039C158.871 28.1339 158.608 29.0525 158.928 29.9013C159.33 30.9761 160.042 31.8946 160.725 32.8038C162.137 34.6879 163.773 36.5023 165.873 37.6279C167.443 38.4768 169.572 38.5088 170.927 37.2345C172.506 35.6986 172.971 33.3609 172.83 31.234C172.736 28.9903 171.725 26.8465 170.161 25.2541C168.553 23.4867 166.129 22.1277 163.68 22.6397ZM119.901 31.7365C118.198 37.7107 118.206 44.1555 119.884 50.1354C120.937 53.2787 122.145 56.4107 124.022 59.1663C125.093 60.706 126.22 62.2155 127.523 63.5707C130.988 67.2373 135.428 69.9459 140.226 71.4837C140.403 69.9779 140.484 68.3215 141.489 67.0962C142.756 65.4454 144.675 64.525 146.49 63.614C147.231 63.2583 147.89 62.7633 148.56 62.2908C149.321 61.7506 150.271 61.585 151.188 61.5624C152.153 61.5417 153.155 61.5304 154.077 61.8692C154.809 62.1327 155.383 62.6786 156.035 63.0889C157.512 64.0131 159.174 64.6361 160.546 65.7315C161.318 66.3414 162.035 67.0679 162.462 67.9676C162.942 69.0236 163.008 70.2018 163.15 71.3368C163.771 71.222 164.379 71.0357 164.958 70.7797C166.208 70.2376 167.479 69.7294 168.659 69.0424C170.554 67.9112 172.412 66.6934 174.029 65.1801C175.986 63.4823 177.663 61.4796 179.109 59.3338C180.511 57.4027 181.505 55.2174 182.388 53.0114C182.856 51.8501 183.148 50.6285 183.536 49.4408C184.029 47.9313 184.259 46.3539 184.443 44.7823C184.912 40.9595 184.656 37.0501 183.726 33.312C183.259 31.8551 182.89 30.3587 182.286 28.9489C182.166 31.1455 182 33.3571 181.405 35.4859C180.967 37.0388 180.436 38.6161 179.431 39.9054C178.365 41.2136 177.208 42.454 175.888 43.5099C173.957 44.9573 171.845 46.1356 169.752 47.3308C167.349 48.6653 164.719 49.5763 162.434 51.1273C161.659 51.6675 160.981 52.3376 160.187 52.8495C158.877 53.7172 157.354 54.1859 155.831 54.5115C154.183 54.8729 152.487 54.7205 150.815 54.7562C148.496 54.8071 146.145 54.3026 144.098 53.2034C142.812 52.5296 141.844 51.404 140.591 50.6793C138.419 49.3806 136.027 48.5129 133.824 47.2687C131.735 46.0641 129.616 44.8915 127.688 43.4327C126.331 42.294 125.096 41.0028 124.033 39.5854C123.444 38.7798 123.052 37.8519 122.73 36.9127C122.09 35.0135 121.688 33.0371 121.49 31.0439C121.385 30.0218 121.434 28.9922 121.366 27.9664C120.677 29.1353 120.389 30.4811 119.901 31.7365ZM146.132 39.9299C145.989 40.7148 146.27 41.6145 146.932 42.0888C147.905 42.6516 149.055 42.7909 150.057 43.2878C150.603 43.6059 151.058 44.0539 151.566 44.4284C152.056 44.0388 152.475 43.5551 153.023 43.2445C153.964 42.8097 155.022 42.6798 155.946 42.198C156.727 41.7895 157.098 40.8108 156.936 39.9694C156.848 39.4932 156.377 39.1619 155.903 39.2165C154.792 39.2598 153.684 39.3483 152.575 39.4066C150.791 39.5685 149.012 39.273 147.233 39.2109C146.759 39.16 146.238 39.448 146.132 39.9299ZM148.621 48.8008C148.615 48.9175 148.605 49.1509 148.602 49.2676C149.469 49.6987 150.305 50.1881 151.152 50.6586C151.493 50.877 151.875 50.6454 152.193 50.4967C152.931 50.0996 153.686 49.7288 154.405 49.2921C154.38 49.1698 154.333 48.9213 154.311 48.799C153.45 48.7783 152.605 48.9552 151.751 48.9891C150.7 49.0342 149.669 48.7726 148.621 48.8008Z" fill="white"/>
<path d="M138.643 26.7843C139.482 26.6225 140.452 26.8051 141.033 27.4732C141.323 27.7876 141.493 28.2694 141.28 28.6722C140.935 29.3837 140.184 29.8034 139.45 30.0067C138.577 30.2458 137.657 29.8016 137.107 29.1277C136.84 28.7983 136.84 28.3165 136.975 27.9325C137.314 27.3189 137.971 26.9274 138.643 26.7843Z" fill="white"/>
<path d="M163.488 26.79C164.42 26.5961 165.499 26.8559 166.114 27.6144C166.457 28.0266 166.507 28.6534 166.199 29.0995C165.696 29.8204 164.742 30.2476 163.876 30.0048C163.298 29.8467 162.745 29.5569 162.329 29.1258C161.937 28.7212 161.849 28.0266 162.203 27.573C162.528 27.1796 162.993 26.9067 163.488 26.79Z" fill="white"/>
<path d="M131.5 1.00919C133.365 0.862378 135.27 1.31976 136.894 2.24017C137.92 2.81237 138.761 3.70079 139.277 4.75672C139.672 5.56608 140.295 6.28886 140.419 7.20739C140.557 8.1805 140.583 9.1762 140.461 10.1531C140.38 10.8514 140.013 11.5328 139.401 11.9036C138.652 12.3798 137.739 12.4231 136.9 12.6357C136.173 12.8033 135.558 13.2494 134.991 13.7105C133.749 14.7514 132.896 16.1518 131.912 17.4166C131.368 18.1093 130.461 18.4989 129.585 18.3879C128.725 18.273 127.923 17.8797 127.216 17.3922C126.578 16.9536 126.231 16.2383 125.704 15.6944C124.936 14.8775 124.14 14.0474 123.688 13.0065C122.883 11.2015 122.945 9.08397 123.641 7.25633C124.02 6.21921 124.708 5.34209 125.335 4.44803C126.084 3.38834 127.059 2.46416 128.24 1.90325C129.263 1.41764 130.374 1.12401 131.5 1.00919Z" fill="black"/>
<path d="M170.276 1.0149C172.623 0.815379 175.07 1.56828 176.835 3.1437C177.806 4.034 178.495 5.18028 179.152 6.30962C180.308 8.29161 180.558 10.8496 179.596 12.9577C179.13 13.9402 178.429 14.7872 177.692 15.5759C177.104 16.1895 176.726 17.0082 175.975 17.4543C175.024 18.0322 173.901 18.5968 172.758 18.3333C171.883 18.1376 171.281 17.4148 170.795 16.7108C169.869 15.3556 168.826 14.0249 167.443 13.1101C166.505 12.4721 165.312 12.553 164.298 12.1163C163.611 11.8396 163.044 11.2618 162.861 10.5371C162.594 9.4793 162.658 8.36314 162.803 7.29027C162.903 6.41314 163.443 5.69413 163.872 4.95253C164.437 3.88719 165.197 2.8896 166.263 2.28164C167.494 1.59463 168.869 1.15042 170.276 1.0149Z" fill="black"/>
<path d="M137.515 22.6322C139.597 22.1617 141.827 23.195 142.998 24.9398C143.761 26.0918 144.357 27.398 144.489 28.7871C144.604 29.8299 144.005 30.7672 143.467 31.6086C142.123 33.5454 140.613 35.4088 138.724 36.8412C137.653 37.643 136.363 38.2491 135.001 38.2435C133.866 38.2529 132.763 37.7089 132.025 36.8581C131.317 36.0676 130.952 35.0418 130.711 34.0254C130.272 32.1808 130.449 30.2195 131.086 28.4446C131.703 26.8258 132.81 25.4236 134.142 24.3319C135.13 23.5413 136.258 22.8694 137.515 22.6322ZM138.643 26.7844C137.971 26.9275 137.314 27.319 136.975 27.9326C136.84 28.3166 136.84 28.7984 137.107 29.1278C137.656 29.8016 138.577 30.2459 139.45 30.0068C140.184 29.8035 140.935 29.3838 141.28 28.6723C141.492 28.2695 141.323 27.7877 141.033 27.4733C140.452 26.8051 139.482 26.6226 138.643 26.7844Z" fill="black"/>
<path d="M163.68 22.6399C166.129 22.1279 168.553 23.4869 170.161 25.2543C171.725 26.8467 172.736 28.9906 172.83 31.2342C172.971 33.3611 172.506 35.6988 170.927 37.2348C169.571 38.509 167.443 38.477 165.873 37.6281C163.772 36.5026 162.137 34.6881 160.725 32.804C160.042 31.8949 159.33 30.9763 158.927 29.9016C158.607 29.0527 158.871 28.1342 159.119 27.3041C159.827 25.1828 161.382 23.118 163.68 22.6399ZM163.488 26.7902C162.993 26.9069 162.528 27.1799 162.203 27.5732C161.849 28.0269 161.937 28.7214 162.329 29.1261C162.745 29.5571 163.298 29.847 163.876 30.0051C164.742 30.2479 165.696 29.8206 166.199 29.0997C166.507 28.6537 166.456 28.0269 166.114 27.6147C165.498 26.8561 164.42 26.5964 163.488 26.7902Z" fill="black"/>
<path d="M119.901 31.7367C120.389 30.4812 120.677 29.1354 121.366 27.9666C121.433 28.9924 121.385 30.022 121.49 31.044C121.688 33.0373 122.09 35.0136 122.73 36.9128C123.052 37.852 123.444 38.78 124.033 39.5856C125.096 41.0029 126.331 42.2941 127.688 43.4329C129.616 44.8916 131.735 46.0642 133.824 47.2689C136.026 48.513 138.419 49.3807 140.591 50.6795C141.844 51.4041 142.812 52.5297 144.097 53.2035C146.145 54.3028 148.496 54.8072 150.815 54.7564C152.487 54.7206 154.182 54.8731 155.831 54.5117C157.354 54.1861 158.877 53.7174 160.187 52.8497C160.981 52.3377 161.659 51.6676 162.434 51.1274C164.719 49.5765 167.349 48.6655 169.752 47.331C171.845 46.1358 173.957 44.9575 175.888 43.51C177.208 42.4541 178.365 41.2137 179.431 39.9056C180.436 38.6162 180.967 37.0389 181.405 35.4861C182 33.3573 182.166 31.1456 182.286 28.9491C182.89 30.3589 183.259 31.8552 183.726 33.3121C184.656 37.0502 184.912 40.9596 184.443 44.7824C184.259 46.3541 184.029 47.9314 183.536 49.441C183.148 50.6286 182.856 51.8502 182.388 53.0116C181.505 55.2175 180.511 57.4028 179.109 59.334C177.663 61.4797 175.986 63.4824 174.029 65.1802C172.412 66.6935 170.554 67.9113 168.659 69.0425C167.479 69.7295 166.208 70.2378 164.958 70.7798C164.378 71.0358 163.771 71.2222 163.149 71.337C163.008 70.202 162.942 69.0237 162.462 67.9678C162.035 67.0681 161.318 66.3415 160.546 65.7317C159.174 64.6362 157.512 64.0132 156.035 63.089C155.383 62.6787 154.809 62.1329 154.077 61.8693C153.155 61.5305 152.153 61.5418 151.188 61.5625C150.271 61.5851 149.321 61.7508 148.56 62.291C147.89 62.7634 147.231 63.2584 146.49 63.6142C144.675 64.5252 142.755 65.4456 141.489 67.0963C140.484 68.3216 140.403 69.978 140.226 71.4838C135.428 69.946 130.988 67.2375 127.522 63.5709C126.22 62.2157 125.093 60.7061 124.022 59.1665C122.145 56.4109 120.937 53.2788 119.884 50.1355C118.205 44.1556 118.198 37.7109 119.901 31.7367Z" fill="black"/>
<path d="M146.132 39.9301C146.238 39.4483 146.759 39.1603 147.233 39.2111C149.012 39.2732 150.791 39.5687 152.575 39.4069C153.684 39.3485 154.792 39.26 155.903 39.2168C156.377 39.1622 156.848 39.4934 156.936 39.9696C157.098 40.811 156.727 41.7898 155.946 42.1982C155.022 42.6801 153.964 42.8099 153.023 43.2447C152.475 43.5553 152.056 44.039 151.566 44.4287C151.058 44.0541 150.602 43.6061 150.057 43.288C149.055 42.7911 147.905 42.6518 146.932 42.089C146.27 41.6147 145.989 40.715 146.132 39.9301Z" fill="black"/>
<path d="M148.62 48.8009C149.669 48.7727 150.7 49.0343 151.751 48.9892C152.605 48.9553 153.45 48.7783 154.31 48.799C154.333 48.9214 154.38 49.1698 154.404 49.2922C153.685 49.7289 152.931 50.0997 152.193 50.4968C151.875 50.6455 151.493 50.877 151.152 50.6587C150.305 50.1881 149.469 49.6988 148.602 49.2677C148.605 49.151 148.615 48.9176 148.62 48.8009Z" fill="black"/>
<path d="M23.5453 84.9248L28.9336 75.5767C29.2442 75.0694 29.6945 74.8158 30.2846 74.8158C30.8747 74.8158 31.325 75.0694 31.6356 75.5767L37.0239 84.9248C37.1482 85.1422 37.2103 85.3958 37.2103 85.6857C37.2103 86.1101 37.055 86.4776 36.7444 86.7882C36.4442 87.0884 36.0819 87.2385 35.6574 87.2385C35.0466 87.2385 34.5808 86.9538 34.2599 86.3845L33.4213 84.9093H27.1479L26.2938 86.3845C25.9729 86.9538 25.5122 87.2385 24.9118 87.2385C24.4873 87.2385 24.1198 87.0884 23.8092 86.7882C23.509 86.4776 23.3589 86.1101 23.3589 85.6857C23.3589 85.4165 23.421 85.1629 23.5453 84.9248ZM31.62 81.8036L30.2846 79.4743L28.9336 81.8036H31.62ZM47.619 85.6857V76.3686C47.619 75.9442 47.7692 75.5819 48.0694 75.2816C48.3799 74.9711 48.7474 74.8158 49.1719 74.8158H53.8304C55.0106 74.8158 56.0148 75.2351 56.8429 76.0736C57.6815 76.8914 58.1007 77.8956 58.1007 79.0861C58.1007 79.8211 57.9247 80.5044 57.5728 81.1359C57.2208 81.7673 56.7394 82.285 56.1286 82.6887L58.0386 84.5832C58.3388 84.9144 58.4889 85.2819 58.4889 85.6857C58.4889 86.1101 58.3337 86.4776 58.0231 86.7882C57.7229 87.0884 57.3605 87.2385 56.9361 87.2385C56.5013 87.2385 56.1338 87.0884 55.8336 86.7882L52.4018 83.3564H50.7247V85.6857C50.7247 86.1101 50.5694 86.4776 50.2589 86.7882C49.9587 87.0884 49.5963 87.2385 49.1719 87.2385C48.7474 87.2385 48.3799 87.0884 48.0694 86.7882C47.7692 86.4776 47.619 86.1101 47.619 85.6857ZM53.877 77.9215H50.7247V80.2507H53.8304C54.1513 80.2507 54.4257 80.1369 54.6534 79.9091C54.8812 79.6814 54.995 79.407 54.995 79.0861C54.995 78.7755 54.8864 78.5115 54.669 78.2942C54.4516 78.0664 54.1876 77.9422 53.877 77.9215ZM76.8426 83.2167C77.1428 82.9164 77.5103 82.7663 77.9451 82.7663C78.3695 82.7663 78.7319 82.9216 79.0321 83.2322C79.3427 83.5324 79.4979 83.8947 79.4979 84.3192C79.4979 84.754 79.3478 85.1215 79.0476 85.4217C77.8364 86.6329 76.3715 87.2385 74.6531 87.2385C72.9346 87.2385 71.4697 86.6329 70.2585 85.4217C69.0473 84.2105 68.4417 82.7456 68.4417 81.0272C68.4417 79.3087 69.0473 77.8438 70.2585 76.6326C71.4697 75.4214 72.9346 74.8158 74.6531 74.8158C76.3508 74.8158 77.8157 75.4214 79.0476 76.6326C79.3478 76.9639 79.4979 77.3314 79.4979 77.7351C79.4979 78.1596 79.3427 78.5271 79.0321 78.8376C78.7319 79.1379 78.3695 79.288 77.9451 79.288C77.5103 79.288 77.1428 79.1379 76.8426 78.8376C76.2318 78.2269 75.502 77.9215 74.6531 77.9215C73.8042 77.9215 73.0743 78.2269 72.4636 78.8376C71.8528 79.4484 71.5474 80.1783 71.5474 81.0272C71.5474 81.876 71.8528 82.6059 72.4636 83.2167C73.0743 83.8274 73.8042 84.1328 74.6531 84.1328C75.502 84.1328 76.2318 83.8274 76.8426 83.2167ZM89.6248 84.9248L95.0131 75.5767C95.3237 75.0694 95.774 74.8158 96.3641 74.8158C96.9542 74.8158 97.4045 75.0694 97.7151 75.5767L103.103 84.9248C103.228 85.1422 103.29 85.3958 103.29 85.6857C103.29 86.1101 103.135 86.4776 102.824 86.7882C102.524 87.0884 102.161 87.2385 101.737 87.2385C101.126 87.2385 100.66 86.9538 100.339 86.3845L99.5009 84.9093H93.2274L92.3733 86.3845C92.0524 86.9538 91.5917 87.2385 90.9913 87.2385C90.5668 87.2385 90.1993 87.0884 89.8888 86.7882C89.5885 86.4776 89.4384 86.1101 89.4384 85.6857C89.4384 85.4165 89.5005 85.1629 89.6248 84.9248ZM97.6996 81.8036L96.3641 79.4743L95.0131 81.8036H97.6996ZM113.699 85.6857V76.3686C113.699 75.9442 113.849 75.5819 114.149 75.2816C114.459 74.9711 114.827 74.8158 115.251 74.8158H119.196C120.904 74.8365 122.353 75.4524 123.544 76.6637C124.744 77.8852 125.345 79.3397 125.345 81.0272C125.345 82.7456 124.739 84.2105 123.528 85.4217C122.317 86.6329 120.852 87.2385 119.134 87.2385H115.251C114.827 87.2385 114.459 87.0884 114.149 86.7882C113.849 86.4776 113.699 86.1101 113.699 85.6857ZM119.134 77.9215H116.804V84.1328H119.196C120.034 84.1121 120.748 83.8016 121.339 83.2011C121.939 82.6007 122.239 81.876 122.239 81.0272C122.239 80.1783 121.934 79.4484 121.323 78.8376C120.712 78.2269 119.982 77.9215 119.134 77.9215ZM135.275 85.6857V76.3686C135.275 75.9442 135.425 75.5819 135.726 75.2816C136.036 74.9711 136.404 74.8158 136.828 74.8158C137.252 74.8158 137.615 74.9711 137.915 75.2816C138.226 75.5819 138.381 75.9442 138.381 76.3686V85.6857C138.381 86.1101 138.226 86.4776 137.915 86.7882C137.615 87.0884 137.252 87.2385 136.828 87.2385C136.404 87.2385 136.036 87.0884 135.726 86.7882C135.425 86.4776 135.275 86.1101 135.275 85.6857ZM148.971 84.9248L154.36 75.5767C154.67 75.0694 155.121 74.8158 155.711 74.8158C156.301 74.8158 156.751 75.0694 157.062 75.5767L162.45 84.9248C162.574 85.1422 162.636 85.3958 162.636 85.6857C162.636 86.1101 162.481 86.4776 162.17 86.7882C161.87 87.0884 161.508 87.2385 161.083 87.2385C160.473 87.2385 160.007 86.9538 159.686 86.3845L158.847 84.9093H152.574L151.72 86.3845C151.399 86.9538 150.938 87.2385 150.338 87.2385C149.913 87.2385 149.546 87.0884 149.235 86.7882C148.935 86.4776 148.785 86.1101 148.785 85.6857C148.785 85.4165 148.847 85.1629 148.971 84.9248ZM157.046 81.8036L155.711 79.4743L154.36 81.8036H157.046Z" fill="white"/>
<path d="M18.9576 93.1963L167.042 92.4972" stroke="white" stroke-width="0.705838" stroke-linecap="round"/>
<path d="M71.018 100.455H68.8158C68.6653 100.455 68.5351 100.402 68.4249 100.295C68.3185 100.185 68.2653 100.055 68.2653 99.9045V96.6012C68.2653 96.4507 68.3185 96.3223 68.4249 96.2158C68.5351 96.1057 68.6653 96.0507 68.8158 96.0507H71.0401C71.4144 96.058 71.7338 96.1956 71.998 96.4636C72.2623 96.7315 72.3944 97.0527 72.3944 97.427C72.3944 97.728 72.3027 98.0033 72.1192 98.2529C72.3027 98.5024 72.3944 98.7777 72.3944 99.0787C72.3944 99.4604 72.2605 99.7852 71.9925 100.053C71.7246 100.321 71.3998 100.455 71.018 100.455ZM71.018 97.1518H69.3664V97.7023H71.018C71.0951 97.7023 71.1594 97.6766 71.2107 97.6252C71.2658 97.5702 71.2933 97.5041 71.2933 97.427C71.2933 97.35 71.2658 97.2857 71.2107 97.2343C71.1594 97.1793 71.0951 97.1518 71.018 97.1518ZM71.0401 98.8034H69.3664V99.354H71.018C71.0951 99.354 71.1594 99.3283 71.2107 99.2769C71.2658 99.2218 71.2933 99.1558 71.2933 99.0787C71.2933 99.0053 71.2676 98.9429 71.2162 98.8915C71.1685 98.8365 71.1098 98.8071 71.0401 98.8034ZM74.9285 99.9045V96.6012C74.9285 96.4507 74.9817 96.3223 75.0881 96.2158C75.1983 96.1057 75.3285 96.0507 75.479 96.0507H77.1307C77.5491 96.0507 77.9051 96.1993 78.1988 96.4966C78.4961 96.7866 78.6447 97.1426 78.6447 97.5647C78.6447 97.8253 78.5823 98.0675 78.4575 98.2914C78.3327 98.5153 78.1621 98.6988 77.9455 98.842L78.6227 99.5136C78.7291 99.6311 78.7824 99.7614 78.7824 99.9045C78.7824 100.055 78.7273 100.185 78.6172 100.295C78.5107 100.402 78.3823 100.455 78.2318 100.455C78.0776 100.455 77.9473 100.402 77.8409 100.295L76.6242 99.0787H76.0296V99.9045C76.0296 100.055 75.9745 100.185 75.8644 100.295C75.758 100.402 75.6295 100.455 75.479 100.455C75.3285 100.455 75.1983 100.402 75.0881 100.295C74.9817 100.185 74.9285 100.055 74.9285 99.9045ZM77.1472 97.1518H76.0296V97.9776H77.1307C77.2445 97.9776 77.3417 97.9372 77.4225 97.8565C77.5032 97.7757 77.5436 97.6785 77.5436 97.5647C77.5436 97.4546 77.5051 97.361 77.428 97.2839C77.3509 97.2031 77.2573 97.1591 77.1472 97.1518ZM81.3175 99.9045V96.6012C81.3175 96.4507 81.3707 96.3223 81.4771 96.2158C81.5873 96.1057 81.7175 96.0507 81.868 96.0507H84.6208C84.7713 96.0507 84.8997 96.1057 85.0062 96.2158C85.1163 96.3223 85.1714 96.4507 85.1714 96.6012C85.1714 96.7517 85.1163 96.882 85.0062 96.9921C84.8997 97.0985 84.7713 97.1518 84.6208 97.1518H82.4186V97.7023H84.0702C84.2207 97.7023 84.3492 97.7574 84.4556 97.8675C84.5657 97.9739 84.6208 98.1024 84.6208 98.2529C84.6208 98.4033 84.5657 98.5336 84.4556 98.6438C84.3492 98.7502 84.2207 98.8034 84.0702 98.8034H82.4186V99.354H84.6208C84.7713 99.354 84.8997 99.409 85.0062 99.5191C85.1163 99.6256 85.1714 99.754 85.1714 99.9045C85.1714 100.055 85.1163 100.185 85.0062 100.295C84.8997 100.402 84.7713 100.455 84.6208 100.455H81.868C81.7175 100.455 81.5873 100.402 81.4771 100.295C81.3707 100.185 81.3175 100.055 81.3175 99.9045ZM89.1379 99.9045V97.1518H88.0368C87.8863 97.1518 87.756 97.0985 87.6459 96.9921C87.5395 96.882 87.4863 96.7517 87.4863 96.6012C87.4863 96.4507 87.5395 96.3223 87.6459 96.2158C87.756 96.1057 87.8863 96.0507 88.0368 96.0507H91.3401C91.4906 96.0507 91.6191 96.1057 91.7255 96.2158C91.8356 96.3223 91.8907 96.4507 91.8907 96.6012C91.8907 96.7517 91.8356 96.882 91.7255 96.9921C91.6191 97.0985 91.4906 97.1518 91.3401 97.1518H90.239V99.9045C90.239 100.055 90.184 100.185 90.0739 100.295C89.9674 100.402 89.839 100.455 89.6885 100.455C89.538 100.455 89.4077 100.402 89.2976 100.295C89.1911 100.185 89.1379 100.055 89.1379 99.9045ZM93.6617 99.6348L95.5722 96.3204C95.6823 96.1406 95.8419 96.0507 96.0511 96.0507C96.2604 96.0507 96.42 96.1406 96.5301 96.3204L98.4405 99.6348C98.4846 99.7118 98.5066 99.8018 98.5066 99.9045C98.5066 100.055 98.4516 100.185 98.3414 100.295C98.235 100.402 98.1065 100.455 97.9561 100.455C97.7395 100.455 97.5743 100.354 97.4606 100.152L97.1633 99.6292H94.939L94.6362 100.152C94.5224 100.354 94.3591 100.455 94.1462 100.455C93.9957 100.455 93.8654 100.402 93.7553 100.295C93.6489 100.185 93.5957 100.055 93.5957 99.9045C93.5957 99.8091 93.6177 99.7192 93.6617 99.6348ZM96.5246 98.5281L96.0511 97.7023L95.5722 98.5281H96.5246ZM102.747 99.354C102.968 99.354 103.173 99.2897 103.364 99.1613V98.8695H102.813C102.663 98.8695 102.533 98.8163 102.423 98.7098C102.316 98.5997 102.263 98.4694 102.263 98.3189C102.263 98.1684 102.316 98.04 102.423 97.9335C102.533 97.8234 102.663 97.7684 102.813 97.7684H103.915C104.065 97.7684 104.193 97.8234 104.3 97.9335C104.41 98.04 104.465 98.1684 104.465 98.3189V99.42C104.465 99.5742 104.41 99.7045 104.3 99.8109H104.305C103.876 100.24 103.357 100.455 102.747 100.455C102.138 100.455 101.619 100.24 101.189 99.8109C100.76 99.3815 100.545 98.8621 100.545 98.2529C100.545 97.6436 100.76 97.1242 101.189 96.6948C101.619 96.2654 102.138 96.0507 102.747 96.0507C103.349 96.0507 103.869 96.2654 104.305 96.6948C104.412 96.8123 104.465 96.9425 104.465 97.0857C104.465 97.2362 104.41 97.3665 104.3 97.4766C104.193 97.583 104.065 97.6362 103.915 97.6362C103.76 97.6362 103.63 97.583 103.524 97.4766C103.307 97.26 103.048 97.1518 102.747 97.1518C102.446 97.1518 102.188 97.26 101.971 97.4766C101.755 97.6931 101.646 97.9519 101.646 98.2529C101.646 98.5538 101.755 98.8126 101.971 99.0291C102.188 99.2457 102.446 99.354 102.747 99.354ZM106.943 99.9045V96.6012C106.943 96.4507 106.997 96.3223 107.103 96.2158C107.213 96.1057 107.343 96.0507 107.494 96.0507C107.637 96.0507 107.767 96.1039 107.885 96.2103L110.247 98.5722V96.6012C110.247 96.4507 110.3 96.3223 110.406 96.2158C110.516 96.1057 110.647 96.0507 110.797 96.0507C110.948 96.0507 111.076 96.1057 111.183 96.2158C111.293 96.3223 111.348 96.4507 111.348 96.6012V99.9045C111.348 100.055 111.293 100.185 111.183 100.295C111.076 100.402 110.948 100.455 110.797 100.455C110.643 100.455 110.513 100.402 110.406 100.295L108.044 97.9335V99.9045C108.044 100.055 107.989 100.185 107.879 100.295C107.773 100.402 107.644 100.455 107.494 100.455C107.343 100.455 107.213 100.402 107.103 100.295C106.997 100.185 106.943 100.055 106.943 99.9045ZM113.988 99.9045V96.6012C113.988 96.4507 114.042 96.3223 114.148 96.2158C114.258 96.1057 114.388 96.0507 114.539 96.0507H117.292C117.442 96.0507 117.571 96.1057 117.677 96.2158C117.787 96.3223 117.842 96.4507 117.842 96.6012C117.842 96.7517 117.787 96.882 117.677 96.9921C117.571 97.0985 117.442 97.1518 117.292 97.1518H115.089V97.7023H116.741C116.892 97.7023 117.02 97.7574 117.126 97.8675C117.237 97.9739 117.292 98.1024 117.292 98.2529C117.292 98.4033 117.237 98.5336 117.126 98.6438C117.02 98.7502 116.892 98.8034 116.741 98.8034H115.089V99.354H117.292C117.442 99.354 117.571 99.409 117.677 99.5191C117.787 99.6256 117.842 99.754 117.842 99.9045C117.842 100.055 117.787 100.185 117.677 100.295C117.571 100.402 117.442 100.455 117.292 100.455H114.539C114.388 100.455 114.258 100.402 114.148 100.295C114.042 100.185 113.988 100.055 113.988 99.9045Z" fill="white"/>
</svg>
