<svg width="123" height="130" viewBox="0 0 123 130" fill="none" xmlns="http://www.w3.org/2000/svg">
<path d="M22.4804 4.87507C23.1902 4.68237 23.8519 4.35477 24.5295 4.0625C26.6782 3.95009 28.8333 4.0625 30.9884 4.01111C32.7645 3.88264 34.3189 4.90077 35.9666 5.39216C36.9654 6.14693 38.1795 6.59014 39.0916 7.46695C39.8078 8.16069 40.5016 8.88334 41.2049 9.59314C41.3302 10.4892 41.8312 11.2665 42.2616 12.0437C43.5142 11.578 44.6961 10.9517 45.9519 10.4956C46.2506 10.4603 46.5525 10.425 46.8576 10.3896C47.6573 10.0331 48.4956 9.71839 49.3949 9.78905C49.5073 9.70876 49.7353 9.54817 49.8478 9.46788C50.1336 9.4743 50.7085 9.48714 50.9944 9.49357C51.1068 9.40685 51.3348 9.23342 51.4504 9.1467C51.9354 9.15313 52.4268 9.16276 52.9214 9.17239C53.037 9.08567 53.2651 8.91224 53.3775 8.82553C53.9717 8.83516 54.569 8.84158 55.1696 8.85122C55.282 8.7645 55.5133 8.59428 55.6257 8.50756C57.0774 8.52683 58.5323 8.50435 59.9873 8.52683C60.1029 8.44333 60.3309 8.26989 60.4433 8.18639C61.3587 8.19923 62.2772 8.19923 63.199 8.18639C63.3146 8.2731 63.5427 8.44333 63.6551 8.52683C65.0008 8.50756 66.3465 8.52683 67.6955 8.50756C67.8111 8.59428 68.0391 8.7645 68.1515 8.84801C68.8517 8.83837 69.5551 8.83516 70.2617 8.82553C70.3773 8.91224 70.6053 9.08567 70.7209 9.17239C71.2059 9.16276 71.6941 9.15634 72.1887 9.14991C72.3011 9.23021 72.5292 9.38758 72.6416 9.46788C73.9359 9.44218 75.1339 10.0267 76.4025 10.2034C77.9795 10.7558 79.5822 11.2729 81.0628 12.0598C81.3775 11.4945 81.6923 10.9196 81.8143 10.2772C83.4876 7.71105 85.98 5.6202 88.954 4.76587C89.9657 4.48966 90.9261 3.93082 92.0084 4.01111C94.0575 4.04002 96.1098 3.98863 98.1589 4.04644C99.5014 4.43185 100.821 4.88471 102.125 5.39216C103.49 6.27861 104.929 7.08797 106.076 8.26668C107.762 10.2965 109.432 12.4227 110.322 14.9375C110.688 15.7854 111.044 16.6622 110.974 17.6097C111.054 17.7221 111.212 17.9501 111.292 18.0625C111.25 19.5078 111.327 20.9499 111.263 22.392C110.983 23.4711 110.765 24.5695 110.434 25.6326C109.419 27.746 107.855 29.5574 106.134 31.1279C106.564 31.5583 106.847 32.0947 107.149 32.6182C108.225 33.7359 108.806 35.2133 109.612 36.5205C110.11 37.2367 110.511 38.0236 110.749 38.8682C111.038 39.9859 111.664 40.9687 112.043 42.0511C112.564 43.1977 112.885 44.4149 113.322 45.5937C114.086 47.2284 114.266 49.0559 114.719 50.7871C115.371 52.7109 115.984 54.6508 116.662 56.565C116.925 58.264 117.664 59.8795 117.719 61.6107C117.799 61.7231 117.959 61.9511 118.04 62.0667C118.033 62.3526 118.02 62.9211 118.014 63.2069C118.101 63.3225 118.274 63.5506 118.361 63.6662C118.345 64.2604 118.342 64.8577 118.335 65.4583C118.422 65.5708 118.595 65.802 118.682 65.9144C118.666 66.6178 118.663 67.3212 118.66 68.0277C118.743 68.1402 118.916 68.3714 119 68.4838C118.984 71.5446 118.984 74.6054 119 77.663C118.913 77.7786 118.743 78.0067 118.656 78.1223C118.663 78.8224 118.666 79.5258 118.682 80.2324C118.595 80.3448 118.422 80.576 118.335 80.6885C118.342 81.2826 118.345 81.88 118.358 82.4774C118.277 82.593 118.11 82.8179 118.03 82.9335C118.155 84.1732 117.619 85.323 117.42 86.5242C117.295 87.2244 117.108 87.9149 116.983 88.6151C116.389 90.2466 116.058 91.9585 115.419 93.574C114.863 94.8426 114.526 96.243 113.614 97.3189C113.18 98.8445 112.313 100.203 111.507 101.552C110.768 103.129 109.596 104.446 108.912 106.052C107.887 107.07 107.097 108.284 106.089 109.318C105.392 110.526 104.152 111.268 103.436 112.456C102.806 113.426 101.807 114.03 100.931 114.739C99.1385 116.74 96.6815 117.961 94.7513 119.801C91.4849 121.789 88.0291 123.504 84.464 124.892C83.144 125.203 81.9749 126.164 80.581 126.061C80.475 125.948 80.2598 125.724 80.1506 125.611C80.08 124.635 80.1378 123.655 80.1314 122.679C79.9772 122.531 79.6689 122.232 79.5147 122.082C79.3188 120.302 78.6379 118.545 77.4881 117.158C75.2206 115.07 72.3332 113.879 69.6482 112.446C68.8645 111.685 67.8047 111.332 67.0146 110.593C65.7941 109.732 64.2878 109.215 62.7847 109.36C61.1981 109.472 59.5344 109.084 58.0217 109.703C56.6502 110.172 55.6996 111.341 54.4213 111.981C53.3036 113.121 51.6913 113.538 50.2781 114.19C49.5459 114.65 48.7975 115.077 48.062 115.53C46.9989 116.146 46.2281 117.123 45.3513 117.961C44.452 118.773 44.3749 120.068 43.9189 121.124C43.466 122.605 43.4532 124.137 43.527 125.672C43.1545 125.894 42.7819 126.112 42.4093 126.334C41.3173 125.682 40.0487 125.454 38.8764 124.995C36.9847 124.201 35.0352 123.536 33.2366 122.534C31.7656 121.915 30.4873 120.945 29.042 120.283C28.602 120.113 28.4736 119.599 28.1074 119.348C26.2703 118.093 24.5295 116.702 22.7374 115.385C21.3595 113.975 19.805 112.706 18.7002 111.062C17.817 110.442 17.226 109.53 16.4809 108.772C15.5527 107.452 14.4543 106.248 13.7091 104.809C12.1065 102.48 10.5199 100.11 9.57883 97.4217C8.65706 95.6295 7.95368 93.741 7.28564 91.8429C7.26315 91.6759 7.21818 91.3451 7.1957 91.1813C7.04796 91.0367 6.7557 90.7477 6.60796 90.6031C6.60796 89.797 6.30605 89.0487 6.0202 88.31C5.84356 87.0413 5.2526 85.8465 5.28151 84.549C5.20442 84.4334 5.04382 84.1989 4.96353 84.0833C4.96674 83.5919 4.97316 83.1037 4.98601 82.6155C4.89929 82.4999 4.72587 82.2719 4.63916 82.1595C4.64558 81.5589 4.65199 80.9615 4.66483 80.3673C4.57812 80.2549 4.40789 80.0236 4.32118 79.9112C4.33402 78.7775 4.32441 77.6469 4.34046 76.5132C4.25696 76.4008 4.08351 76.1695 4 76.0571C4.01606 73.9598 4.01606 71.8658 4 69.7685C4.08351 69.6561 4.25696 69.4281 4.34046 69.3124C4.32441 68.2847 4.33402 67.2601 4.32118 66.2356C4.40468 66.12 4.57813 65.8919 4.66164 65.7795C4.652 65.0729 4.64879 64.3696 4.63916 63.6662C4.72587 63.5506 4.89929 63.3225 4.98601 63.2069C4.97959 62.9211 4.96675 62.3494 4.96033 62.0635C5.04705 61.9479 5.22047 61.7167 5.30719 61.6042C5.30076 61.3184 5.28793 60.7467 5.28151 60.4609C5.3618 60.3452 5.52239 60.1172 5.60268 60.0048C5.55129 59.1505 5.89172 58.3572 6.01056 57.5253C6.17757 57.0821 6.33174 56.6325 6.52124 56.1957C6.54051 56.0319 6.58226 55.6978 6.60153 55.5308C6.74927 55.3863 7.04796 55.0972 7.1957 54.9527C7.10898 54.002 7.73529 53.2344 7.97295 52.3576C8.35837 51.105 8.93969 49.9231 9.39576 48.6962C9.47284 47.8387 9.68802 47.0036 10.0542 46.2264C10.0895 45.9245 10.128 45.6258 10.1698 45.3239C10.8378 43.7533 11.1429 42.0447 11.9298 40.5223C12.3634 39.6551 12.5754 38.682 13.131 37.8726C14.3097 36.0901 15.2443 34.1438 16.513 32.4255C16.5194 32.2585 16.5355 31.9244 16.5451 31.7574C16.7667 31.5583 16.9915 31.3624 17.2196 31.1665C16.4263 30.3892 15.5912 29.6505 14.8654 28.8058C14.1267 27.7909 13.5229 26.6764 12.7263 25.7001C12.6974 25.5459 12.6396 25.2312 12.6107 25.0738C12.084 23.6863 11.6151 22.225 11.7114 20.7219C11.7146 19.8515 11.7082 18.9779 11.7435 18.1075C12.0005 17.5486 12.0744 16.932 12.2639 16.3474C12.479 15.5895 12.903 14.9022 13.0828 14.1313C14.1331 12.7567 14.9103 11.2022 15.8257 9.74087C16.6511 8.85122 17.5086 7.98405 18.4079 7.16826C19.7055 6.31394 20.9452 5.28296 22.4804 4.87507ZM27.2563 4.79156C25.3357 4.98748 23.4407 5.48851 21.6935 6.31714C19.6798 7.27425 18.0161 8.85122 16.7378 10.6594C15.6683 12.185 14.4928 13.6817 13.8472 15.4514C12.6589 18.57 12.5529 22.1832 13.9275 25.2633C14.6984 27.0394 16.0569 28.4557 17.3673 29.8497C18.2666 30.7778 18.8576 31.9983 19.9464 32.7467C21.154 33.5785 22.5222 34.2498 23.99 34.4457C25.4834 34.6352 27.0315 33.9703 27.9597 32.7884C29.6394 30.6301 31.0943 28.2406 33.2141 26.4645C34.1808 25.6776 35.2311 24.9164 36.4708 24.6306C37.9033 24.2676 39.461 24.1938 40.7392 23.3812C41.7831 22.7485 42.4093 21.5858 42.5474 20.3943C42.7562 18.7274 42.7113 17.0283 42.4768 15.3679C42.2648 13.8005 41.2017 12.5672 40.5273 11.1862C39.6472 9.38437 38.2116 7.86842 36.4612 6.89205C33.6894 5.3215 30.4391 4.54105 27.2563 4.79156ZM93.4216 4.8012C91.0224 5.03244 88.6746 5.79042 86.5741 6.96271C84.7563 8.00011 83.4587 9.70234 82.4952 11.5202C81.7629 12.7856 80.8412 14.0125 80.6709 15.5092C80.4236 17.3399 80.3144 19.2444 80.7705 21.0495C81.082 22.286 82.0488 23.272 83.2211 23.7441C84.9522 24.4892 86.9884 24.3511 88.5879 25.4399C90.9485 27.0008 92.7279 29.2715 94.308 31.584C95.1367 32.7852 96.1644 34.0185 97.6579 34.3525C99.6074 34.8022 101.525 33.8386 103.147 32.8526C104.428 32.0914 105.074 30.6943 106.076 29.6473C107.335 28.3016 108.53 26.8563 109.326 25.1798C110.967 21.5826 110.54 17.2178 108.568 13.8359C107.447 11.9088 106.272 9.95285 104.615 8.43369C101.602 5.74546 97.4267 4.46075 93.4216 4.8012ZM37.5211 41.6882C35.3756 42.0928 33.4518 43.2394 31.7656 44.5884C29.4917 46.4512 27.6032 48.844 26.5497 51.6061C25.4641 54.6347 25.1622 57.9814 25.9106 61.1289C26.3217 62.8632 26.9448 64.6136 28.1524 65.9626C29.4114 67.4143 31.2935 68.3425 33.2302 68.3264C35.5555 68.3361 37.7555 67.3019 39.583 65.9337C42.8076 63.4895 45.3834 60.3099 47.6766 57.005C48.5952 55.5694 49.6165 53.9699 49.4206 52.1906C49.1958 49.8203 48.1776 47.5914 46.8769 45.6258C44.8792 42.6485 41.0733 40.8852 37.5211 41.6882ZM82.1676 41.701C78.2461 42.5168 75.5932 46.0401 74.3855 49.6597C73.9616 51.0761 73.5119 52.6435 74.0579 54.0919C74.7453 55.9259 75.9593 57.4932 77.1252 59.0445C79.534 62.2594 82.325 65.3556 85.9093 67.2762C88.5879 68.7247 92.2204 68.7793 94.5329 66.6049C97.2275 63.9841 98.0208 59.9952 97.7799 56.3659C97.6193 52.5375 95.8947 48.8793 93.2257 46.1621C90.4829 43.1463 86.3461 40.8274 82.1676 41.701ZM7.46549 57.2234C4.55886 67.4175 4.5717 78.4145 7.43658 88.6183C9.23195 93.9819 11.2939 99.3263 14.496 104.028C16.3235 106.655 18.2473 109.231 20.4699 111.544C26.3827 117.8 33.9592 122.422 42.146 125.046C42.4479 122.477 42.586 119.65 44.3011 117.559C46.4626 114.743 49.7386 113.172 52.8347 111.618C54.1001 111.011 55.2242 110.166 56.3676 109.36C57.6652 108.438 59.2871 108.155 60.8512 108.117C62.4988 108.081 64.2075 108.062 65.7813 108.64C67.0306 109.09 68.0102 110.021 69.1215 110.722C71.6427 112.299 74.4787 113.362 76.8201 115.231C78.1369 116.271 79.3605 117.511 80.0896 119.046C80.9086 120.848 81.021 122.859 81.2619 124.795C82.3218 124.6 83.3592 124.282 84.3484 123.845C86.481 122.92 88.6489 122.053 90.6627 120.88C93.8969 118.95 97.0669 116.872 99.8258 114.29C103.166 111.393 106.028 107.976 108.494 104.314C110.887 101.019 112.583 97.29 114.089 93.5258C114.889 91.5442 115.387 89.4598 116.048 87.4331C116.89 84.8573 117.282 82.1659 117.596 79.4841C118.396 72.961 117.959 66.2902 116.373 59.9116C115.576 57.4257 114.947 54.8724 113.916 52.4668C113.71 56.2149 113.428 59.9887 112.413 63.6212C111.664 66.2709 110.759 68.9624 109.044 71.1624C107.226 73.3946 105.25 75.5111 102.999 77.3129C99.7038 79.7828 96.1002 81.7933 92.5287 83.8328C88.4273 86.1099 83.9405 87.6644 80.0414 90.3109C78.7182 91.2326 77.562 92.376 76.2066 93.2496C73.9712 94.7302 71.3729 95.53 68.7746 96.0856C65.9611 96.7023 63.0673 96.4421 60.2153 96.5031C56.2584 96.5899 52.2469 95.7291 48.7526 93.8534C46.5589 92.7036 44.9081 90.783 42.7691 89.5465C39.0627 87.3304 34.9806 85.8498 31.2228 83.7268C27.6578 81.6713 24.0413 79.6703 20.7525 77.1812C18.4368 75.2381 16.3299 73.0349 14.5153 70.6164C13.51 69.2418 12.842 67.6584 12.2927 66.0557C11.2007 62.8151 10.5134 59.4427 10.1762 56.0415C9.99635 54.2975 10.0798 52.5407 9.96422 50.7903C8.78872 52.7848 8.29734 55.0812 7.46549 57.2234ZM52.2245 71.2042C51.9804 72.5435 52.4589 74.0787 53.5895 74.888C55.2499 75.8484 57.2123 76.086 58.921 76.9339C59.8524 77.4767 60.6296 78.2411 61.4968 78.8802C62.3318 78.2154 63.0481 77.39 63.9827 76.8601C65.5886 76.1181 67.3936 75.8965 68.9705 75.0743C70.3034 74.3774 70.9361 72.7073 70.6599 71.2716C70.509 70.459 69.706 69.8938 68.8967 69.9869C67.0017 70.0608 65.11 70.2117 63.2183 70.3113C60.1735 70.5875 57.1384 70.0833 54.1033 69.9773C53.294 69.8906 52.4043 70.382 52.2245 71.2042ZM56.4704 86.3411C56.4608 86.5403 56.4447 86.9385 56.4383 87.1377C57.9189 87.8732 59.3449 88.7082 60.7902 89.5111C61.3715 89.8837 62.0235 89.4887 62.5663 89.2349C63.8253 88.5573 65.1132 87.9245 66.3401 87.1794C66.2984 86.9706 66.2181 86.5467 66.1795 86.3379C64.7118 86.3026 63.2697 86.6045 61.8115 86.6623C60.0194 86.7394 58.2593 86.293 56.4704 86.3411Z" fill="white"/>
<path d="M39.4449 48.7732C40.8773 48.497 42.5314 48.8086 43.5238 49.9487C44.0184 50.4851 44.3075 51.3073 43.9445 51.9946C43.3568 53.2087 42.0753 53.9249 40.8227 54.2718C39.3325 54.6796 37.7619 53.9217 36.8241 52.7719C36.368 52.2098 36.368 51.3876 36.5993 50.7324C37.1774 49.6854 38.2983 49.0173 39.4449 48.7732Z" fill="white"/>
<path d="M81.84 48.7828C83.4298 48.452 85.2701 48.8953 86.3204 50.1896C86.9049 50.893 86.9916 51.9625 86.4649 52.7237C85.6074 53.9538 83.979 54.6828 82.5016 54.2685C81.5156 53.9987 80.5713 53.5041 79.8615 52.7686C79.1935 52.0781 79.0426 50.893 79.6464 50.1189C80.202 49.4477 80.9953 48.982 81.84 48.7828Z" fill="white"/>
<path d="M27.2562 4.79152C30.4391 4.541 33.6893 5.32146 36.4611 6.89201C38.2115 7.86838 39.6471 9.38432 40.5272 11.1861C41.2016 12.5672 42.2647 13.8005 42.4767 15.3678C42.7112 17.0283 42.7561 18.7273 42.5474 20.3942C42.4092 21.5858 41.783 22.7484 40.7391 23.3811C39.4609 24.1937 37.9032 24.2676 36.4707 24.6305C35.231 24.9164 34.1807 25.6775 33.214 26.4644C31.0942 28.2405 29.6393 30.6301 27.9596 32.7884C27.0314 33.9703 25.4833 34.6351 23.9899 34.4456C22.5221 34.2497 21.1539 33.5785 19.9463 32.7466C18.8575 31.9983 18.2665 30.7778 17.3672 29.8496C16.0568 28.4557 14.6983 27.0393 13.9274 25.2632C12.5528 22.1832 12.6588 18.5699 13.8471 15.4513C14.4927 13.6816 15.6682 12.185 16.7377 10.6594C18.016 8.85117 19.6797 7.2742 21.6934 6.3171C23.4406 5.48847 25.3356 4.98744 27.2562 4.79152Z" fill="black"/>
<path d="M93.4214 4.80121C97.4265 4.46077 101.602 5.74547 104.614 8.43371C106.272 9.95287 107.447 11.9088 108.568 13.8359C110.54 17.2178 110.967 21.5826 109.326 25.1798C108.53 26.8563 107.335 28.3016 106.076 29.6473C105.074 30.6944 104.428 32.0915 103.147 32.8526C101.525 33.8387 99.6073 34.8022 97.6577 34.3525C96.1643 34.0185 95.1365 32.7852 94.3079 31.584C92.7277 29.2716 90.9484 27.0008 88.5877 25.4399C86.9883 24.3511 84.952 24.4893 83.2209 23.7441C82.0486 23.272 81.0819 22.286 80.7703 21.0495C80.3143 19.2445 80.4235 17.3399 80.6708 15.5092C80.841 14.0125 81.7628 12.7856 82.4951 11.5202C83.4586 9.70235 84.7561 8.00012 86.574 6.96273C88.6745 5.79044 91.0223 5.03246 93.4214 4.80121Z" fill="black"/>
<path d="M37.5209 41.688C41.0731 40.8851 44.879 42.6483 46.8767 45.6256C48.1775 47.5912 49.1956 49.8202 49.4205 52.1905C49.6164 53.9698 48.595 55.5692 47.6765 57.0049C45.3833 60.3098 42.8075 63.4894 39.5829 65.9335C37.7554 67.3018 35.5553 68.3359 33.23 68.3263C31.2933 68.3424 29.4112 67.4142 28.1522 65.9624C26.9446 64.6135 26.3215 62.8631 25.9104 61.1288C25.1621 57.9812 25.464 54.6346 26.5496 51.6059C27.603 48.8438 29.4915 46.4511 31.7654 44.5882C33.4516 43.2393 35.3755 42.0927 37.5209 41.688ZM39.4448 48.7732C38.2982 49.0172 37.1772 49.6853 36.5991 50.7323C36.3679 51.3875 36.3679 52.2097 36.824 52.7718C37.7618 53.9216 39.3323 54.6796 40.8226 54.2717C42.0752 53.9248 43.3567 53.2086 43.9444 51.9945C44.3073 51.3072 44.0183 50.485 43.5237 49.9487C42.5312 48.8085 40.8772 48.4969 39.4448 48.7732Z" fill="black"/>
<path d="M82.1675 41.7011C86.346 40.8275 90.4828 43.1463 93.2256 46.1622C95.8946 48.8793 97.6193 52.5375 97.7799 56.3659C98.0207 59.9952 97.2274 63.9842 94.5328 66.605C92.2203 68.7793 88.5878 68.7247 85.9092 67.2762C82.3249 65.3556 79.5339 62.2595 77.1251 59.0445C75.9592 57.4932 74.7452 55.9259 74.0579 54.092C73.5119 52.6435 73.9615 51.0762 74.3855 49.6598C75.5931 46.0401 78.246 42.5168 82.1675 41.7011ZM81.84 48.783C80.9953 48.9821 80.202 49.4478 79.6463 50.1191C79.0425 50.8931 79.1935 52.0782 79.8615 52.7687C80.5713 53.5042 81.5156 53.9989 82.5016 54.2686C83.979 54.683 85.6073 53.9539 86.4649 52.7238C86.9916 51.9626 86.9049 50.8931 86.3204 50.1897C85.2701 48.8954 83.4298 48.4522 81.84 48.783Z" fill="black"/>
<path d="M7.46528 57.2233C8.29712 55.0811 8.78851 52.7847 9.96401 50.7902C10.0796 52.5406 9.99614 54.2974 10.176 56.0414C10.5132 59.4427 11.2005 62.815 12.2925 66.0556C12.8417 67.6583 13.5098 69.2417 14.5151 70.6163C16.3297 73.0348 18.4366 75.238 20.7523 77.1812C24.0411 79.6703 27.6576 81.6712 31.2226 83.7267C34.9803 85.8497 39.0625 87.3303 42.7688 89.5464C44.9079 90.7829 46.5587 92.7036 48.7523 93.8534C52.2467 95.729 56.2582 96.5898 60.2151 96.5031C63.0671 96.442 65.9609 96.7022 68.7744 96.0855C71.3727 95.5299 73.971 94.7302 76.2064 93.2495C77.5618 92.376 78.718 91.2326 80.0412 90.3108C83.9403 87.6643 88.4271 86.1098 92.5285 83.8327C96.1 81.7932 99.7036 79.7827 102.999 77.3128C105.25 75.511 107.226 73.3945 109.043 71.1623C110.758 68.9623 111.664 66.2708 112.412 63.6211C113.427 59.9887 113.71 56.2148 113.916 52.4667C114.947 54.8723 115.576 57.4257 116.373 59.9116C117.959 66.2901 118.396 72.9609 117.596 79.484C117.282 82.1658 116.89 84.8572 116.048 87.4331C115.387 89.4597 114.889 91.5441 114.089 93.5258C112.583 97.2899 110.887 101.019 108.494 104.314C106.027 107.975 103.166 111.393 99.8256 114.29C97.0667 116.872 93.8967 118.95 90.6625 120.88C88.6487 122.053 86.4808 122.92 84.3482 123.845C83.359 124.282 82.3216 124.599 81.2617 124.795C81.0208 122.859 80.9084 120.848 80.0894 119.046C79.3603 117.511 78.1367 116.271 76.8198 115.231C74.4785 113.362 71.6425 112.298 69.1213 110.721C68.01 110.021 67.0304 109.09 65.7811 108.64C64.2073 108.062 62.4986 108.081 60.851 108.117C59.2869 108.155 57.665 108.438 56.3674 109.36C55.224 110.166 54.0999 111.011 52.8345 111.618C49.7384 113.172 46.4624 114.743 44.3009 117.559C42.5858 119.65 42.4477 122.476 42.1458 125.046C33.959 122.422 26.3825 117.8 20.4697 111.544C18.2471 109.231 16.3233 106.655 14.4958 104.028C11.2937 99.3262 9.23173 93.9818 7.43637 88.6182C4.57148 78.4145 4.55864 67.4174 7.46528 57.2233Z" fill="black"/>
<path d="M52.2243 71.2042C52.4041 70.382 53.2938 69.8906 54.1032 69.9773C57.1383 70.0833 60.1734 70.5876 63.2181 70.3114C65.1098 70.2118 67.0016 70.0608 68.8965 69.987C69.7059 69.8938 70.5088 70.4591 70.6598 71.2717C70.936 72.7073 70.3032 74.3774 68.9704 75.0744C67.3934 75.8966 65.5884 76.1182 63.9825 76.8601C63.0479 77.3901 62.3317 78.2155 61.4966 78.8803C60.6294 78.2412 59.8522 77.4768 58.9208 76.934C57.2121 76.0861 55.2498 75.8484 53.5893 74.8881C52.4587 74.0787 51.9802 72.5435 52.2243 71.2042Z" fill="black"/>
<path d="M56.4704 86.3412C58.2593 86.293 60.0193 86.7394 61.8115 86.6623C63.2696 86.6045 64.7117 86.3026 66.1795 86.3379C66.218 86.5467 66.2983 86.9707 66.3401 87.1794C65.1132 87.9246 63.8253 88.5573 62.5663 89.235C62.0235 89.4887 61.3715 89.8837 60.7902 89.5112C59.3449 88.7082 57.9188 87.8732 56.4382 87.1377C56.4447 86.9386 56.4607 86.5403 56.4704 86.3412Z" fill="black"/>
</svg>
